<?xml version="1.0" standalone="no"?>
<!DOCTYPE svg PUBLIC "-//W3C//DTD SVG 1.1//EN" "http://www.w3.org/Graphics/SVG/1.1/DTD/svg11.dtd" >
<svg xmlns="http://www.w3.org/2000/svg" xmlns:xlink="http://www.w3.org/1999/xlink" version="1.1">
<metadata>
Created by FontForge 20201107 at Wed Oct 20 21:18:00 2004
 By 
Copyright (c)  2-2004-M.Klen
</metadata>
<defs>
<font id="Sansumi-UltraLight" horiz-adv-x="852" >
  <font-face 
    font-family="Sansumi-UltraLight"
    font-weight="100"
    font-stretch="normal"
    units-per-em="1000"
    panose-1="2 0 2 7 4 0 0 2 0 4"
    ascent="800"
    descent="-200"
    x-height="532"
    cap-height="709"
    bbox="-286 -282 1390 839"
    underline-thickness="50"
    underline-position="-125"
    unicode-range="U+0005-E00F"
  />
<missing-glyph horiz-adv-x="653" 
d="M570 0v2q-11 12 -17 21t-9.5 18.5t-4.5 22t-1 32.5v280q0 82 -49.5 125t-168.5 43q-54 0 -85.5 -5.5l-31.5 -5.5l2 -16q1 0 9 2.5t34 5t71 2.5q56 0 94 -9.5t61.5 -29t33.5 -49t10 -68.5v-26q-113 -9 -198 -23t-141.5 -37.5t-85 -59.5t-28.5 -90q0 -26 10.5 -52t36.5 -47
t70 -34.5t112 -13.5q21 0 50 4t60 14.5t61 28.5t53 45h1q0 -25 5.5 -43t22.5 -37h23zM518 102q-25 -32 -56.5 -51t-62 -29.5t-58 -13.5t-45.5 -3q-64 0 -105 12.5t-64.5 31.5t-32.5 42t-9 45q0 49 28 82t82.5 54.5t135.5 34t187 21.5v-226z" />
    <glyph glyph-name=".notdef" horiz-adv-x="653" 
d="M570 0v2q-11 12 -17 21t-9.5 18.5t-4.5 22t-1 32.5v280q0 82 -49.5 125t-168.5 43q-54 0 -85.5 -5.5l-31.5 -5.5l2 -16q1 0 9 2.5t34 5t71 2.5q56 0 94 -9.5t61.5 -29t33.5 -49t10 -68.5v-26q-113 -9 -198 -23t-141.5 -37.5t-85 -59.5t-28.5 -90q0 -26 10.5 -52t36.5 -47
t70 -34.5t112 -13.5q21 0 50 4t60 14.5t61 28.5t53 45h1q0 -25 5.5 -43t22.5 -37h23zM518 102q-25 -32 -56.5 -51t-62 -29.5t-58 -13.5t-45.5 -3q-64 0 -105 12.5t-64.5 31.5t-32.5 42t-9 45q0 49 28 82t82.5 54.5t135.5 34t187 21.5v-226z" />
    <glyph glyph-name=".null" horiz-adv-x="0" 
 />
    <glyph glyph-name="nonmarkingreturn" horiz-adv-x="333" 
 />
    <glyph glyph-name="breve" horiz-adv-x="500" 
d="M371 685h-20q-16 -18 -39 -33.5t-62 -15.5t-62 15.5t-39 33.5h-20q7 -11 17 -22.5t25 -21.5t34.5 -16.5t44.5 -6.5t44.5 6.5t34.5 16.5t25 21.5t17 22.5z" />
    <glyph glyph-name="dotaccent" horiz-adv-x="500" 
d="M259 612v77h-18v-77h18z" />
    <glyph glyph-name="ring" horiz-adv-x="500" 
d="M327 643q0 30 -24 46t-53 16t-53 -16t-24 -46t24 -46t52 -16h1q29 0 53 16t24 46zM307 643q0 -17 -14 -31t-43 -14h-1q-30 0 -44 14t-14 31q0 21 17 33t41 12t41 -12t17 -33z" />
    <glyph glyph-name="hungarumlaut" unicode="&#xa;" horiz-adv-x="500" 
d="M435 702h-33l-91 -141h12zM280 702h-33l-91 -141h12z" />
    <glyph glyph-name="ogonek" horiz-adv-x="500" 
d="M343 -103l-12 9q-14 -12 -32.5 -19.5t-37.5 -7.5q-34 0 -46.5 13.5t-12.5 27.5t7.5 27t25.5 29l28 24h-23l-18 -14q-25 -19 -32.5 -36t-7.5 -32q0 -27 22 -42t52 -15q28 0 50.5 11t36.5 25z" />
    <glyph glyph-name="caron" horiz-adv-x="500" 
d="M390 678h-18l-121 -66h-2l-121 66h-18l139 -92h2z" />
    <glyph glyph-name="dotlessi" unicode="&#xd;" horiz-adv-x="280" 
d="M150 0v532h-20v-532h20z" />
    <glyph glyph-name="fraction" horiz-adv-x="296" 
d="M469 705h-22l-609 -717h23z" />
    <glyph glyph-name="fi" horiz-adv-x="869" 
d="M739 647v80h-20v-80h20zM739 0v532h-20v-532h20zM625 720q-19 15 -38.5 25t-39.5 18q-30 11 -63.5 15.5t-71.5 4.5q-100 0 -160 -36q-19 -11 -33.5 -34t-24 -50.5t-14.5 -56.5t-5 -53v-21h-131v-18h131v-764h20v764h324v18h-324v20q0 24 5 51.5t14 53.5t22 47t29 30
q30 18 67.5 25t79.5 7q74 0 129 -20q49 -18 73 -43z" />
    <glyph glyph-name="fl" horiz-adv-x="869" 
d="M739 0v727h-20v-727h20zM625 730q-19 15 -38.5 25t-39.5 18q-30 11 -63.5 15.5t-71.5 4.5q-100 0 -160 -36q-19 -11 -33.5 -35.5t-24 -54t-14.5 -60t-5 -54.5v-21h-131v-18h131v-764h20v764h324v18h-324v20q0 24 5 53t14 57t22 50.5t29 31.5q30 18 67.5 25t79.5 7
q74 0 129 -20q49 -18 73 -43z" />
    <glyph glyph-name="Lslash" horiz-adv-x="689" 
d="M644 0v19h-472v313l209 64v18l-209 -64v359h-22v-365l-87 -27v-18l87 27v-326h494z" />
    <glyph glyph-name="lslash" horiz-adv-x="280" 
d="M223 438v20l-73 -57v326h-20v-342l-70 -55v-20l70 55v-365h20v381z" />
    <glyph glyph-name="Zcaron" horiz-adv-x="695" 
d="M498 822h-18l-131 -44h-2l-131 44h-18l149 -67h2zM621 0v19h-510l492 671v19h-483v-19h459l-493 -671v-19h535z" />
    <glyph glyph-name="zcaron" horiz-adv-x="604" 
d="M442 678h-18l-121 -66h-2l-121 66h-18l139 -92h2zM568 0v18h-481l465 494v20h-468v-18h445l-466 -494v-20h505z" />
    <glyph glyph-name="space" unicode=" " horiz-adv-x="266" 
 />
    <glyph glyph-name="exclam" unicode="!" horiz-adv-x="320" 
d="M170 709h-20l3 -553h14zM170 0v80h-20v-80h20z" />
    <glyph glyph-name="quotedbl" unicode="&#x22;" horiz-adv-x="353" 
d="M250 709h-24l6 -163h12zM127 709h-24l6 -163h12z" />
    <glyph glyph-name="numbersign" unicode="#" horiz-adv-x="720" 
d="M674 448h-173l99 244h-19l-99 -244h-166l99 244h-19l-99 -244h-174l-6 -16h173l-65 -158h-173l-6 -16h173l-105 -258h19l105 258h166l-105 -258h19l105 258h174l6 16h-174l65 158h174zM475 432l-65 -158h-166l65 158h166z" />
    <glyph glyph-name="dollar" unicode="$" 
d="M709 199q0 51 -29.5 83t-72.5 51t-91.5 29.5t-85.5 18.5v277q51 0 88.5 -7.5t64.5 -19.5t44 -27.5t28 -32.5l17 10q-13 20 -31 37t-45.5 29t-68 19.5t-97.5 8.5v73h-18v-73q-80 0 -130 -15t-79 -36.5t-39.5 -47t-10.5 -47.5q0 -50 27 -77.5t67 -43t84.5 -23.5t80.5 -18
v-338q-40 0 -78 5t-71.5 16.5t-62 29t-49.5 43.5l-15 -14q23 -28 55 -46.5t68.5 -30t76 -16t76.5 -4.5v-82h18v82q61 1 112.5 16t88.5 40t57.5 58.5t20.5 72.5zM412 385q-32 9 -73.5 16t-78 21t-62 37.5t-25.5 65.5q0 22 9.5 45.5t35.5 42t72.5 31t121.5 14.5v-273zM689 195
q0 -33 -19 -63t-53.5 -52.5t-82 -36t-104.5 -14.5v334q37 -9 82 -18.5t84.5 -26.5t66 -46t26.5 -77z" />
    <glyph glyph-name="percent" unicode="%" horiz-adv-x="1016" 
d="M931 166v1q0 39 -13 72t-36.5 57t-56 37.5t-72.5 13.5t-72.5 -13.5t-56 -37.5t-36.5 -57t-13 -72t13 -72t36.5 -57t56 -37.5t72.5 -13.5t72.5 13.5t56 37.5t36.5 57t13 71zM793 716h-22l-548 -727h23zM442 538v1q0 39 -13 72t-36.5 57t-56 37.5t-72.5 13.5t-72.5 -13.5
t-56 -37.5t-36.5 -57t-13 -72t13 -72t36.5 -57t56 -37.5t72.5 -13.5t72.5 13.5t56 37.5t36.5 57t13 71zM911 166q0 -36 -11.5 -66t-32 -51.5t-49.5 -33.5t-64 -12h-1q-36 0 -65 12t-49.5 33.5t-32 51.5t-11.5 66t11.5 66t32 51.5t49.5 33.5t65 12t65 -12t49.5 -33.5
t32 -51.5t11.5 -66zM422 538q0 -36 -11.5 -66t-32 -51.5t-49.5 -33.5t-64 -12h-1q-36 0 -65 12t-49.5 33.5t-32 51.5t-11.5 66t11.5 66t32 51.5t49.5 33.5t65 12t65 -12t49.5 -33.5t32 -51.5t11.5 -66z" />
    <glyph glyph-name="ampersand" unicode="&#x26;" horiz-adv-x="935" 
d="M869 0q-38 19 -79.5 41.5t-95.5 57.5q48 48 84 112t45 139h-18q-10 -74 -45 -135.5t-81 -106.5q-91 63 -168 127.5t-146 133.5q44 18 81.5 37t64.5 40.5t42.5 47.5t15.5 58q0 31 -13.5 54t-37 38t-55 22.5t-66.5 7.5q-33 0 -62.5 -8t-51.5 -23.5t-35 -38.5t-13 -54
q0 -26 9 -50t23 -46.5t31.5 -43t35.5 -37.5q-44 -15 -83.5 -35t-69.5 -45.5t-48 -57.5t-18 -72q0 -89 69.5 -133t192.5 -44q56 0 102.5 9t84 23.5t65.5 32.5t47 35h4q47 -30 82 -49.5t66 -36.5h41zM550 554q0 -30 -15.5 -54.5t-42.5 -45.5t-63 -39t-77 -35q-41 43 -69 83
t-28 87v1q0 47 38 76.5t109 29.5q30 0 57 -6.5t47 -19.5t32 -32.5t12 -44.5zM664 95q-62 -53 -135 -73t-149 -20q-14 0 -37.5 1t-50.5 6t-55 15t-50.5 27.5t-37 44.5t-14.5 65v1q0 63 51 111t160 88q73 -74 156 -143.5t162 -122.5z" />
    <glyph glyph-name="quotesingle" unicode="'" horiz-adv-x="230" 
d="M127 709h-24l6 -163h12z" />
    <glyph glyph-name="parenleft" unicode="(" horiz-adv-x="496" 
d="M398 -174q-40 32 -73.5 72t-59.5 92q-21 41 -34 83t-19.5 81.5t-9 75t-2.5 62.5q0 28 2.5 63t9 74t19 80t32.5 81q27 55 61 95.5t74 72.5l-11 10q-22 -17 -40.5 -33.5t-35 -36t-32 -42.5t-30.5 -52q-36 -69 -52.5 -148t-16.5 -164q0 -84 16 -163t54 -151q28 -54 60.5 -91
t76.5 -71z" />
    <glyph glyph-name="parenright" unicode=")" horiz-adv-x="496" 
d="M316 292q0 85 -16.5 164t-52.5 148q-15 29 -30.5 52t-32 42.5t-35 36t-40.5 33.5l-11 -10q40 -32 74 -72.5t61 -95.5q20 -40 32.5 -81t19 -80t9 -74t2.5 -63q0 -27 -2.5 -62.5t-9 -75t-19.5 -81.5t-34 -83q-26 -52 -59.5 -92t-73.5 -72l11 -10q44 34 76.5 71t60.5 91
q38 72 54 151t16 163z" />
    <glyph glyph-name="asterisk" unicode="*" horiz-adv-x="682" 
d="M522 428l-171 91v1l170 92l-10 18l-164 -102l-1 1l5 194h-20l5 -194l-1 -1l-164 102l-10 -18l170 -92v-1l-171 -91l10 -18l165 100l1 -1l-5 -192h20l-5 192l1 1l165 -100z" />
    <glyph glyph-name="plus" unicode="+" horiz-adv-x="800" 
d="M656 245v16h-247v185h-18v-185h-247v-16h247v-201h18v201h247z" />
    <glyph glyph-name="comma" unicode="," horiz-adv-x="260" 
d="M150 80h-24l-31 -160h12z" />
    <glyph glyph-name="hyphen" unicode="-" horiz-adv-x="399" 
d="M298 318v18h-283v-18h283z" />
    <glyph glyph-name="period" unicode="." horiz-adv-x="260" 
d="M68 0v80h-20v-80h20z" />
    <glyph glyph-name="slash" unicode="/" horiz-adv-x="724" 
d="M637 739h-21l-523 -751h22z" />
    <glyph glyph-name="zero" unicode="0" 
d="M777 347q0 83 -26.5 149.5t-73.5 113t-111.5 71t-139.5 24.5t-139.5 -24.5t-111.5 -71t-73.5 -112.5t-26.5 -149v-1q0 -84 26.5 -150.5t73.5 -113t111.5 -71t139.5 -24.5t139.5 24.5t111.5 71t73.5 113t26.5 150.5zM757 347q0 -84 -26.5 -147.5t-71.5 -106.5t-105.5 -65
t-127.5 -22q-68 0 -128 22t-105 65t-71.5 106.5t-26.5 147.5t26.5 148t71.5 107t105 65t127 22h1q67 0 127.5 -22t105.5 -65t71.5 -107t26.5 -148z" />
    <glyph glyph-name="one" unicode="1" horiz-adv-x="707" 
d="M403 0v698h-6l-272 -108l8 -17l250 100v-673h20z" />
    <glyph glyph-name="two" unicode="2" 
d="M719 0v20h-576q18 59 52.5 102t77.5 75.5t92 57.5t97.5 46.5t93 43t78.5 47.5t54.5 59.5t20.5 79.5q0 30 -14 60.5t-48 56t-91.5 41.5t-145.5 16q-116 0 -182.5 -39t-89.5 -109l23 -3q21 65 82.5 99.5t164.5 34.5q87 0 141.5 -15.5t85.5 -39t42.5 -51t11.5 -51.5
q0 -43 -21 -74t-56 -56t-80.5 -46.5t-95 -44.5t-99 -49t-92.5 -61.5t-75.5 -81.5t-48.5 -109l9 -9h589z" />
    <glyph glyph-name="three" unicode="3" 
d="M713 183q0 79 -63.5 129t-201.5 57v1q64 3 107 19t69.5 39.5t38 51t11.5 54.5q0 35 -14.5 66t-45 54.5t-77.5 37t-112 13.5q-68 0 -115.5 -14t-78 -36t-46.5 -48t-21 -50l20 -4q5 21 19 45t42 44t71.5 33t108.5 13q63 0 106.5 -13t71 -34.5t39.5 -49t12 -56.5
q0 -23 -9.5 -48.5t-38 -48.5t-81 -39.5t-138.5 -19.5v-20q93 -3 152.5 -18.5t93.5 -39t47 -54t13 -64.5q0 -39 -16 -71.5t-49 -56t-82 -37t-115 -13.5q-68 0 -116 12t-81 32t-53.5 47.5t-32.5 58.5l-20 -6q13 -35 36 -64t59.5 -51t87.5 -34t120 -12q70 0 123 14.5t88.5 41
t53 62t17.5 77.5z" />
    <glyph glyph-name="four" unicode="4" 
d="M725 200v18h-161v480h-16l-435 -484v-14h431v-200h20v200h161zM545 667q-1 -54 -1 -107v-107v-235h-402l233 261q42 47 83 93.5t83 94.5h4z" />
    <glyph glyph-name="five" unicode="5" 
d="M719 213q0 49 -21.5 91t-60.5 72t-94.5 47t-124.5 17q-71 0 -125.5 -19.5t-86.5 -43.5h-2l61 295h402v20h-418l-70 -343l12 -5q29 30 86 54.5t140 24.5q64 0 116.5 -15.5t89 -43.5t56.5 -67t20 -85q0 -48 -23 -86.5t-62.5 -65.5t-92 -41t-110.5 -14q-61 0 -105.5 12.5
t-77 33t-53.5 47t-35 54.5l-20 -7q13 -30 36 -58t58.5 -50t84 -35.5t113.5 -13.5q76 0 134 19.5t96 51.5t57.5 72t19.5 82z" />
    <glyph glyph-name="six" unicode="6" 
d="M755 217q0 50 -22.5 91t-64.5 70.5t-102 45.5t-135 16q-70 0 -123 -14.5t-90 -37.5t-59 -52.5t-29 -59.5h-1q-1 98 17 175t57 129.5t100.5 80t147.5 27.5q103 0 163.5 -37t87.5 -97l19 7q-29 63 -94 103.5t-176 40.5q-93 0 -158 -30.5t-106 -85t-59.5 -130.5t-18.5 -167
q0 -49 14 -102.5t51 -98.5t102 -74t167 -29q92 0 152.5 24t96 59.5t49.5 75t14 70.5zM735 216q0 -34 -14.5 -71t-48.5 -68t-90 -51.5t-139 -20.5q-68 0 -117.5 14t-83.5 36t-54.5 48.5t-32 52t-15 45.5t-3.5 30v1q0 28 16 61.5t51.5 62.5t92.5 48t139 19q68 0 123.5 -14
t94.5 -41t60 -65.5t21 -86.5z" />
    <glyph glyph-name="seven" unicode="7" 
d="M691 680v12h-541v-19h516v-2l-342 -671h23z" />
    <glyph glyph-name="eight" unicode="8" 
d="M743 180q0 42 -20 76.5t-54 59t-77.5 39t-89.5 17.5v1q44 3 83 14t68.5 30.5t46.5 47.5t17 66q0 36 -19 68t-56 55.5t-91.5 37t-124.5 13.5t-124.5 -13.5t-91.5 -37t-56 -55.5t-19 -68t17.5 -64.5t47 -48.5t68.5 -31.5t82 -13.5v-1q-46 -2 -89.5 -16.5t-77 -39.5
t-54 -59.5t-20.5 -76.5q0 -45 23 -80.5t65 -60t100.5 -37.5t128.5 -13q74 0 133 13.5t100 38.5t62.5 60.5t21.5 78.5zM697 531q0 -32 -17 -59.5t-51 -47.5t-85 -31.5t-118 -11.5t-118 11.5t-85 31.5t-51 47t-17 59v1q0 32 17.5 60.5t52 50t85 34t116.5 12.5t116.5 -12.5
t85 -34t52 -50t17.5 -60.5zM723 179q0 -41 -21.5 -73t-60.5 -54.5t-94 -34.5t-121 -12t-121 12t-94 34t-60.5 54t-21.5 73v1q0 35 18 68t55 59t93 41.5t131 15.5t131 -15.5t93 -41.5t55 -59t18 -68z" />
    <glyph glyph-name="nine" unicode="9" 
d="M755 401q0 19 -3 49t-14.5 64t-33 68t-59 61.5t-93 44.5t-134.5 17q-89 0 -148.5 -22t-95 -55.5t-50.5 -72.5t-15 -72q0 -41 16.5 -82t54 -74t99.5 -53.5t154 -20.5q70 0 123 14.5t90 37.5t58.5 52.5t29.5 59.5h1q1 -90 -14.5 -166t-53.5 -130.5t-100 -85t-154 -30.5
q-53 0 -94 11t-72.5 30.5t-54.5 45t-39 54.5l-19 -7q18 -31 42.5 -58.5t58.5 -48t77.5 -32.5t100.5 -12q96 0 161 31.5t105.5 87t58 131t17.5 163.5zM727 461q0 -33 -18 -67t-54.5 -61.5t-93 -45t-133.5 -17.5q-71 0 -127 15.5t-94 43.5t-58 67t-20 86q0 31 13 67t46 67
t89.5 51.5t143.5 20.5q68 0 117.5 -14t83.5 -36t54.5 -48.5t32 -52t15 -46t3.5 -29.5v-1z" />
    <glyph glyph-name="colon" unicode=":" horiz-adv-x="260" 
d="M140 407v80h-20v-80h20zM140 0v80h-20v-80h20z" />
    <glyph glyph-name="semicolon" unicode=";" horiz-adv-x="260" 
d="M140 407v80h-20v-80h20zM150 80h-24l-31 -160h12z" />
    <glyph glyph-name="less" unicode="&#x3c;" horiz-adv-x="800" 
d="M616 33v18l-454 201v2l454 201v18l-472 -212v-16z" />
    <glyph glyph-name="equal" unicode="=" horiz-adv-x="800" 
d="M656 309v16h-512v-16h512zM656 181v16h-512v-16h512z" />
    <glyph glyph-name="greater" unicode="&#x3e;" horiz-adv-x="800" 
d="M656 245v16l-472 212v-18l454 -201v-2l-454 -201v-18z" />
    <glyph glyph-name="question" unicode="?" horiz-adv-x="585" 
d="M568 552q0 46 -21 77.5t-57.5 50.5t-85 27t-103.5 8q-68 0 -117.5 -10.5t-84 -29.5t-57 -44t-35.5 -53l18 -8q13 28 34.5 51.5t54.5 40.5t78 26.5t105 9.5q49 0 94 -7t80 -23.5t56 -44t21 -69.5q0 -28 -7 -50t-22 -40.5t-39.5 -35t-59.5 -33.5q-52 -25 -85 -48.5
t-51.5 -50.5t-24.5 -60.5t-4 -79.5h15q-1 39 4 69.5t21.5 56t46.5 48t80 46.5q41 19 69 38t45 39.5t24.5 44.5t7.5 54zM275 0v80h-20v-80h20z" />
    <glyph glyph-name="at" unicode="@" horiz-adv-x="996" 
d="M728 378q0 1 -3 17.5t-13.5 42t-30 49.5t-52 41.5t-79.5 17.5q-27 0 -55 -1.5t-50.5 -4t-37 -4l-14.5 -1.5l2 -16l41.5 5t112.5 5q37 0 63.5 -11.5t44 -28.5t28 -37.5t15.5 -37.5t6.5 -29l1.5 -12zM920 362q0 52 -23 100.5t-69 86t-113.5 60t-157.5 22.5q-100 0 -186 -28
t-149.5 -80.5t-99.5 -127t-36 -167.5q0 -72 28 -133t79 -105.5t122 -70t156 -25.5q69 0 137.5 11.5t125.5 49.5l-12 12q-53 -32 -110 -44t-128 -12q-83 0 -152 23.5t-119.5 65.5t-78.5 100t-28 128q0 100 39.5 172t105.5 121q65 48 142.5 70.5t165.5 22.5q95 0 157 -23.5
t102 -55.5q47 -38 64.5 -85t17.5 -88q0 -33 -7 -67t-19 -65t-29 -58t-37 -45q-10 -9 -20.5 -11t-21.5 -2q-10 0 -20 0.5t-18 -2.5v267l-20 -5v-26q-113 -9 -198 -23t-141.5 -37.5t-85 -59.5t-28.5 -90q0 -26 10.5 -52t36.5 -47t70 -34.5t112 -13.5q21 0 50 4t60 14.5
t61 28.5t53 45h1l19 11q9 3 20 3t23 0.5t24 3t23 11.5q23 20 41.5 50t32 64.5t21 70t7.5 65.5zM708 105l-4.5 -1.5l-1.5 -0.5l1 -3q-25 -30 -55.5 -48t-60.5 -28t-57 -13t-44 -3q-64 0 -105 12.5t-64.5 31.5t-32.5 42t-9 45q0 49 28 82t82.5 54.5t135.5 34t187 21.5v-226z
" />
    <glyph glyph-name="A" unicode="A" horiz-adv-x="691" 
d="M666 0l-314 709h-14l-313 -709h23l110 247h373l111 -247h24zM523 266h-356l90 209q22 50 43 100t43 104h3q23 -56 45 -106.5t44 -101.5z" />
    <glyph glyph-name="B" unicode="B" horiz-adv-x="801" 
d="M726 194q0 84 -72.5 129.5t-198.5 50.5v2q62 4 105 18t69.5 36t38.5 50t12 61q0 36 -17 66.5t-56.5 53t-103.5 35.5t-157 13h-196v-709h192q64 0 132.5 6t124 26t91.5 58.5t36 103.5zM658 543q0 -30 -11 -58.5t-45 -51t-95.5 -36t-162.5 -13.5h-172v306h171q87 0 147 -11
t97.5 -30.5t54 -46.5t16.5 -59zM704 194q0 -59 -33.5 -93.5t-86 -52.5t-117 -23.5t-125.5 -5.5h-170v346h186q177 0 261.5 -45t84.5 -126z" />
    <glyph glyph-name="C" unicode="C" horiz-adv-x="844" 
d="M771 151l-17 12q-16 -22 -41.5 -49.5t-61.5 -52t-82.5 -41t-103.5 -16.5q-69 0 -134.5 21t-116 64.5t-81.5 109.5t-31 155q0 94 32.5 161t85 109t118.5 61.5t132 19.5q49 0 89 -11.5t72 -31t56.5 -45t42.5 -53.5l18 11q-19 30 -46 57t-61.5 47t-77 32t-93.5 12
q-86 0 -157 -26t-123 -74t-81 -115.5t-29 -152.5t30 -154t85 -120q43 -40 112.5 -67.5t157.5 -27.5q59 0 107 16t85.5 40t65.5 53t48 56z" />
    <glyph glyph-name="D" unicode="D" horiz-adv-x="861" 
d="M781 354q0 81 -24.5 146.5t-74.5 112t-126.5 71.5t-179.5 25h-226v-709h226q103 0 179.5 25t126.5 71.5t74.5 112t24.5 145.5zM759 354q0 -75 -22.5 -136.5t-69 -105.5t-118.5 -68.5t-171 -24.5h-206v671h206q99 0 171 -24.5t118.5 -68.5t69 -106t22.5 -137z" />
    <glyph glyph-name="E" unicode="E" horiz-adv-x="719" 
d="M629 0v19h-457v342h360v19h-360v310h443v19h-465v-709h479z" />
    <glyph glyph-name="F" unicode="F" horiz-adv-x="700" 
d="M615 690v19h-465v-709h22v361h360v19h-360v310h443z" />
    <glyph glyph-name="G" unicode="G" horiz-adv-x="836" 
d="M737 588q-24 31 -50.5 56t-59 42.5t-73.5 27t-94 9.5q-41 0 -85 -8.5t-86.5 -27.5t-80 -48t-66 -70t-45.5 -94.5t-17 -120.5q0 -88 31 -156.5t83.5 -115.5t121 -71.5t144.5 -24.5q78 0 144 18.5t132 62.5v243h-311v-19h289v-215q-54 -36 -119.5 -54t-127.5 -18
q-75 0 -141.5 23t-116 67.5t-78.5 110t-29 149.5q0 66 16.5 117.5t44 90.5t64 66.5t76.5 44.5t81.5 24.5t79.5 7.5q46 0 83 -8.5t67.5 -24.5t56 -40t49.5 -55z" />
    <glyph glyph-name="H" unicode="H" horiz-adv-x="915" 
d="M765 0v709h-22v-327h-571v327h-22v-709h22v363h571v-363h22z" />
    <glyph glyph-name="I" unicode="I" horiz-adv-x="342" 
d="M182 0v709h-22v-709h22z" />
    <glyph glyph-name="J" unicode="J" horiz-adv-x="629" 
d="M484 321v388h-22v-387q0 -160 -61.5 -238.5t-174.5 -78.5q-69 0 -117 25.5t-88 63.5l-14 -15q21 -20 43 -37t48 -29.5t57 -19.5t70 -7q122 0 190.5 83.5t68.5 251.5z" />
    <glyph glyph-name="K" unicode="K" horiz-adv-x="744" 
d="M705 0l-370 416l307 293h-30l-223 -214q-54 -52 -107.5 -103.5t-108.5 -104.5h-1v210v212h-22v-709h22v260l149 143l355 -403h29z" />
    <glyph glyph-name="L" unicode="L" horiz-adv-x="689" 
d="M644 0v19h-472v690h-22v-709h494z" />
    <glyph glyph-name="M" unicode="M" horiz-adv-x="1275" 
d="M1127 0v709h-30q-171 -256 -285 -427t-172 -259h-3q-57 88 -171.5 259t-284.5 427h-31v-709h22v426q0 170 -2 259h3q58 -88 171 -258.5t283 -426.5h22q171 257 284 426.5t171 258.5h3q-2 -88 -2 -258v-427h22z" />
    <glyph glyph-name="N" unicode="N" horiz-adv-x="904" 
d="M754 0v709h-22v-427t2 -258h-3q-70 88 -208 258t-346 427h-27v-709h22q0 255 -0.5 425.5t-1.5 259.5h3q70 -89 208.5 -259.5t345.5 -425.5h27z" />
    <glyph glyph-name="O" unicode="O" horiz-adv-x="940" 
d="M860 354q0 93 -32.5 162.5t-86.5 115.5t-124.5 68.5t-146.5 22.5t-146.5 -22.5t-124.5 -68.5t-86.5 -115t-32.5 -162v-1q0 -93 32.5 -162t86.5 -115t124.5 -68.5t146.5 -22.5t146.5 22.5t124.5 68.5t86.5 115t32.5 162zM838 355q0 -89 -30.5 -155t-81.5 -109.5
t-117.5 -64.5t-138.5 -21t-138.5 21t-117.5 64.5t-81.5 109.5t-30.5 155q0 90 30.5 156t81.5 109.5t117.5 64.5t137.5 21h1q72 0 138.5 -21t117.5 -64.5t81.5 -109.5t30.5 -156z" />
    <glyph glyph-name="P" unicode="P" horiz-adv-x="811" 
d="M750 503q0 46 -20 84t-64 65t-114 42t-171 15h-231v-709h22v292h189q106 0 180 15t120.5 42.5t67.5 66.5t21 87zM728 503q0 -43 -18.5 -78t-62 -60.5t-114 -39.5t-174.5 -14h-187v379h217q95 0 160 -14.5t104.5 -40t57 -59.5t17.5 -73z" />
    <glyph glyph-name="Q" unicode="Q" horiz-adv-x="940" 
d="M860 354q0 93 -32.5 162.5t-86.5 115.5t-124.5 68.5t-146.5 22.5t-146.5 -22.5t-124.5 -68.5t-86.5 -115t-32.5 -162v-1q0 -93 32.5 -162t86.5 -115t124.5 -68.5t146.5 -22.5q18 0 36 1.5t35 3.5q14 -16 35 -35.5t50 -39.5q22 -15 51.5 -22.5t57 -10t50.5 -1.5t32 4
l-10 17q-9 -2 -30 -2.5t-46.5 2.5t-51.5 9.5t-45 19.5q-17 11 -34 26t-37 37q61 12 115.5 40t94.5 73t63.5 106.5t23.5 139.5zM838 355q0 -77 -23 -136.5t-62.5 -102.5t-92 -69t-112.5 -36l-38 44q-14 16 -40 39.5t-59 39.5q-30 15 -66 18.5t-69.5 1.5t-62 -7t-43.5 -9
q-32 42 -50 95.5t-18 121.5q0 90 30.5 156t81.5 109.5t117.5 64.5t137.5 21h1q72 0 138.5 -21t117.5 -64.5t81.5 -109.5t30.5 -156zM526 8q-27 -3 -56 -3q-84 0 -159 28.5t-128 87.5q16 4 42.5 9t56.5 6.5t61.5 -2t58.5 -16.5q31 -14 50 -30.5t42 -41.5z" />
    <glyph glyph-name="R" unicode="R" horiz-adv-x="809" 
d="M786 0l-321 309q58 2 108 18t87 43t57.5 63.5t20.5 80.5t-19 80t-61 61.5t-108.5 39.5t-161.5 14h-238v-709h22v308h268l317 -308h29zM716 514q0 -37 -17.5 -70.5t-52 -59.5t-84.5 -41.5t-115 -15.5h-275v363h208q103 0 168.5 -14.5t103 -39t51 -56.5t13.5 -66z" />
    <glyph glyph-name="S" unicode="S" horiz-adv-x="790" 
d="M712 193q0 48 -23 80t-52 51q-18 12 -38 20.5t-46 16.5t-61 16t-81 18q-53 12 -90 20t-63 15t-43.5 13t-32.5 14q-29 14 -47.5 40.5t-18.5 61.5q0 36 17.5 62t51.5 45q36 20 91.5 29.5t117.5 9.5q55 0 98 -7t74.5 -20t52.5 -30.5t33 -39.5l19 10q-14 24 -36 43t-55 33
t-79 21.5t-107 7.5q-69 0 -124 -10t-96 -31q-43 -23 -61.5 -55.5t-18.5 -64.5q0 -47 21.5 -76t48.5 -43q12 -7 26.5 -13t38 -12.5t60 -15.5t94.5 -22q55 -12 93 -21.5t64 -17t43.5 -14t31.5 -14.5q13 -7 26.5 -17.5t24 -25.5t17.5 -34.5t7 -44.5q0 -38 -20.5 -70.5
t-54.5 -55.5q-42 -27 -97.5 -44t-127.5 -17q-114 0 -188.5 29.5t-109.5 74.5l-17 -14q20 -24 48.5 -43.5t67 -34t87.5 -22.5t111 -8q74 0 134 17t103 46q42 28 64 65t22 79z" />
    <glyph glyph-name="T" unicode="T" horiz-adv-x="686" 
d="M646 690v19h-606v-19h292v-690h22v690h292z" />
    <glyph glyph-name="U" unicode="U" horiz-adv-x="833" 
d="M693 287v422h-22v-420q0 -77 -11.5 -131t-40.5 -88t-78.5 -50t-125.5 -16q-74 0 -122.5 16t-77.5 50t-41 88t-12 131v420h-22v-422q0 -87 16 -145t49.5 -92.5t85.5 -49t124 -14.5q74 0 126.5 14.5t86.5 49t49.5 92.5t15.5 145z" />
    <glyph glyph-name="V" unicode="V" horiz-adv-x="753" 
d="M718 709h-22l-160 -345q-40 -86 -78 -169t-78 -173h-2q-39 88 -77.5 172t-78.5 170l-160 345h-22l329 -709h20z" />
    <glyph glyph-name="W" unicode="W" horiz-adv-x="1210" 
d="M1175 709h-22l-134 -341q-33 -85 -65.5 -170t-66.5 -178h-2q-33 91 -66.5 177t-66.5 171l-134 341h-21l-134 -342l-66 -170t-67 -177h-2q-33 91 -66 176.5t-66 170.5l-134 342h-22l279 -709h20l134 342q34 86 67 171t66 173h2q34 -88 67 -173.5t67 -171.5l134 -341h20z
" />
    <glyph glyph-name="X" unicode="X" horiz-adv-x="806" 
d="M732 0l-317 369l292 340h-27l-276 -325h-2l-276 325h-27l292 -340l-317 -369h26l302 354h2l302 -354h26z" />
    <glyph glyph-name="Y" unicode="Y" horiz-adv-x="700" 
d="M665 709h-25l-144 -192l-72 -96t-73 -97h-2q-36 48 -72.5 95.5t-72.5 96.5l-144 193h-25l304 -404v-305h22v305z" />
    <glyph glyph-name="Z" unicode="Z" horiz-adv-x="695" 
d="M621 0v19h-510l492 671v19h-483v-19h459l-493 -671v-19h535z" />
    <glyph glyph-name="bracketleft" unicode="[" horiz-adv-x="479" 
d="M357 -156v17h-134v861h134v17h-154v-895h154z" />
    <glyph glyph-name="backslash" unicode="\" horiz-adv-x="724" 
d="M632 -12l-523 751h-21l522 -751h22z" />
    <glyph glyph-name="bracketright" unicode="]" horiz-adv-x="479" 
d="M276 -156v895h-154v-17h134v-861h-134v-17h154z" />
    <glyph glyph-name="asciicircum" unicode="^" horiz-adv-x="800" 
d="M621 317l-212 388h-16l-212 -388h18l201 370h2l201 -370h18z" />
    <glyph glyph-name="underscore" unicode="_" horiz-adv-x="800" 
d="M800 -282v30h-800v-30h800z" />
    <glyph glyph-name="grave" unicode="`" horiz-adv-x="500" 
d="M272 572l-139 113h-37l159 -113h17z" />
    <glyph glyph-name="a" unicode="a" horiz-adv-x="653" 
d="M570 0v2q-11 12 -17 21t-9.5 18.5t-4.5 22t-1 32.5v280q0 82 -49.5 125t-168.5 43q-54 0 -85.5 -5.5l-31.5 -5.5l2 -16q1 0 9 2.5t34 5t71 2.5q56 0 94 -9.5t61.5 -29t33.5 -49t10 -68.5v-26q-113 -9 -198 -23t-141.5 -37.5t-85 -59.5t-28.5 -90q0 -26 10.5 -52t36.5 -47
t70 -34.5t112 -13.5q21 0 50 4t60 14.5t61 28.5t53 45h1q0 -25 5.5 -43t22.5 -37h23zM518 102q-25 -32 -56.5 -51t-62 -29.5t-58 -13.5t-45.5 -3q-64 0 -105 12.5t-64.5 31.5t-32.5 42t-9 45q0 49 28 82t82.5 54.5t135.5 34t187 21.5v-226z" />
    <glyph glyph-name="b" unicode="b" horiz-adv-x="734" 
d="M664 266q0 59 -20 110t-57.5 88.5t-90.5 58.5t-119 21t-126 -22.5t-110 -73.5h-1v279h-20v-727h20l-1 83h3q13 -10 31.5 -26t46.5 -31.5t66 -26.5t89 -11q72 0 126.5 23.5t90.5 62.5t54 89t18 103zM644 266q0 -51 -17.5 -98.5t-51.5 -83.5t-84 -57.5t-115 -21.5
q-51 0 -90 12t-67.5 28.5t-47.5 34t-31 27.5v318q55 57 113 79.5t123 22.5q64 0 113.5 -20.5t84 -56t52.5 -83t18 -101.5z" />
    <glyph glyph-name="c" unicode="c" horiz-adv-x="673" 
d="M613 109l-18 9q-14 -23 -34 -43t-47 -36t-63.5 -25t-83.5 -9q-52 0 -101.5 15t-88.5 46.5t-63 81t-24 118.5q0 66 24 115t63 81.5t89 48.5t101 16q83 0 132 -26t81 -69l17 10q-35 46 -88.5 74t-141.5 28q-56 0 -109.5 -17t-95 -51.5t-67 -86.5t-25.5 -123
q0 -73 24.5 -125.5t66 -86.5t95 -50t111.5 -16q52 0 91.5 10.5t69 27.5t50 38.5t35.5 44.5z" />
    <glyph glyph-name="d" unicode="d" horiz-adv-x="734" 
d="M614 0v727h-20v-279h-1q-50 51 -110 73.5t-126 22.5t-119 -21t-90.5 -58.5t-57.5 -88.5t-20 -110q0 -53 18 -103t54 -89t90.5 -62.5t126.5 -23.5q53 0 92.5 12.5t67.5 28.5t46 32t27 22h3l-1 -83h20zM594 107q-15 -13 -35 -30.5t-48.5 -33.5t-65.5 -27t-86 -11h-1
q-65 0 -115 21.5t-84 57.5t-51.5 83.5t-17.5 98.5q0 54 18 101.5t52.5 83t84 56t113.5 20.5q65 0 123 -22.5t113 -79.5v-318z" />
    <glyph glyph-name="e" unicode="e" horiz-adv-x="682" 
d="M625 269q0 60 -20.5 108t-52.5 83q-39 42 -89 63t-106 21q-64 0 -114 -19t-88 -52q-41 -35 -63 -85.5t-22 -114.5q0 -72 21.5 -123t57.5 -86q42 -40 96.5 -58t111.5 -18q39 0 85 8t85.5 17t66 17l26.5 8l-1 15l-25 -7.5t-64 -16.5t-85.5 -16.5t-89.5 -7.5q-44 0 -91 13.5
t-85.5 44.5t-63.5 81.5t-25 124.5h535zM603 287h-513q0 49 19.5 92.5t54.5 76.5t84 52t109 19q54 0 98.5 -20t77 -53.5t50.5 -77t20 -89.5z" />
    <glyph glyph-name="f" unicode="f" horiz-adv-x="589" 
d="M630 720q-19 15 -38.5 25t-39.5 18q-30 11 -63.5 15.5t-71.5 4.5q-100 0 -160 -36q-77 -46 -77 -144v-71h-131v-18h131v-764h20v764h324v18h-324v70q0 48 19 80.5t51 51.5q30 18 67.5 25t79.5 7q74 0 129 -20q49 -18 73 -43z" />
    <glyph glyph-name="g" unicode="g" horiz-adv-x="730" 
d="M615 16v516h-20l1 -80h-3q-45 46 -99 69t-128 23q-87 0 -144 -28.5t-90.5 -71t-47.5 -91.5t-14 -91q0 -69 25 -120.5t66 -85.5t92 -51t104 -17q46 0 82.5 9t65 23t50.5 30.5t39 32.5h1v-67q0 -68 -14.5 -111.5t-43.5 -76.5q-18 -20 -40.5 -33.5t-46.5 -22t-49 -12.5
t-47 -4q-42 0 -77.5 7t-63.5 19q-38 17 -62.5 36t-39.5 36l-15 -13q25 -26 53 -45t55 -30q34 -14 71 -20.5t80 -6.5q61 0 112 20.5t84 56.5q35 38 49.5 86t14.5 114zM595 106q-18 -18 -40 -36t-50.5 -32.5t-64 -23.5t-80.5 -9q-54 0 -103 17t-86 50t-59 81.5t-22 111.5v1
q0 33 11.5 77.5t42.5 85.5t85 69.5t139 28.5q81 0 135 -27.5t92 -73.5v-320z" />
    <glyph glyph-name="h" unicode="h" horiz-adv-x="721" 
d="M613 0v375q0 42 -10.5 70t-31.5 50q-23 23 -58.5 36t-84.5 13q-33 0 -67.5 -6.5t-69.5 -20.5q-36 -14 -71 -34.5t-71 -47.5h-2v292h-20v-727h20v413q13 11 31 23.5t38 25t40.5 23t38.5 16.5q70 26 131 26q50 0 81 -12.5t50 -31.5q23 -23 29.5 -51.5t6.5 -57.5v-374h20z
" />
    <glyph glyph-name="i" unicode="i" horiz-adv-x="280" 
d="M157 647v80h-20v-80h20zM157 0v532h-20v-532h20z" />
    <glyph glyph-name="j" unicode="j" horiz-adv-x="280" 
d="M150 647v80h-20v-80h20zM150 -45v577h-20v-578q0 -54 -9 -84t-29 -53q-17 -19 -38 -31t-43.5 -18.5t-45 -9t-41.5 -2.5q-45 0 -71 7t-42 13q-26 10 -45.5 21t-39.5 27l-12 -16q23 -17 45.5 -29t46.5 -21q25 -9 52.5 -14t60.5 -5q65 0 111 17t75 49q23 25 34 58.5t11 91.5
z" />
    <glyph glyph-name="k" unicode="k" horiz-adv-x="633" 
d="M608 0l-340 315l276 217h-30l-187 -147q-46 -36 -92 -72.5t-93 -73.5h-2v146v342h-20v-727h20v216l112 86l328 -302h28z" />
    <glyph glyph-name="l" unicode="l" horiz-adv-x="280" 
d="M159 0v727h-20v-727h20z" />
    <glyph glyph-name="m" unicode="m" horiz-adv-x="1045" 
d="M930 0v400q0 31 -8.5 56.5t-26.5 44.5q-19 20 -48 31.5t-71 11.5q-26 0 -53 -5.5t-57 -17.5t-63 -33t-69 -50h-2q-1 13 -11.5 35.5t-30.5 37.5q-19 15 -46 24t-62 9q-24 0 -50.5 -5t-55.5 -17t-63 -32.5t-72 -51.5h-2l1 94h-20v-532h20v416q33 29 66 50.5t65 35.5
t60 19.5t51 5.5q62 0 98 -31q20 -17 27.5 -38.5t7.5 -49.5v-408h20v417q37 32 70.5 52.5t63.5 33.5t56.5 18.5t49.5 5.5q40 0 65.5 -10.5t40.5 -27.5q19 -21 24 -45.5t5 -48.5v-395h20z" />
    <glyph glyph-name="n" unicode="n" horiz-adv-x="721" 
d="M606 0v375q0 42 -10.5 70t-31.5 50q-23 23 -58.5 36t-84.5 13q-33 0 -67 -6.5t-70 -20.5q-71 -29 -142 -82h-3l1 97h-20v-532h20v413q13 11 31 23.5t38.5 25t41 23t37.5 16.5q72 26 131 26q50 0 81 -12.5t50 -31.5q23 -23 29.5 -51.5t6.5 -57.5v-374h20z" />
    <glyph glyph-name="o" unicode="o" horiz-adv-x="739" 
d="M669 265v1q0 66 -23 117.5t-63.5 87.5t-95 54.5t-117.5 18.5t-118 -18.5t-95.5 -54.5t-63.5 -87.5t-23 -117.5q0 -56 18.5 -106t55.5 -88.5t93.5 -61t132.5 -22.5q78 0 134.5 23.5t93 62.5t54 88.5t17.5 102.5zM649 265q0 -51 -17 -98t-51.5 -83.5t-87 -58t-122.5 -21.5
h-1q-71 0 -124 21.5t-87.5 58t-51.5 83.5t-17 98q0 61 21.5 109.5t59 82.5t89 51.5t110.5 17.5t110 -17.5t88.5 -51.5t59 -82.5t21.5 -109.5z" />
    <glyph glyph-name="p" unicode="p" horiz-adv-x="734" 
d="M664 268q0 60 -19.5 107.5t-52.5 82.5q-81 86 -215 86q-41 0 -74 -7t-62 -20q-34 -15 -58.5 -33t-41.5 -36h-2l1 84h-20v-780h20v331h2q23 -21 51.5 -40t53.5 -30q40 -17 73 -21t57 -4q72 0 126 24t87 60q40 43 57 94t17 102zM644 268q0 -60 -19 -105.5t-49 -77.5
q-40 -43 -91.5 -61.5t-107.5 -18.5q-38 0 -69.5 6.5t-55.5 17.5q-23 11 -51 28.5t-61 49.5v318q23 25 51 44.5t57 32.5q33 15 65 20t64 5q66 0 116 -21.5t84 -58.5q34 -36 50.5 -82.5t16.5 -96.5z" />
    <glyph glyph-name="q" unicode="q" horiz-adv-x="734" 
d="M614 -248v780h-20l1 -84h-2q-17 18 -41.5 36t-58.5 33q-29 13 -62 20t-74 7q-134 0 -215 -86q-33 -35 -52.5 -82.5t-19.5 -107.5q0 -51 17 -102t57 -94q33 -36 87 -60t126 -24q24 0 57 4t73 21q25 11 53.5 30t51.5 40h2v-331h20zM594 107q-33 -32 -61 -49.5t-51 -28.5
q-24 -11 -55.5 -17.5t-69.5 -6.5q-56 0 -107 19t-92 61q-31 32 -49.5 77.5t-18.5 105.5q0 50 16.5 96.5t50.5 82.5q35 37 84.5 58.5t115.5 21.5q32 0 64 -5t65 -20q29 -13 57 -32.5t51 -44.5v-318z" />
    <glyph glyph-name="r" unicode="r" horiz-adv-x="562" 
d="M515 493q-13 11 -24.5 19.5t-26.5 15.5q-20 9 -41.5 12.5t-44.5 3.5q-35 0 -66.5 -8t-60.5 -22t-55 -31t-55 -39h-2l1 88h-20v-532h20v422q27 23 57.5 43.5t61.5 34.5q34 16 63.5 21.5t55.5 5.5q46 0 78 -15q25 -12 46 -34z" />
    <glyph glyph-name="s" unicode="s" horiz-adv-x="652" 
d="M592 147q0 26 -11 50.5t-31 40.5q-14 11 -31 19.5t-41 15.5t-58.5 13.5t-82.5 14.5q-52 8 -86 14t-56.5 12t-36.5 12.5t-27 16.5q-19 14 -26 30.5t-7 33.5q0 27 14.5 45.5t39.5 31.5q34 17 80.5 23t94.5 6q90 0 145 -23t78 -56l15 13q-16 20 -35.5 33.5t-43.5 24.5
q-36 16 -76 21t-83 5q-117 0 -183 -30q-32 -14 -49 -38t-17 -56q0 -49 45 -82q14 -10 29.5 -17t38.5 -13t56 -12t82 -13q49 -8 83 -14t57.5 -12.5t39 -14.5t28.5 -19q19 -17 27 -38t8 -41q0 -29 -14.5 -52.5t-40.5 -40.5q-37 -24 -86.5 -34.5t-99.5 -10.5q-94 0 -160.5 24.5
t-96.5 57.5l-14 -14q21 -19 45.5 -34.5t58.5 -26.5q36 -11 78.5 -18t92.5 -7q65 0 113.5 13t81.5 36q32 23 47 47.5t15 62.5z" />
    <glyph glyph-name="t" unicode="t" horiz-adv-x="676" 
d="M648 44l-9 18q-14 -8 -34.5 -17.5t-46 -18.5t-55 -15t-60.5 -6q-38 0 -78.5 6.5t-73.5 25.5t-54 53t-21 90v334h371v18h-371v112h-20v-112h-166v-18h166v-334q0 -62 24 -100t60.5 -58.5t79.5 -27t81 -6.5q34 0 65 5.5t58 14t48 18.5t36 18z" />
    <glyph glyph-name="u" unicode="u" horiz-adv-x="721" 
d="M601 0v532h-20v-413q-39 -30 -78 -52t-69 -34q-35 -14 -68.5 -21t-63.5 -7q-52 0 -82.5 13.5t-47.5 29.5q-24 23 -30.5 51t-6.5 59v374h-20v-375q0 -42 10.5 -70t31.5 -50q23 -23 58.5 -36t84.5 -13q66 0 137 28q35 14 67.5 33.5t74.5 47.5h3l-1 -97h20z" />
    <glyph glyph-name="v" unicode="v" horiz-adv-x="668" 
d="M633 532h-21l-138 -258q-35 -65 -69.5 -129t-69.5 -130h-2q-34 63 -68.5 127t-69.5 130l-138 260h-22l289 -532h19z" />
    <glyph glyph-name="w" unicode="w" horiz-adv-x="1244" 
d="M1209 532h-21l-138 -256q-35 -64 -69.5 -128t-69.5 -130h-3q-35 65 -69.5 128.5t-69.5 128.5l-140 257h-17l-140 -259q-35 -65 -68.5 -127t-68.5 -128h-3q-35 66 -69.5 130t-69.5 129l-137 255h-21l288 -532h21l139 257q35 64 68.5 126.5t67.5 128.5h2q35 -66 69.5 -129
t69.5 -128l139 -255h22z" />
    <glyph glyph-name="x" unicode="x" horiz-adv-x="627" 
d="M565 0v1l-239 276l217 254v1h-23l-205 -240h-3l-205 240h-24v-1l219 -254l-240 -276v-1h24l226 263h2l227 -263h24z" />
    <glyph glyph-name="y" unicode="y" horiz-adv-x="661" 
d="M626 532h-21l-105 -245q-26 -63 -54 -127.5t-56 -129.5h-2q-39 63 -79.5 127t-80.5 128l-155 247h-23l330 -524l-52 -118q-23 -53 -58 -87q-26 -25 -58.5 -36t-71.5 -11q-20 0 -38 2.5t-33 7.5q-17 5 -30 12t-21 12l-10 -17q11 -7 24 -13t31 -11q15 -5 33.5 -7.5
t43.5 -2.5q50 0 84 14.5t58 36.5q25 22 39.5 47.5t24.5 47.5z" />
    <glyph glyph-name="z" unicode="z" horiz-adv-x="604" 
d="M568 0v18h-481l465 494v20h-468v-18h445l-466 -494v-20h505z" />
    <glyph glyph-name="braceleft" unicode="{" horiz-adv-x="464" 
d="M367 -156v16q-32 2 -57 9.5t-43 24.5q-15 14 -23.5 38.5t-8.5 65.5v157q0 39 -8.5 63.5t-23.5 41.5q-13 14 -31 21.5t-41 9.5v1q23 2 41 9.5t31 21.5q15 17 23.5 41.5t8.5 63.5v157q0 41 9 65t23 39t41 23.5t59 10.5v16q-38 -2 -66.5 -11t-48.5 -29q-18 -18 -27.5 -46
t-9.5 -70v-144q0 -45 -7.5 -67.5t-21.5 -38.5q-14 -15 -32.5 -22.5t-47.5 -10.5v-17q29 -3 47.5 -10.5t32.5 -22.5q14 -16 21.5 -38.5t7.5 -67.5v-144q0 -42 9.5 -70t27.5 -46q20 -20 48.5 -29t66.5 -11z" />
    <glyph glyph-name="bar" unicode="|" horiz-adv-x="593" 
d="M306 -250v1000h-18v-1000h18z" />
    <glyph glyph-name="braceright" unicode="}" horiz-adv-x="464" 
d="M358 283v17q-29 3 -47.5 10.5t-32.5 22.5q-14 16 -21.5 38.5t-7.5 67.5v144q0 42 -9.5 70t-27.5 46q-20 20 -48.5 29t-66.5 11v-16q32 -2 59 -10.5t41 -23.5t23 -39t9 -65v-157q0 -39 8.5 -63.5t23.5 -41.5q13 -14 31 -21.5t41 -9.5v-1q-23 -2 -41 -9.5t-31 -21.5
q-15 -17 -23.5 -41.5t-8.5 -63.5v-157q0 -41 -8.5 -65.5t-23.5 -38.5q-18 -17 -43 -24.5t-57 -9.5v-16q38 2 66.5 11t48.5 29q18 18 27.5 46t9.5 70v144q0 45 7.5 67.5t21.5 38.5q14 15 32.5 22.5t47.5 10.5z" />
    <glyph glyph-name="asciitilde" unicode="~" horiz-adv-x="800" 
d="M672 276l-18 9q-14 -14 -39 -26.5t-71 -12.5q-23 0 -49 3t-59 12l-64 17q-20 5 -50 10.5t-68 5.5q-54 0 -83.5 -16.5t-42.5 -31.5l18 -9q14 14 39 26.5t71 12.5q23 0 49 -3t59 -12l64 -17q20 -5 50 -10.5t68 -5.5q54 0 83.5 16.5t42.5 31.5z" />
    <glyph glyph-name="exclamdown" unicode="&#xa1;" horiz-adv-x="320" 
d="M170 407v80h-20v-80h20zM170 -222l-3 553h-14l-3 -553h20z" />
    <glyph glyph-name="cent" unicode="&#xa2;" 
d="M676 181l-16 11q-36 -50 -94 -78t-140 -28v523q37 0 71 -8t63 -20.5t51 -29t36 -34.5l16 11q-39 45 -98 70.5t-139 27.5v66h-18v-67q-65 -4 -117 -25.5t-88 -58t-55.5 -86t-19.5 -107.5q0 -62 20 -112.5t56.5 -86.5t88.5 -56.5t115 -23.5v-69h18v69q91 0 150.5 30
t99.5 82zM408 87q-57 4 -105 23t-82.5 52t-53.5 79.5t-19 106.5q0 55 18 101t51.5 79.5t82 54t108.5 25.5v-521z" />
    <glyph glyph-name="sterling" unicode="&#xa3;" 
d="M745 42l-13 12q-30 -24 -68.5 -33.5t-102.5 -9.5q-41 0 -72 3.5t-61 7.5t-62 7.5t-73 3.5q-26 0 -42.5 -1.5t-35.5 -6.5l-1 2q47 30 70.5 70.5t23.5 97.5q0 45 -9.5 81t-22.5 69h272v17h-279q-15 39 -28 75t-13 79q0 78 51 123.5t163 45.5q133 0 187 -79l15 9
q-32 48 -83.5 67.5t-120.5 19.5q-60 0 -103 -14t-71.5 -38.5t-42 -58t-13.5 -72.5q0 -45 12 -82.5t26 -74.5h-121v-17h128q14 -34 24.5 -69.5t10.5 -80.5q0 -63 -33 -106.5t-89 -72.5l8 -15q24 9 50 12t67 3q36 0 69.5 -3.5t66 -7.5t65 -7.5t67.5 -3.5q79 0 121.5 14.5
t62.5 33.5z" />
    <glyph glyph-name="yen" unicode="&#xa5;" horiz-adv-x="846" 
d="M724 692h-25l-138 -184l-68 -92t-69 -95h-2q-34 48 -68.5 94t-69.5 93l-137 184h-25l291 -387v-20h-277v-17h277v-101h-277v-17h277v-150h20v150h275v17h-275v101h275v17h-275v20z" />
    <glyph glyph-name="brokenbar" unicode="&#xa6;" horiz-adv-x="593" 
d="M306 325v350h-18v-350h18zM306 -175v350h-18v-350h18z" />
    <glyph glyph-name="section" unicode="&#xa7;" horiz-adv-x="778" 
d="M681 267q0 43 -17.5 71t-50.5 47.5t-79.5 32.5t-103.5 26q-29 6 -56 12.5t-51 13t-43 12.5t-30 11q-33 15 -49 37t-16 55q0 38 23 62t57 37t74 17.5t75 4.5q31 0 63 -4t60 -14t50 -27t33 -43l18 9q-13 27 -36.5 45.5t-53.5 30t-64.5 16t-70.5 4.5q-51 0 -96 -7t-82 -25
q-28 -14 -49 -40.5t-21 -64.5q0 -29 13 -56.5t45 -44.5q-12 -4 -29 -12.5t-33.5 -22.5t-28 -34.5t-11.5 -48.5q0 -36 17 -60t49 -41t77.5 -29t101.5 -24q28 -6 58 -12.5t57.5 -15t50.5 -18t38 -21.5q23 -18 35 -37.5t12 -51.5q0 -36 -18.5 -65.5t-48.5 -49.5
q-35 -23 -77.5 -34t-92.5 -11q-48 0 -85.5 7.5t-66 19.5t-49 27.5t-33.5 32.5l-16 -12q10 -12 28.5 -28t48.5 -30t73 -24t100 -10q53 0 100 12t88 41q30 22 49.5 52.5t19.5 68.5q0 36 -12 56.5t-25 34.5q36 23 58.5 55.5t22.5 66.5zM661 269q0 -35 -20.5 -66t-51.5 -48
q-29 24 -73 38.5t-94 25l-100 21t-90 25.5t-65.5 38t-25.5 60v1q0 44 26 71t74 41q53 -20 104.5 -32t98 -23t86.5 -21.5t69 -27.5t45.5 -41t16.5 -62z" />
    <glyph glyph-name="dieresis" unicode="&#xa8;" horiz-adv-x="500" 
d="M373 612v77h-18v-77h18zM145 612v77h-18v-77h18z" />
    <glyph glyph-name="copyright" unicode="&#xa9;" horiz-adv-x="1008" 
d="M871 355q0 76 -29 143t-79 117t-116.5 79t-142.5 29h-1q-76 0 -143 -29t-117 -79t-79 -117t-29 -143q0 -77 29 -144t79 -117t117 -79t143 -29t143 29t117 79t79 117t29 144zM854 355q0 -73 -27.5 -137t-75 -112t-111.5 -75.5t-136 -27.5t-136 27.5t-111.5 75.5t-75 112
t-27.5 137q0 72 27.5 136t75 112t111 75.5t135.5 27.5h1q72 0 136 -27.5t111.5 -75.5t75 -112t27.5 -136zM669 183l-12 13q-9 -10 -25.5 -21.5t-34.5 -18.5q-16 -6 -35 -10.5t-45 -4.5q-36 0 -73 12t-69 46t-44 74t-12 84q0 58 16 94.5t39 59.5q32 32 68 46t75 14
q25 0 39 -2.5t34 -9.5q14 -5 30 -14.5t28 -20.5l12 13q-15 14 -29 22t-32 15q-20 8 -39.5 11t-40.5 3q-48 0 -87 -17t-70 -46t-47 -72t-16 -96q0 -54 16.5 -97t46.5 -73t69.5 -46.5t87.5 -16.5q23 0 46.5 5t37.5 11q19 8 35.5 18.5t30.5 24.5z" />
    <glyph glyph-name="ordfeminine" unicode="&#xaa;" horiz-adv-x="455" 
d="M386 384v2q-11 8 -16.5 17t-5.5 23v142q0 27 -1 51.5t-13 43.5t-39 30.5t-79 11.5q-50 0 -77 -5.5t-34 -10.5t-8 -6v-18q1 1 11.5 6.5t38.5 11.5t72 6q42 0 64.5 -10t33 -24t12 -29t1.5 -26v-12q-74 -6 -125 -15t-83 -24t-46 -36.5t-14 -50.5q0 -27 13.5 -43.5
t33.5 -25.5t43 -12.5t43 -3.5q31 0 68 11t66 37h2q0 -11 3.5 -21t14.5 -20h21zM346 446q-58 -53 -142 -53q-15 0 -34 2.5t-35.5 10.5t-27.5 21.5t-11 36.5t13.5 41t43.5 31.5t77.5 22t115.5 13.5v-126z" />
    <glyph glyph-name="guillemotleft" unicode="&#xab;" horiz-adv-x="546" 
d="M441 61v22l-165 165v2l165 165v22l-194 -187v-2zM277 61v22l-165 165v2l165 165v22l-194 -187v-2z" />
    <glyph glyph-name="logicalnot" unicode="&#xac;" horiz-adv-x="800" 
d="M656 159v166h-512v-16h494v-150h18z" />
    <glyph glyph-name="registered" unicode="&#xae;" horiz-adv-x="1008" 
d="M872 355q0 76 -29 143t-79 117t-116.5 79t-142.5 29h-1q-76 0 -143 -29t-117 -79t-79 -117t-29 -143q0 -77 29 -144t79 -117t117 -79t143 -29t143 29t117 79t79 117t29 144zM855 355q0 -73 -27.5 -137t-75 -112t-111.5 -75.5t-136 -27.5t-136 27.5t-111.5 75.5t-75 112
t-27.5 137q0 72 27.5 136t75 112t111 75.5t135.5 27.5h1q72 0 136 -27.5t111.5 -75.5t75 -112t27.5 -136zM715 126l-182 212q15 1 37 6.5t43 20t36 39t15 62.5q0 25 -8.5 47.5t-31.5 39.5q-22 17 -59.5 27.5t-94.5 10.5h-94v-465h20v211h113l181 -211h25zM644 462
q0 -48 -35 -78t-103 -30h-110v220h74q37 0 69 -5t55 -17.5t36.5 -34.5t13.5 -55z" />
    <glyph glyph-name="macron" unicode="&#xaf;" horiz-adv-x="500" 
d="M380 640v18h-260v-18h260z" />
    <glyph glyph-name="degree" unicode="&#xb0;" horiz-adv-x="506" 
d="M376 582q0 25 -9.5 47.5t-26 39.5t-39 26.5t-47.5 9.5h-1q-26 0 -48 -9.5t-39 -26.5t-26.5 -39.5t-9.5 -47.5q0 -26 9.5 -48t26.5 -39t39 -26.5t48 -9.5q25 0 47.5 9.5t39.5 26.5t26.5 39t9.5 48zM357 582q0 -21 -8 -40t-22 -33t-33 -22t-40 -8t-40 8t-33 22t-22 33
t-8 40t8 40t22 33t32.5 22t39.5 8h1q21 0 40 -8t33 -22t22 -33t8 -40z" />
    <glyph glyph-name="plusminus" unicode="&#xb1;" horiz-adv-x="800" 
d="M656 245v16h-247v185h-18v-185h-247v-16h247v-181h18v181h247zM656 0v16h-512v-16h512z" />
    <glyph glyph-name="twosuperior" unicode="&#xb2;" horiz-adv-x="543" 
d="M449 283v18h-344q20 44 53 73t70.5 50t76.5 37t70 34.5t50.5 41.5t19.5 58q0 54 -47 82t-125 28q-80 0 -120 -27.5t-50 -64.5l19 -3q4 12 12.5 25.5t25.5 25.5t43.5 19.5t65.5 7.5q79 0 118.5 -25t39.5 -67q0 -33 -20.5 -55t-53 -39.5t-72 -34t-77.5 -39.5t-70 -55
t-48 -81l11 -9h352z" />
    <glyph glyph-name="threesuperior" unicode="&#xb3;" horiz-adv-x="543" 
d="M443 390q0 35 -16.5 57.5t-40.5 35t-51 17t-48 4.5v2q65 5 99 28.5t34 74.5q0 12 -4.5 28.5t-20.5 31.5t-45.5 25.5t-80.5 10.5q-69 0 -110.5 -21t-52.5 -69l18 -4q13 42 47 59.5t99 17.5q45 0 71 -9.5t39.5 -23t17.5 -27.5t4 -24q0 -41 -43 -66.5t-125 -25.5v-15
q85 0 138 -24.5t53 -77.5q0 -46 -36 -75t-113 -29q-74 0 -112.5 22t-58.5 66l-18 -5q22 -52 66 -76t116 -24q90 0 132 32.5t42 83.5z" />
    <glyph glyph-name="acute" unicode="&#xb4;" horiz-adv-x="500" 
d="M404 685h-37l-139 -113h17z" />
    <glyph glyph-name="mu" unicode="&#xb5;" horiz-adv-x="721" 
d="M601 0v532h-20v-413q-39 -30 -78 -52t-69 -34q-35 -14 -68.5 -21t-63.5 -7q-52 0 -83 13.5t-48 30.5q-23 23 -29.5 50.5t-6.5 58.5v374h-20v-780h20v314h2q8 -17 20 -29q23 -23 58.5 -36t84.5 -13q66 0 137 28q35 14 67.5 33.5t74.5 47.5h3l-1 -97h20z" />
    <glyph glyph-name="paragraph" unicode="&#xb6;" horiz-adv-x="654" 
d="M491 -232v941h-211q-54 0 -95 -14t-70 -40t-44.5 -61.5t-15.5 -79.5q0 -56 21 -93t54 -60q34 -23 77.5 -32.5t91.5 -9.5v-551h18v924h156v-924h18z" />
    <glyph glyph-name="periodcentered" unicode="&#xb7;" horiz-adv-x="260" 
d="M148 253q0 8 -5 13t-12 5h-1q-8 0 -13 -5t-5 -13t5 -13t13 -5t13 5t5 13z" />
    <glyph glyph-name="periodcentered" unicode="&#x2219;" horiz-adv-x="260" 
d="M148 253q0 8 -5 13t-12 5h-1q-8 0 -13 -5t-5 -13t5 -13t13 -5t13 5t5 13z" />
    <glyph glyph-name="cedilla" unicode="&#xb8;" horiz-adv-x="500" 
d="M348 -112q0 20 -11.5 32t-28 18t-36.5 7t-36 -2l45 57h-21l-54 -69l13 -7q11 3 30 4.5t37 -1.5t31 -12t13 -27q0 -12 -8.5 -21t-21 -14.5t-28.5 -8t-31 -2.5q-26 0 -46.5 4.5t-35.5 12.5l-10 -14q12 -6 36 -13t56 -7q48 0 77.5 16.5t29.5 46.5z" />
    <glyph glyph-name="onesuperior" unicode="&#xb9;" horiz-adv-x="543" 
d="M302 283v418h-9l-119 -53l6 -15l104 48v-398h18z" />
    <glyph glyph-name="ordmasculine" unicode="&#xba;" horiz-adv-x="464" 
d="M413 541q0 37 -13 67.5t-37 52t-57 33t-73 11.5q-39 0 -72 -11.5t-57 -33t-37 -51.5t-13 -67v-1q0 -38 13 -68t37 -51.5t57 -33t72 -11.5q40 0 73 11.5t57 33t37 51.5t13 68zM395 542q0 -33 -11.5 -60.5t-32.5 -47t-51 -30t-67 -10.5q-74 0 -117.5 41t-43.5 107t43.5 107
t116.5 41h1q37 0 67 -11t51 -30.5t32.5 -46.5t11.5 -60z" />
    <glyph glyph-name="guillemotright" unicode="&#xbb;" horiz-adv-x="546" 
d="M463 248v2l-194 187v-22l165 -165v-2l-165 -165v-22zM299 248v2l-194 187v-22l165 -165v-2l-165 -165v-22z" />
    <glyph glyph-name="onequarter" unicode="&#xbc;" horiz-adv-x="1161" 
d="M1020 117v16h-94v284h-18l-273 -289v-11h273v-117h18v117h94zM831 705h-22l-609 -717h23zM302 283v418h-9l-119 -53l6 -15l104 48v-398h18zM909 393q-1 -34 -1 -68v-68v-124h-246l118 125q32 34 63.5 67.5t63.5 67.5h2z" />
    <glyph glyph-name="onehalf" unicode="&#xbd;" horiz-adv-x="1161" 
d="M1031 0v18h-344q20 44 53 73t70.5 50t76.5 37t70 34.5t50.5 41.5t19.5 58q0 54 -47 82t-125 28q-80 0 -120 -27.5t-50 -64.5l19 -3q4 12 12.5 25.5t25.5 25.5t43.5 19.5t65.5 7.5q79 0 118.5 -25t39.5 -67q0 -33 -20.5 -55t-53 -39.5t-72 -34t-77.5 -39.5t-69.5 -55
t-48.5 -81l11 -9h352zM808 705h-22l-609 -717h23zM283 283v418h-9l-109 -32l5 -16l95 28v-398h18z" />
    <glyph glyph-name="threequarters" unicode="&#xbe;" horiz-adv-x="1246" 
d="M1105 117v16h-94v284h-18l-273 -289v-11h273v-117h18v117h94zM932 705h-22l-609 -717h23zM443 390q0 35 -16.5 57.5t-40.5 35t-51 17t-48 4.5v2q65 5 99 28.5t34 74.5q0 12 -4.5 28.5t-20.5 31.5t-45.5 25.5t-80.5 10.5q-69 0 -110.5 -21t-52.5 -69l18 -4q13 42 47 59.5
t99 17.5q45 0 71 -9.5t39.5 -23t17.5 -27.5t4 -24q0 -41 -43 -66.5t-125 -25.5v-15q85 0 138 -24.5t53 -77.5q0 -46 -36 -75t-113 -29q-74 0 -112.5 22t-58.5 66l-18 -5q22 -52 66 -76t116 -24q90 0 132 32.5t42 83.5zM994 393q-1 -34 -1 -68v-68v-124h-246l118 125
q32 34 63.5 67.5t63.5 67.5h2z" />
    <glyph glyph-name="questiondown" unicode="&#xbf;" horiz-adv-x="587" 
d="M330 407v80h-20v-80h20zM575 -96l-18 7q-27 -55 -92.5 -88.5t-176.5 -33.5q-49 0 -94 7t-80 23.5t-56 44t-21 69.5q0 28 7 50t22 40.5t39.5 35t59.5 33.5q52 25 85 48t51.5 50t24.5 61t4 80h-15q1 -39 -4 -69.5t-21.5 -56t-47 -48t-79.5 -46.5q-41 -20 -69 -38.5t-45 -39
t-24.5 -44.5t-7.5 -54q0 -46 21 -77.5t57.5 -50.5t85 -27t103.5 -8q67 0 116 10t83.5 28t56.5 42t35 52z" />
    <glyph glyph-name="Agrave" unicode="&#xc0;" horiz-adv-x="691" 
d="M416 737l-147 90h-54l177 -90h24zM666 0l-314 709h-14l-313 -709h23l110 247h373l111 -247h24zM523 266h-356l90 209q22 50 43 100t43 104h3q23 -56 45 -106.5t44 -101.5z" />
    <glyph glyph-name="Aacute" unicode="&#xc1;" horiz-adv-x="691" 
d="M481 827h-54l-147 -90h24zM666 0l-314 709h-14l-313 -709h23l110 247h373l111 -247h24zM523 266h-356l90 209q22 50 43 100t43 104h3q23 -56 45 -106.5t44 -101.5z" />
    <glyph glyph-name="Acircumflex" unicode="&#xc2;" horiz-adv-x="691" 
d="M496 759l-149 67h-2l-149 -67h18l131 44h2l131 -44h18zM666 0l-314 709h-14l-313 -709h23l110 247h373l111 -247h24zM523 266h-356l90 209q22 50 43 100t43 104h3q23 -56 45 -106.5t44 -101.5z" />
    <glyph glyph-name="Atilde" unicode="&#xc3;" horiz-adv-x="691" 
d="M497 807l-12 12q-14 -16 -31.5 -21.5t-39.5 -5.5q-17 0 -32.5 3t-23.5 5l-22 7q-17 5 -33 7t-28 2q-26 0 -46.5 -7.5t-34.5 -24.5l12 -12q14 17 30.5 21.5t38.5 4.5q17 0 32.5 -3t23.5 -5l22 -7q18 -6 33.5 -7.5t27.5 -1.5q26 0 47.5 8t35.5 25zM666 0l-314 709h-14
l-313 -709h23l110 247h373l111 -247h24zM523 266h-356l90 209q22 50 43 100t43 104h3q23 -56 45 -106.5t44 -101.5z" />
    <glyph glyph-name="Adieresis" unicode="&#xc4;" horiz-adv-x="691" 
d="M471 747v72h-18v-72h18zM239 747v72h-18v-72h18zM666 0l-314 709h-14l-313 -709h23l110 247h373l111 -247h24zM523 266h-356l90 209q22 50 43 100t43 104h3q23 -56 45 -106.5t44 -101.5z" />
    <glyph glyph-name="Aring" unicode="&#xc5;" horiz-adv-x="691" 
d="M423 776q0 30 -24 46t-53 16t-53 -16t-24 -46t24 -46t52 -16h1q29 0 53 16t24 46zM666 0l-314 709h-14l-313 -709h23l110 247h373l111 -247h24zM403 776q0 -17 -14 -31t-43 -14h-1q-30 0 -44 14t-14 31q0 21 17 33t41 12t41 -12t17 -33zM523 266h-356l90 209
q22 50 43 100t43 104h3q23 -56 45 -106.5t44 -101.5z" />
    <glyph glyph-name="AE" unicode="&#xc6;" horiz-adv-x="1120" 
d="M1030 0v19h-457v342h360v19h-360v310h443v19h-474l-552 -709h24l193 247h344v-247h479zM551 266h-330l166 214q41 53 81 105t81 108h2v-215v-212z" />
    <glyph glyph-name="Ccedilla" unicode="&#xc7;" horiz-adv-x="844" 
d="M771 151l-17 12q-16 -22 -41.5 -49.5t-61.5 -52t-82.5 -41t-103.5 -16.5q-69 0 -134.5 21t-116 64.5t-81.5 109.5t-31 155q0 94 32.5 161t85 109t118.5 61.5t132 19.5q49 0 89 -11.5t72 -31t56.5 -45t42.5 -53.5l18 11q-19 30 -46 57t-61.5 47t-77 32t-93.5 12
q-86 0 -157 -26t-123 -74t-81 -115.5t-29 -152.5t30 -154t85 -120q42 -39 108.5 -66t151.5 -29l-49 -68l13 -7q24 4 46 4t39 -5t27.5 -15t10.5 -26q0 -19 -23.5 -35t-78.5 -16q-29 0 -51.5 5t-37.5 12l-10 -14q15 -8 41.5 -14t62.5 -6q62 0 89.5 21t27.5 47q0 20 -11.5 33.5
t-29.5 21t-40 9t-43 -2.5l40 56q55 2 101 18t82.5 40t63.5 52.5t46 54.5z" />
    <glyph glyph-name="Egrave" unicode="&#xc8;" horiz-adv-x="719" 
d="M390 737l-147 90h-54l177 -90h24zM629 0v19h-457v342h360v19h-360v310h443v19h-465v-709h479z" />
    <glyph glyph-name="Eacute" unicode="&#xc9;" horiz-adv-x="719" 
d="M535 827h-54l-147 -90h24zM629 0v19h-457v342h360v19h-360v310h443v19h-465v-709h479z" />
    <glyph glyph-name="Ecircumflex" unicode="&#xca;" horiz-adv-x="719" 
d="M510 759l-149 67h-2l-149 -67h18l131 44h2l131 -44h18zM629 0v19h-457v342h360v19h-360v310h443v19h-465v-709h479z" />
    <glyph glyph-name="Edieresis" unicode="&#xcb;" horiz-adv-x="719" 
d="M505 767v72h-18v-72h18zM273 767v72h-18v-72h18zM629 0v19h-457v342h360v19h-360v310h443v19h-465v-709h479z" />
    <glyph glyph-name="Igrave" unicode="&#xcc;" horiz-adv-x="342" 
d="M241 737l-147 90h-54l177 -90h24zM182 0v709h-22v-709h22z" />
    <glyph glyph-name="Iacute" unicode="&#xcd;" horiz-adv-x="342" 
d="M306 827h-54l-147 -90h24zM182 0v709h-22v-709h22z" />
    <glyph glyph-name="Icircumflex" unicode="&#xce;" horiz-adv-x="342" 
d="M321 759l-149 67h-2l-149 -67h18l131 44h2l131 -44h18zM182 0v709h-22v-709h22z" />
    <glyph glyph-name="Idieresis" unicode="&#xcf;" horiz-adv-x="342" 
d="M296 747v72h-18v-72h18zM64 747v72h-18v-72h18zM182 0v709h-22v-709h22z" />
    <glyph glyph-name="Eth" unicode="&#xd0;" horiz-adv-x="881" 
d="M781 354q0 81 -24.5 146.5t-74.5 112t-126.5 71.5t-179.5 25h-226v-330h-90v-19h90v-360h226q103 0 179.5 25t126.5 71.5t74.5 112t24.5 145.5zM759 354q0 -75 -22.5 -136.5t-69 -105.5t-118.5 -68.5t-171 -24.5h-206v341h253v19h-253v311h206q99 0 171 -24.5
t118.5 -68.5t69 -106t22.5 -137z" />
    <glyph glyph-name="Ntilde" unicode="&#xd1;" horiz-adv-x="904" 
d="M603 807l-12 12q-14 -16 -31.5 -21.5t-39.5 -5.5q-17 0 -32.5 3t-23.5 5l-22 7q-17 5 -33 7t-28 2q-26 0 -46.5 -7.5t-34.5 -24.5l12 -12q14 17 30.5 21.5t38.5 4.5q17 0 32.5 -3t23.5 -5l22 -7q18 -6 33.5 -7.5t27.5 -1.5q26 0 47.5 8t35.5 25zM754 0v709h-22v-427
t2 -258h-3q-70 88 -208 258t-346 427h-27v-709h22q0 255 -0.5 425.5t-1.5 259.5h3q70 -89 208.5 -259.5t345.5 -425.5h27z" />
    <glyph glyph-name="Ograve" unicode="&#xd2;" horiz-adv-x="940" 
d="M499 738l-147 90h-54l177 -90h24zM860 354q0 93 -32.5 162.5t-86.5 115.5t-124.5 68.5t-146.5 22.5t-146.5 -22.5t-124.5 -68.5t-86.5 -115t-32.5 -162v-1q0 -93 32.5 -162t86.5 -115t124.5 -68.5t146.5 -22.5t146.5 22.5t124.5 68.5t86.5 115t32.5 162zM838 355
q0 -89 -30.5 -155t-81.5 -109.5t-117.5 -64.5t-138.5 -21t-138.5 21t-117.5 64.5t-81.5 109.5t-30.5 155q0 90 30.5 156t81.5 109.5t117.5 64.5t137.5 21h1q72 0 138.5 -21t117.5 -64.5t81.5 -109.5t30.5 -156z" />
    <glyph glyph-name="Oacute" unicode="&#xd3;" horiz-adv-x="940" 
d="M644 828h-54l-147 -90h24zM860 354q0 93 -32.5 162.5t-86.5 115.5t-124.5 68.5t-146.5 22.5t-146.5 -22.5t-124.5 -68.5t-86.5 -115t-32.5 -162v-1q0 -93 32.5 -162t86.5 -115t124.5 -68.5t146.5 -22.5t146.5 22.5t124.5 68.5t86.5 115t32.5 162zM838 355
q0 -89 -30.5 -155t-81.5 -109.5t-117.5 -64.5t-138.5 -21t-138.5 21t-117.5 64.5t-81.5 109.5t-30.5 155q0 90 30.5 156t81.5 109.5t117.5 64.5t137.5 21h1q72 0 138.5 -21t117.5 -64.5t81.5 -109.5t30.5 -156z" />
    <glyph glyph-name="Ocircumflex" unicode="&#xd4;" horiz-adv-x="940" 
d="M619 760l-149 67h-2l-149 -67h18l131 44h2l131 -44h18zM860 354q0 93 -32.5 162.5t-86.5 115.5t-124.5 68.5t-146.5 22.5t-146.5 -22.5t-124.5 -68.5t-86.5 -115t-32.5 -162v-1q0 -93 32.5 -162t86.5 -115t124.5 -68.5t146.5 -22.5t146.5 22.5t124.5 68.5t86.5 115
t32.5 162zM838 355q0 -89 -30.5 -155t-81.5 -109.5t-117.5 -64.5t-138.5 -21t-138.5 21t-117.5 64.5t-81.5 109.5t-30.5 155q0 90 30.5 156t81.5 109.5t117.5 64.5t137.5 21h1q72 0 138.5 -21t117.5 -64.5t81.5 -109.5t30.5 -156z" />
    <glyph glyph-name="Otilde" unicode="&#xd5;" horiz-adv-x="940" 
d="M620 808l-12 12q-14 -16 -31.5 -21.5t-39.5 -5.5q-17 0 -32.5 3t-23.5 5l-22 7q-17 5 -33 7t-28 2q-26 0 -46.5 -7.5t-34.5 -24.5l12 -12q14 17 30.5 21.5t38.5 4.5q17 0 32.5 -3t23.5 -5l22 -7q18 -6 33.5 -7.5t27.5 -1.5q26 0 47.5 8t35.5 25zM860 354
q0 93 -32.5 162.5t-86.5 115.5t-124.5 68.5t-146.5 22.5t-146.5 -22.5t-124.5 -68.5t-86.5 -115t-32.5 -162v-1q0 -93 32.5 -162t86.5 -115t124.5 -68.5t146.5 -22.5t146.5 22.5t124.5 68.5t86.5 115t32.5 162zM838 355q0 -89 -30.5 -155t-81.5 -109.5t-117.5 -64.5
t-138.5 -21t-138.5 21t-117.5 64.5t-81.5 109.5t-30.5 155q0 90 30.5 156t81.5 109.5t117.5 64.5t137.5 21h1q72 0 138.5 -21t117.5 -64.5t81.5 -109.5t30.5 -156z" />
    <glyph glyph-name="Odieresis" unicode="&#xd6;" horiz-adv-x="940" 
d="M594 748v72h-18v-72h18zM362 748v72h-18v-72h18zM860 354q0 93 -32.5 162.5t-86.5 115.5t-124.5 68.5t-146.5 22.5t-146.5 -22.5t-124.5 -68.5t-86.5 -115t-32.5 -162v-1q0 -93 32.5 -162t86.5 -115t124.5 -68.5t146.5 -22.5t146.5 22.5t124.5 68.5t86.5 115t32.5 162z
M838 355q0 -89 -30.5 -155t-81.5 -109.5t-117.5 -64.5t-138.5 -21t-138.5 21t-117.5 64.5t-81.5 109.5t-30.5 155q0 90 30.5 156t81.5 109.5t117.5 64.5t137.5 21h1q72 0 138.5 -21t117.5 -64.5t81.5 -109.5t30.5 -156z" />
    <glyph glyph-name="multiply" unicode="&#xd7;" horiz-adv-x="800" 
d="M632 32l-221 221l221 221l-11 11l-221 -221l-221 221l-11 -11l221 -221l-221 -221l11 -11l221 221l221 -221z" />
    <glyph glyph-name="Oslash" unicode="&#xd8;" horiz-adv-x="940" 
d="M872 708l-14 15l-106 -101q-54 50 -125.5 75.5t-156.5 25.5q-76 0 -146.5 -22.5t-124.5 -68.5t-86.5 -115.5t-32.5 -162.5q0 -47 8.5 -85.5t22 -70t31 -56.5t35.5 -44l-109 -97l14 -15l106 101q54 -50 125.5 -75.5t155.5 -25.5q76 0 147 22.5t125 68.5t86.5 115t32.5 162
q0 47 -8.5 86t-22 70.5t-31 56.5t-35.5 44zM739 612l-551 -506q-41 48 -63.5 111t-22.5 137q0 90 30.5 156t81.5 109.5t117.5 64.5t138.5 21q51 0 94 -9t74 -22q32 -14 57.5 -29.5t43.5 -32.5zM838 354q0 -89 -30.5 -155t-81.5 -109.5t-117.5 -64.5t-138.5 -21q-51 0 -94 9
t-74 22q-34 14 -58.5 29.5t-42.5 32.5l551 506q41 -48 63.5 -111.5t22.5 -137.5z" />
    <glyph glyph-name="Ugrave" unicode="&#xd9;" horiz-adv-x="833" 
d="M447 737l-147 90h-54l177 -90h24zM693 287v422h-22v-420q0 -77 -11.5 -131t-40.5 -88t-78.5 -50t-125.5 -16q-74 0 -122.5 16t-77.5 50t-41 88t-12 131v420h-22v-422q0 -87 16 -145t49.5 -92.5t85.5 -49t124 -14.5q74 0 126.5 14.5t86.5 49t49.5 92.5t15.5 145z" />
    <glyph glyph-name="Uacute" unicode="&#xda;" horiz-adv-x="833" 
d="M592 827h-54l-147 -90h24zM693 287v422h-22v-420q0 -77 -11.5 -131t-40.5 -88t-78.5 -50t-125.5 -16q-74 0 -122.5 16t-77.5 50t-41 88t-12 131v420h-22v-422q0 -87 16 -145t49.5 -92.5t85.5 -49t124 -14.5q74 0 126.5 14.5t86.5 49t49.5 92.5t15.5 145z" />
    <glyph glyph-name="Ucircumflex" unicode="&#xdb;" horiz-adv-x="833" 
d="M567 759l-149 67h-2l-149 -67h18l131 44h2l131 -44h18zM693 287v422h-22v-420q0 -77 -11.5 -131t-40.5 -88t-78.5 -50t-125.5 -16q-74 0 -122.5 16t-77.5 50t-41 88t-12 131v420h-22v-422q0 -87 16 -145t49.5 -92.5t85.5 -49t124 -14.5q74 0 126.5 14.5t86.5 49
t49.5 92.5t15.5 145z" />
    <glyph glyph-name="Udieresis" unicode="&#xdc;" horiz-adv-x="833" 
d="M542 727v72h-18v-72h18zM310 727v72h-18v-72h18zM693 287v422h-22v-420q0 -77 -11.5 -131t-40.5 -88t-78.5 -50t-125.5 -16q-74 0 -122.5 16t-77.5 50t-41 88t-12 131v420h-22v-422q0 -87 16 -145t49.5 -92.5t85.5 -49t124 -14.5q74 0 126.5 14.5t86.5 49t49.5 92.5
t15.5 145z" />
    <glyph glyph-name="Yacute" unicode="&#xdd;" horiz-adv-x="700" 
d="M525 827h-54l-147 -90h24zM665 709h-25l-144 -192l-72 -96t-73 -97h-2q-36 48 -72.5 95.5t-72.5 96.5l-144 193h-25l304 -404v-305h22v305z" />
    <glyph glyph-name="Thorn" unicode="&#xde;" horiz-adv-x="811" 
d="M750 381q0 46 -20 84t-64 65t-114 42t-171 15h-209v122h-22v-709h22v170h189q106 0 180 15t120.5 42.5t67.5 66.5t21 87zM728 381q0 -43 -18.5 -78t-62 -60.5t-114 -39.5t-174.5 -14h-187v379h217q95 0 160 -14.5t104.5 -40t57 -59.5t17.5 -73z" />
    <glyph glyph-name="germandbls" unicode="&#xdf;" horiz-adv-x="740" 
d="M672 245q0 66 -24.5 108t-62.5 66.5t-84.5 34t-91.5 10.5v2q45 1 75 11t49 25t29 32.5t14 34t4.5 30t0.5 20.5q0 16 -5 44.5t-25.5 56.5t-61.5 48.5t-114 20.5q-55 0 -95 -13t-68.5 -35t-46 -51t-28 -61t-14 -65t-3.5 -62v-742h20v740q0 27 3 57.5t11.5 61t24.5 58t42 49
t64 34t90 12.5q69 0 107 -20t55.5 -45.5t20.5 -50.5t3 -34q0 -36 -12.5 -64t-41.5 -46.5t-77.5 -28t-120.5 -9.5h-2v-17h5q177 0 258.5 -51.5t81.5 -161.5q0 -48 -15 -89.5t-49 -72t-88.5 -48t-132.5 -17.5h-30v-17h31q90 0 149 21t93.5 55.5t48 78.5t13.5 90z" />
    <glyph glyph-name="agrave" unicode="&#xe0;" horiz-adv-x="653" 
d="M349 572l-139 113h-37l159 -113h17zM570 0v2q-11 12 -17 21t-9.5 18.5t-4.5 22t-1 32.5v280q0 82 -49.5 125t-168.5 43q-54 0 -85.5 -5.5l-31.5 -5.5l2 -16q1 0 9 2.5t34 5t71 2.5q56 0 94 -9.5t61.5 -29t33.5 -49t10 -68.5v-26q-113 -9 -198 -23t-141.5 -37.5t-85 -59.5
t-28.5 -90q0 -26 10.5 -52t36.5 -47t70 -34.5t112 -13.5q21 0 50 4t60 14.5t61 28.5t53 45h1q0 -25 5.5 -43t22.5 -37h23zM518 102q-25 -32 -56.5 -51t-62 -29.5t-58 -13.5t-45.5 -3q-64 0 -105 12.5t-64.5 31.5t-32.5 42t-9 45q0 49 28 82t82.5 54.5t135.5 34t187 21.5
v-226z" />
    <glyph glyph-name="aacute" unicode="&#xe1;" horiz-adv-x="653" 
d="M481 685h-37l-139 -113h17zM570 0v2q-11 12 -17 21t-9.5 18.5t-4.5 22t-1 32.5v280q0 82 -49.5 125t-168.5 43q-54 0 -85.5 -5.5l-31.5 -5.5l2 -16q1 0 9 2.5t34 5t71 2.5q56 0 94 -9.5t61.5 -29t33.5 -49t10 -68.5v-26q-113 -9 -198 -23t-141.5 -37.5t-85 -59.5
t-28.5 -90q0 -26 10.5 -52t36.5 -47t70 -34.5t112 -13.5q21 0 50 4t60 14.5t61 28.5t53 45h1q0 -25 5.5 -43t22.5 -37h23zM518 102q-25 -32 -56.5 -51t-62 -29.5t-58 -13.5t-45.5 -3q-64 0 -105 12.5t-64.5 31.5t-32.5 42t-9 45q0 49 28 82t82.5 54.5t135.5 34t187 21.5
v-226z" />
    <glyph glyph-name="acircumflex" unicode="&#xe2;" horiz-adv-x="653" 
d="M467 591l-139 92h-2l-139 -92h18l121 66h2l121 -66h18zM570 0v2q-11 12 -17 21t-9.5 18.5t-4.5 22t-1 32.5v280q0 82 -49.5 125t-168.5 43q-54 0 -85.5 -5.5l-31.5 -5.5l2 -16q1 0 9 2.5t34 5t71 2.5q56 0 94 -9.5t61.5 -29t33.5 -49t10 -68.5v-26q-113 -9 -198 -23
t-141.5 -37.5t-85 -59.5t-28.5 -90q0 -26 10.5 -52t36.5 -47t70 -34.5t112 -13.5q21 0 50 4t60 14.5t61 28.5t53 45h1q0 -25 5.5 -43t22.5 -37h23zM518 102q-25 -32 -56.5 -51t-62 -29.5t-58 -13.5t-45.5 -3q-64 0 -105 12.5t-64.5 31.5t-32.5 42t-9 45q0 49 28 82
t82.5 54.5t135.5 34t187 21.5v-226z" />
    <glyph glyph-name="atilde" unicode="&#xe3;" horiz-adv-x="653" 
d="M465 658l-12 12q-13 -14 -27 -18.5t-34 -4.5q-15 0 -30 3t-23 5l-20 6q-16 5 -30 6.5t-25 1.5q-23 0 -41.5 -6.5t-31.5 -22.5l12 -12q13 14 27 18.5t34 4.5q15 0 30 -3t23 -5l20 -6q16 -5 30 -6.5t25 -1.5q23 0 41.5 6.5t31.5 22.5zM570 0v2q-11 12 -17 21t-9.5 18.5
t-4.5 22t-1 32.5v280q0 82 -49.5 125t-168.5 43q-54 0 -85.5 -5.5l-31.5 -5.5l2 -16q1 0 9 2.5t34 5t71 2.5q56 0 94 -9.5t61.5 -29t33.5 -49t10 -68.5v-26q-113 -9 -198 -23t-141.5 -37.5t-85 -59.5t-28.5 -90q0 -26 10.5 -52t36.5 -47t70 -34.5t112 -13.5q21 0 50 4
t60 14.5t61 28.5t53 45h1q0 -25 5.5 -43t22.5 -37h23zM518 102q-25 -32 -56.5 -51t-62 -29.5t-58 -13.5t-45.5 -3q-64 0 -105 12.5t-64.5 31.5t-32.5 42t-9 45q0 49 28 82t82.5 54.5t135.5 34t187 21.5v-226z" />
    <glyph glyph-name="adieresis" unicode="&#xe4;" horiz-adv-x="653" 
d="M450 612v77h-18v-77h18zM222 612v77h-18v-77h18zM570 0v2q-11 12 -17 21t-9.5 18.5t-4.5 22t-1 32.5v280q0 82 -49.5 125t-168.5 43q-54 0 -85.5 -5.5l-31.5 -5.5l2 -16q1 0 9 2.5t34 5t71 2.5q56 0 94 -9.5t61.5 -29t33.5 -49t10 -68.5v-26q-113 -9 -198 -23
t-141.5 -37.5t-85 -59.5t-28.5 -90q0 -26 10.5 -52t36.5 -47t70 -34.5t112 -13.5q21 0 50 4t60 14.5t61 28.5t53 45h1q0 -25 5.5 -43t22.5 -37h23zM518 102q-25 -32 -56.5 -51t-62 -29.5t-58 -13.5t-45.5 -3q-64 0 -105 12.5t-64.5 31.5t-32.5 42t-9 45q0 49 28 82
t82.5 54.5t135.5 34t187 21.5v-226z" />
    <glyph glyph-name="aring" unicode="&#xe5;" horiz-adv-x="653" 
d="M404 643q0 30 -24 46t-53 16t-53 -16t-24 -46t24 -46t52 -16h1q29 0 53 16t24 46zM570 0v2q-11 12 -17 21t-9.5 18.5t-4.5 22t-1 32.5v280q0 82 -49.5 125t-168.5 43q-54 0 -85.5 -5.5l-31.5 -5.5l2 -16q1 0 9 2.5t34 5t71 2.5q56 0 94 -9.5t61.5 -29t33.5 -49t10 -68.5
v-26q-113 -9 -198 -23t-141.5 -37.5t-85 -59.5t-28.5 -90q0 -26 10.5 -52t36.5 -47t70 -34.5t112 -13.5q21 0 50 4t60 14.5t61 28.5t53 45h1q0 -25 5.5 -43t22.5 -37h23zM384 643q0 -17 -14 -31t-43 -14h-1q-30 0 -44 14t-14 31q0 21 17 33t41 12t41 -12t17 -33zM518 102
q-25 -32 -56.5 -51t-62 -29.5t-58 -13.5t-45.5 -3q-64 0 -105 12.5t-64.5 31.5t-32.5 42t-9 45q0 49 28 82t82.5 54.5t135.5 34t187 21.5v-226z" />
    <glyph glyph-name="ae" unicode="&#xe6;" horiz-adv-x="1130" 
d="M1073 269q0 56 -19 104.5t-54 86.5q-38 40 -88 62t-107 22t-103 -15t-80 -40.5t-56 -58.5t-30 -69h-2q0 39 -7.5 72.5t-30 58t-65 38.5t-111.5 14q-59 0 -92.5 -2t-49.5 -5t-19.5 -5l-3.5 -2l5 -14l5.5 1.5t22.5 4t48.5 4t82.5 1.5q58 0 96.5 -10.5t61 -30t32 -49
t9.5 -66.5v-26q-113 -9 -198 -23t-141.5 -37.5t-85 -59.5t-28.5 -90q0 -26 10.5 -52t36.5 -47t70 -34.5t112 -13.5q81 0 149 32.5t117 86.5h2q24 -37 55 -60.5t64.5 -36.5t66.5 -17.5t59 -4.5q39 0 85 8t85.5 17t66 17l26.5 8l-4 19l-25 -8t-63.5 -18t-85 -18t-89.5 -8
q-44 0 -91 13.5t-85.5 44.5t-63.5 81.5t-25 124.5h535zM1051 287h-513q0 43 17 86t50.5 77.5t83.5 55.5t116 21q54 0 98.5 -20t77 -53.5t50.5 -77t20 -89.5zM552 123q-20 -23 -47 -44t-60 -37.5t-70.5 -26.5t-78.5 -10q-64 0 -105 12.5t-64.5 31.5t-32.5 42t-9 45
q0 49 28 82t82.5 54.5t135.5 34t187 21.5v-55q0 -46 9 -83t25 -67z" />
    <glyph glyph-name="ccedilla" unicode="&#xe7;" horiz-adv-x="673" 
d="M613 109l-18 9q-14 -23 -34 -43t-47 -36t-63.5 -25t-83.5 -9q-52 0 -101.5 15t-88.5 46.5t-63 81t-24 118.5q0 66 24 115t63 81.5t89 48.5t101 16q83 0 132 -26t81 -69l17 10q-35 46 -88.5 74t-141.5 28q-56 0 -109.5 -17t-95 -51.5t-67 -86.5t-25.5 -123
q0 -73 24.5 -125.5t65.5 -86.5t94.5 -50t110.5 -16l-45 -57l13 -7q11 3 30 4.5t37 -1.5t31 -12t13 -27q0 -12 -8.5 -21t-21 -14.5t-28.5 -8t-31 -2.5q-26 0 -46.5 4.5t-35.5 12.5l-10 -14q12 -6 36 -13t56 -7q48 0 77.5 16.5t29.5 46.5q0 20 -11.5 32t-28 18t-36.5 7t-36 -2
l36 45q48 2 84 13.5t63 28t46.5 37.5t33.5 42z" />
    <glyph glyph-name="egrave" unicode="&#xe8;" horiz-adv-x="682" 
d="M363 572l-139 113h-37l159 -113h17zM625 269q0 60 -20.5 108t-52.5 83q-39 42 -89 63t-106 21q-64 0 -114 -19t-88 -52q-41 -35 -63 -85.5t-22 -114.5q0 -72 21.5 -123t57.5 -86q42 -40 96.5 -58t111.5 -18q39 0 85 8t85.5 17t66 17l26.5 8l-4 19l-24.5 -8t-63 -18
t-84.5 -18t-89 -8q-44 0 -91 13.5t-85.5 44.5t-63.5 81.5t-25 124.5h535zM603 287h-513q0 49 19.5 92.5t54.5 76.5t84 52t109 19q54 0 98.5 -20t77 -53.5t50.5 -77t20 -89.5z" />
    <glyph glyph-name="eacute" unicode="&#xe9;" horiz-adv-x="682" 
d="M495 685h-37l-139 -113h17zM625 269q0 60 -20.5 108t-52.5 83q-39 42 -89 63t-106 21q-64 0 -114 -19t-88 -52q-41 -35 -63 -85.5t-22 -114.5q0 -72 21.5 -123t57.5 -86q42 -40 96.5 -58t111.5 -18q39 0 85 8t85.5 17t66 17l26.5 8l-4 19l-24.5 -8t-63 -18t-84.5 -18
t-89 -8q-44 0 -91 13.5t-85.5 44.5t-63.5 81.5t-25 124.5h535zM603 287h-513q0 49 19.5 92.5t54.5 76.5t84 52t109 19q54 0 98.5 -20t77 -53.5t50.5 -77t20 -89.5z" />
    <glyph glyph-name="ecircumflex" unicode="&#xea;" horiz-adv-x="682" 
d="M481 591l-139 92h-2l-139 -92h18l121 66h2l121 -66h18zM625 269q0 60 -20.5 108t-52.5 83q-39 42 -89 63t-106 21q-64 0 -114 -19t-88 -52q-41 -35 -63 -85.5t-22 -114.5q0 -72 21.5 -123t57.5 -86q42 -40 96.5 -58t111.5 -18q39 0 85 8t85.5 17t66 17l26.5 8l-4 19
l-24.5 -8t-63 -18t-84.5 -18t-89 -8q-44 0 -91 13.5t-85.5 44.5t-63.5 81.5t-25 124.5h535zM603 287h-513q0 49 19.5 92.5t54.5 76.5t84 52t109 19q54 0 98.5 -20t77 -53.5t50.5 -77t20 -89.5z" />
    <glyph glyph-name="edieresis" unicode="&#xeb;" horiz-adv-x="682" 
d="M464 612v77h-18v-77h18zM236 612v77h-18v-77h18zM625 269q0 60 -20.5 108t-52.5 83q-39 42 -89 63t-106 21q-64 0 -114 -19t-88 -52q-41 -35 -63 -85.5t-22 -114.5q0 -72 21.5 -123t57.5 -86q42 -40 96.5 -58t111.5 -18q39 0 85 8t85.5 17t66 17l26.5 8l-4 19l-24.5 -8
t-63 -18t-84.5 -18t-89 -8q-44 0 -91 13.5t-85.5 44.5t-63.5 81.5t-25 124.5h535zM603 287h-513q0 49 19.5 92.5t54.5 76.5t84 52t109 19q54 0 98.5 -20t77 -53.5t50.5 -77t20 -89.5z" />
    <glyph glyph-name="igrave" unicode="&#xec;" horiz-adv-x="280" 
d="M202 572l-139 113h-37l159 -113h17zM150 0v532h-20v-532h20z" />
    <glyph glyph-name="iacute" unicode="&#xed;" horiz-adv-x="280" 
d="M254 685h-37l-139 -113h17zM150 0v532h-20v-532h20z" />
    <glyph glyph-name="icircumflex" unicode="&#xee;" horiz-adv-x="280" 
d="M280 591l-139 92h-2l-139 -92h18l121 66h2l121 -66h18zM150 0v532h-20v-532h20z" />
    <glyph glyph-name="idieresis" unicode="&#xef;" horiz-adv-x="280" 
d="M263 612v77h-18v-77h18zM35 612v77h-18v-77h18zM150 0v532h-20v-532h20z" />
    <glyph glyph-name="eth" unicode="&#xf0;" horiz-adv-x="739" 
d="M669 312q0 56 -16 113.5t-48 107.5q-23 37 -60 72.5t-87 64.5l152 47l-15 12l-156 -48q-54 24 -112.5 39t-118.5 19l-35 -14q84 -4 141.5 -19.5t99.5 -32.5l-224 -68l16 -12l229 70q65 -35 99.5 -71t54.5 -65q23 -34 40 -77t23 -93h-2q-15 50 -44 85.5t-67 58t-81.5 33
t-88.5 10.5q-63 0 -117.5 -18.5t-95 -54.5t-63.5 -87.5t-23 -117.5q0 -56 18.5 -106t55.5 -88.5t93 -61t132 -22.5q72 0 128 21t91 61q18 20 32.5 41t25.5 49t17 64.5t6 87.5zM649 280q0 -47 -14 -96t-47 -89t-86 -65t-131 -25h-1q-71 0 -124 21.5t-87.5 58t-51.5 83.5
t-17 98q0 61 21.5 109.5t59 82.5t89 51.5t110.5 17.5q66 0 118 -21t88 -55.5t54.5 -79t18.5 -91.5z" />
    <glyph glyph-name="ntilde" unicode="&#xf1;" horiz-adv-x="721" 
d="M499 658l-12 12q-13 -14 -27 -18.5t-34 -4.5q-15 0 -30 3t-23 5l-20 6q-16 5 -30 6.5t-25 1.5q-23 0 -41.5 -6.5t-31.5 -22.5l12 -12q13 14 27 18.5t34 4.5q15 0 30 -3t23 -5l20 -6q16 -5 30 -6.5t25 -1.5q23 0 41.5 6.5t31.5 22.5zM606 0v375q0 42 -10.5 70t-31.5 50
q-23 23 -58.5 36t-84.5 13q-33 0 -67 -6.5t-70 -20.5q-71 -29 -142 -82h-3l1 97h-20v-532h20v413q13 11 31 23.5t38.5 25t41 23t37.5 16.5q72 26 131 26q50 0 81 -12.5t50 -31.5q23 -23 29.5 -51.5t6.5 -57.5v-374h20z" />
    <glyph glyph-name="ograve" unicode="&#xf2;" horiz-adv-x="739" 
d="M392 572l-139 113h-37l159 -113h17zM669 265v1q0 66 -23 117.5t-63.5 87.5t-95 54.5t-117.5 18.5t-118 -18.5t-95.5 -54.5t-63.5 -87.5t-23 -117.5q0 -56 18.5 -106t55.5 -88.5t93.5 -61t132.5 -22.5q78 0 134.5 23.5t93 62.5t54 88.5t17.5 102.5zM649 265q0 -51 -17 -98
t-51.5 -83.5t-87 -58t-122.5 -21.5h-1q-71 0 -124 21.5t-87.5 58t-51.5 83.5t-17 98q0 61 21.5 109.5t59 82.5t89 51.5t110.5 17.5t110 -17.5t88.5 -51.5t59 -82.5t21.5 -109.5z" />
    <glyph glyph-name="oacute" unicode="&#xf3;" horiz-adv-x="739" 
d="M524 685h-37l-139 -113h17zM669 265v1q0 66 -23 117.5t-63.5 87.5t-95 54.5t-117.5 18.5t-118 -18.5t-95.5 -54.5t-63.5 -87.5t-23 -117.5q0 -56 18.5 -106t55.5 -88.5t93.5 -61t132.5 -22.5q78 0 134.5 23.5t93 62.5t54 88.5t17.5 102.5zM649 265q0 -51 -17 -98
t-51.5 -83.5t-87 -58t-122.5 -21.5h-1q-71 0 -124 21.5t-87.5 58t-51.5 83.5t-17 98q0 61 21.5 109.5t59 82.5t89 51.5t110.5 17.5t110 -17.5t88.5 -51.5t59 -82.5t21.5 -109.5z" />
    <glyph glyph-name="ocircumflex" unicode="&#xf4;" horiz-adv-x="739" 
d="M510 591l-139 92h-2l-139 -92h18l121 66h2l121 -66h18zM669 265v1q0 66 -23 117.5t-63.5 87.5t-95 54.5t-117.5 18.5t-118 -18.5t-95.5 -54.5t-63.5 -87.5t-23 -117.5q0 -56 18.5 -106t55.5 -88.5t93.5 -61t132.5 -22.5q78 0 134.5 23.5t93 62.5t54 88.5t17.5 102.5z
M649 265q0 -51 -17 -98t-51.5 -83.5t-87 -58t-122.5 -21.5h-1q-71 0 -124 21.5t-87.5 58t-51.5 83.5t-17 98q0 61 21.5 109.5t59 82.5t89 51.5t110.5 17.5t110 -17.5t88.5 -51.5t59 -82.5t21.5 -109.5z" />
    <glyph glyph-name="otilde" unicode="&#xf5;" horiz-adv-x="739" 
d="M508 658l-12 12q-13 -14 -27 -18.5t-34 -4.5q-15 0 -30 3t-23 5l-20 6q-16 5 -30 6.5t-25 1.5q-23 0 -41.5 -6.5t-31.5 -22.5l12 -12q13 14 27 18.5t34 4.5q15 0 30 -3t23 -5l20 -6q16 -5 30 -6.5t25 -1.5q23 0 41.5 6.5t31.5 22.5zM669 265v1q0 66 -23 117.5t-63.5 87.5
t-95 54.5t-117.5 18.5t-118 -18.5t-95.5 -54.5t-63.5 -87.5t-23 -117.5q0 -56 18.5 -106t55.5 -88.5t93.5 -61t132.5 -22.5q78 0 134.5 23.5t93 62.5t54 88.5t17.5 102.5zM649 265q0 -51 -17 -98t-51.5 -83.5t-87 -58t-122.5 -21.5h-1q-71 0 -124 21.5t-87.5 58t-51.5 83.5
t-17 98q0 61 21.5 109.5t59 82.5t89 51.5t110.5 17.5t110 -17.5t88.5 -51.5t59 -82.5t21.5 -109.5z" />
    <glyph glyph-name="odieresis" unicode="&#xf6;" horiz-adv-x="739" 
d="M502 612v77h-18v-77h18zM274 612v77h-18v-77h18zM678 265v1q0 66 -23 117.5t-63.5 87.5t-95 54.5t-117.5 18.5t-118 -18.5t-95.5 -54.5t-63.5 -87.5t-23 -117.5q0 -56 18.5 -106t55.5 -88.5t93.5 -61t132.5 -22.5q78 0 134.5 23.5t93 62.5t54 88.5t17.5 102.5zM658 265
q0 -51 -17 -98t-51.5 -83.5t-87 -58t-122.5 -21.5h-1q-71 0 -124 21.5t-87.5 58t-51.5 83.5t-17 98q0 61 21.5 109.5t59 82.5t89 51.5t110.5 17.5t110 -17.5t88.5 -51.5t59 -82.5t21.5 -109.5z" />
    <glyph glyph-name="divide" unicode="&#xf7;" horiz-adv-x="800" 
d="M418 395q0 8 -5 13t-12 5h-1q-8 0 -13 -5t-5 -13t5 -13t13 -5t13 5t5 13zM657 246v16h-512v-16h512zM419 113q0 8 -5 13t-12 5h-1q-8 0 -13 -5t-5 -13t5 -13t13 -5t13 5t5 13z" />
    <glyph glyph-name="oslash" unicode="&#xf8;" horiz-adv-x="739" 
d="M703 531l-11 13l-100 -85q-31 33 -83.5 58.5t-137.5 25.5q-64 0 -119 -18.5t-95.5 -54.5t-63.5 -87.5t-23 -117.5q0 -49 16 -95.5t51 -88.5l-101 -82l11 -13l100 85q11 -12 29 -26.5t44.5 -27.5t63 -21.5t84.5 -8.5q79 0 135.5 23.5t93.5 62.5t54.5 89t17.5 103
q0 49 -16 95.5t-51 88.5zM583 451l-435 -363q-8 10 -18 25.5t-19 37.5t-15 50.5t-6 63.5q0 61 21.5 109.5t59 82.5t89.5 51.5t112 17.5q35 0 68 -5.5t58 -15.5q32 -13 51.5 -26.5t33.5 -27.5zM649 265q0 -51 -17 -98t-51.5 -83.5t-87.5 -58t-125 -21.5q-36 0 -69 5.5
t-58 15.5q-32 13 -51.5 26.5t-33.5 27.5l435 363q8 -10 18 -26t19 -37.5t15 -50t6 -63.5z" />
    <glyph glyph-name="ugrave" unicode="&#xf9;" horiz-adv-x="721" 
d="M383 572l-139 113h-37l159 -113h17zM601 0v532h-20v-413q-39 -30 -78 -52t-69 -34q-35 -14 -68.5 -21t-63.5 -7q-52 0 -82.5 13.5t-47.5 29.5q-24 23 -30.5 51t-6.5 59v374h-20v-375q0 -42 10.5 -70t31.5 -50q23 -23 58.5 -36t84.5 -13q66 0 137 28q35 14 67.5 33.5
t74.5 47.5h3l-1 -97h20z" />
    <glyph glyph-name="uacute" unicode="&#xfa;" horiz-adv-x="721" 
d="M515 685h-37l-139 -113h17zM601 0v532h-20v-413q-39 -30 -78 -52t-69 -34q-35 -14 -68.5 -21t-63.5 -7q-52 0 -82.5 13.5t-47.5 29.5q-24 23 -30.5 51t-6.5 59v374h-20v-375q0 -42 10.5 -70t31.5 -50q23 -23 58.5 -36t84.5 -13q66 0 137 28q35 14 67.5 33.5t74.5 47.5h3
l-1 -97h20z" />
    <glyph glyph-name="ucircumflex" unicode="&#xfb;" horiz-adv-x="721" 
d="M501 591l-139 92h-2l-139 -92h18l121 66h2l121 -66h18zM601 0v532h-20v-413q-39 -30 -78 -52t-69 -34q-35 -14 -68.5 -21t-63.5 -7q-52 0 -82.5 13.5t-47.5 29.5q-24 23 -30.5 51t-6.5 59v374h-20v-375q0 -42 10.5 -70t31.5 -50q23 -23 58.5 -36t84.5 -13q66 0 137 28
q35 14 67.5 33.5t74.5 47.5h3l-1 -97h20z" />
    <glyph glyph-name="udieresis" unicode="&#xfc;" horiz-adv-x="721" 
d="M484 612v77h-18v-77h18zM256 612v77h-18v-77h18zM601 0v532h-20v-413q-39 -30 -78 -52t-69 -34q-35 -14 -68.5 -21t-63.5 -7q-52 0 -82.5 13.5t-47.5 29.5q-24 23 -30.5 51t-6.5 59v374h-20v-375q0 -42 10.5 -70t31.5 -50q23 -23 58.5 -36t84.5 -13q66 0 137 28
q35 14 67.5 33.5t74.5 47.5h3l-1 -97h20z" />
    <glyph glyph-name="yacute" unicode="&#xfd;" horiz-adv-x="661" 
d="M525 685h-37l-139 -113h17zM626 532h-21l-105 -245q-26 -63 -54 -127.5t-56 -129.5h-2q-39 63 -79.5 127t-80.5 128l-155 247h-23l330 -524l-52 -118q-23 -53 -58 -87q-26 -25 -58.5 -36t-71.5 -11q-20 0 -38 2.5t-33 7.5q-17 5 -30 12t-21 12l-10 -17q11 -7 24 -13
t31 -11q15 -5 33.5 -7.5t43.5 -2.5q50 0 84 14.5t58 36.5q25 22 39.5 47.5t24.5 47.5z" />
    <glyph glyph-name="thorn" unicode="&#xfe;" horiz-adv-x="739" 
d="M664 268q0 60 -19.5 107.5t-52.5 82.5q-81 86 -215 86q-41 0 -74 -7t-62 -20q-34 -15 -58.5 -33t-41.5 -36h-1v279h-20v-975h20v331h2q23 -21 51.5 -40t53.5 -30q40 -17 73 -21t57 -4q72 0 126 24t87 60q40 43 57 94t17 102zM644 268q0 -60 -19 -105.5t-49 -77.5
q-40 -43 -91.5 -61.5t-107.5 -18.5q-38 0 -69.5 6.5t-55.5 17.5q-23 11 -51 28.5t-61 49.5v318q23 25 51 44.5t57 32.5q33 15 65 20t64 5q66 0 116 -21.5t84 -58.5q34 -36 50.5 -82.5t16.5 -96.5z" />
    <glyph glyph-name="ydieresis" unicode="&#xff;" horiz-adv-x="661" 
d="M477 612v77h-18v-77h18zM249 612v77h-18v-77h18zM626 532h-21l-105 -245q-26 -63 -54 -127.5t-56 -129.5h-2q-39 63 -79.5 127t-80.5 128l-155 247h-23l330 -524l-52 -118q-23 -53 -58 -87q-26 -25 -58.5 -36t-71.5 -11q-20 0 -38 2.5t-33 7.5q-17 5 -30 12t-21 12
l-10 -17q11 -7 24 -13t31 -11q15 -5 33.5 -7.5t43.5 -2.5q50 0 84 14.5t58 36.5q25 22 39.5 47.5t24.5 47.5z" />
    <glyph glyph-name="OE" unicode="&#x152;" horiz-adv-x="1231" 
d="M1141 0v19h-457v342h360v19h-360v310h443v19h-456q-15 4 -54.5 9t-116.5 5q-96 0 -174 -25.5t-132.5 -73t-84 -116t-29.5 -154.5t29.5 -154t84 -115.5t132.5 -73t174 -25.5q81 0 120 5.5t51 8.5h470zM662 24q0 -8 -43 -14t-118 -6q-90 0 -163.5 23.5t-126 68.5t-81 110
t-28.5 148q0 84 28.5 149t81 110t126 68.5t163.5 23.5q75 0 118 -6t43 -14v-661z" />
    <glyph glyph-name="oe" unicode="&#x153;" horiz-adv-x="1232" 
d="M1175 269q0 60 -20.5 108t-52.5 83q-39 42 -89 63t-106 21q-63 0 -111.5 -18t-83 -47t-55.5 -65.5t-27 -72.5h-2q-5 21 -19.5 55.5t-45 67t-82 56.5t-129.5 24q-60 0 -111.5 -19.5t-89.5 -55.5t-59.5 -87.5t-21.5 -115.5q0 -61 20 -112t57 -88t89 -57.5t116 -20.5
q65 0 113.5 17t82.5 45t53.5 64t27.5 75h2q15 -61 46 -100t70 -61.5t81.5 -31t78.5 -8.5q39 0 85 8t85.5 17t66 17l26.5 8l-4 19l-24.5 -8t-63 -18t-84.5 -18t-89 -8q-42 0 -89 13.5t-86.5 44.5t-65 81.5t-25.5 124.5h536zM1153 286h-514q0 40 16.5 82.5t49.5 77.5t83 57.5
t118 22.5q54 0 99 -20t77 -53.5t50.5 -77t20.5 -89.5zM619 266q0 -66 -20 -115t-55.5 -81.5t-84 -48.5t-106.5 -16q-59 0 -107.5 19.5t-83 54t-53.5 82t-19 104.5v1q0 69 24 118.5t61.5 81t84.5 46.5t93 15q58 0 107 -18.5t84.5 -52t55 -82t19.5 -108.5z" />
    <glyph glyph-name="Scaron" unicode="&#x160;" horiz-adv-x="790" 
d="M545 822h-18l-131 -44h-2l-131 44h-18l149 -67h2zM712 193q0 48 -23 80t-52 51q-18 12 -38 20.5t-46 16.5t-61 16t-81 18q-53 12 -90 20t-63 15t-43.5 13t-32.5 14q-29 14 -47.5 40.5t-18.5 61.5q0 36 17.5 62t51.5 45q36 20 91.5 29.5t117.5 9.5q55 0 98 -7t74.5 -20
t52.5 -30.5t33 -39.5l19 10q-14 24 -36 43t-55 33t-79 21.5t-107 7.5q-69 0 -124 -10t-96 -31q-43 -23 -61.5 -55.5t-18.5 -64.5q0 -47 21.5 -76t48.5 -43q12 -7 26.5 -13t38 -12.5t60 -15.5t94.5 -22q55 -12 93 -21.5t64 -17t43.5 -14t31.5 -14.5q13 -7 26.5 -17.5
t24 -25.5t17.5 -34.5t7 -44.5q0 -38 -20.5 -70.5t-54.5 -55.5q-42 -27 -97.5 -44t-127.5 -17q-114 0 -188.5 29.5t-109.5 74.5l-17 -14q20 -24 48.5 -43.5t67 -34t87.5 -22.5t111 -8q74 0 134 17t103 46q42 28 64 65t22 79z" />
    <glyph glyph-name="scaron" unicode="&#x161;" horiz-adv-x="652" 
d="M466 678h-18l-121 -66h-2l-121 66h-18l139 -92h2zM592 147q0 26 -11 50.5t-31 40.5q-14 11 -31 19.5t-41 15.5t-58.5 13.5t-82.5 14.5q-52 8 -86 14t-56.5 12t-36.5 12.5t-27 16.5q-19 14 -26 30.5t-7 33.5q0 27 14.5 45.5t39.5 31.5q34 17 80.5 23t94.5 6q90 0 145 -23
t78 -56l15 13q-16 20 -35.5 33.5t-43.5 24.5q-36 16 -76 21t-83 5q-117 0 -183 -30q-32 -14 -49 -38t-17 -56q0 -49 45 -82q14 -10 29.5 -17t38.5 -13t56 -12t82 -13q49 -8 83 -14t57.5 -12.5t39 -14.5t28.5 -19q19 -17 27 -38t8 -41q0 -29 -14.5 -52.5t-40.5 -40.5
q-37 -24 -86.5 -34.5t-99.5 -10.5q-94 0 -160.5 24.5t-96.5 57.5l-14 -14q21 -19 45.5 -34.5t58.5 -26.5q36 -11 78.5 -18t92.5 -7q65 0 113.5 13t81.5 36q32 23 47 47.5t15 62.5z" />
    <glyph glyph-name="Ydieresis" unicode="&#x178;" horiz-adv-x="700" 
d="M475 727v72h-18v-72h18zM243 727v72h-18v-72h18zM665 709h-25l-144 -192l-72 -96t-73 -97h-2q-36 48 -72.5 95.5t-72.5 96.5l-144 193h-25l304 -404v-305h22v305z" />
    <glyph glyph-name="florin" unicode="&#x192;" 
d="M850 675q-29 14 -60 22t-76 8q-44 0 -77.5 -11.5t-60.5 -37.5q-25 -24 -46 -62t-42 -95l-22 -59h-158l-6 -17h158l-132 -360q-14 -38 -32.5 -68t-41.5 -49q-51 -43 -117 -43q-35 0 -63 7.5t-57 21.5l-10 -17q40 -18 67.5 -23.5t58.5 -5.5q44 0 76.5 12t58.5 34
q27 23 46 56.5t34 73.5l133 361h207l6 17h-207l7 20q20 59 42 105.5t54 77.5q22 22 51.5 33.5t71.5 11.5q44 0 70.5 -7.5t52.5 -21.5z" />
    <glyph glyph-name="circumflex" unicode="&#x2c6;" horiz-adv-x="500" 
d="M390 591l-139 92h-2l-139 -92h18l121 66h2l121 -66h18z" />
    <glyph glyph-name="tilde" unicode="&#x2dc;" horiz-adv-x="500" 
d="M388 658l-12 12q-13 -14 -27 -18.5t-34 -4.5q-15 0 -30 3t-23 5l-20 6q-16 5 -30 6.5t-25 1.5q-23 0 -41.5 -6.5t-31.5 -22.5l12 -12q13 14 27 18.5t34 4.5q15 0 30 -3t23 -5l20 -6q16 -5 30 -6.5t25 -1.5q23 0 41.5 6.5t31.5 22.5z" />
    <glyph glyph-name="endash" unicode="&#x2013;" horiz-adv-x="600" 
d="M570 242v16h-540v-16h540z" />
    <glyph glyph-name="emdash" unicode="&#x2014;" horiz-adv-x="1200" 
d="M1170 242v16h-1140v-16h1140z" />
    <glyph glyph-name="quoteleft" unicode="&#x2018;" horiz-adv-x="230" 
d="M130 552l-31 157h-24l43 -157h12z" />
    <glyph glyph-name="quoteright" unicode="&#x2019;" horiz-adv-x="230" 
d="M155 709h-24l-31 -157h12z" />
    <glyph glyph-name="quotesinglbase" unicode="&#x201a;" horiz-adv-x="589" 
d="M630 670q-19 15 -38.5 25t-39.5 18q-30 11 -63.5 15.5t-71.5 4.5q-100 0 -160 -36q-77 -46 -77 -144v-803h20v802q0 48 19 80.5t51 51.5q30 18 67.5 25t79.5 7q74 0 129 -20q49 -18 73 -43z" />
    <glyph glyph-name="quotedblleft" unicode="&#x201c;" horiz-adv-x="353" 
d="M253 552l-31 157h-24l43 -157h12zM130 552l-31 157h-24l43 -157h12z" />
    <glyph glyph-name="quotedblright" unicode="&#x201d;" horiz-adv-x="353" 
d="M278 709h-24l-31 -157h12zM155 709h-24l-31 -157h12z" />
    <glyph glyph-name="quotedblbase" unicode="&#x201e;" horiz-adv-x="353" 
d="M278 77h-24l-31 -157h12zM155 77h-24l-31 -157h12z" />
    <glyph glyph-name="dagger" unicode="&#x2020;" horiz-adv-x="682" 
d="M536 526v21l-187 -3l4 179h-24l4 -179l-187 3v-21l187 3q-1 -37 -2 -73.5t-1 -73.5q1 -121 2.5 -241.5t3.5 -242.5h10q2 122 3.5 242.5t2.5 241.5q0 37 -1 73.5t-2 73.5z" />
    <glyph glyph-name="daggerdbl" unicode="&#x2021;" horiz-adv-x="682" 
d="M536 194v21l-187 -3q1 43 2 85.5t1 84.5q0 37 -1 73.5t-2 73.5l187 -3v21l-187 -3l4 179h-24l4 -179l-187 3v-21l187 3q-1 -37 -2 -73.5t-1 -73.5q0 -42 1 -84.5t2 -85.5l-187 3v-21l187 3l-4 -281h24l-4 281z" />
    <glyph glyph-name="bullet" unicode="&#x2022;" horiz-adv-x="328" 
d="M230 341q0 26 -17.5 44t-43.5 18t-44 -18t-18 -44t18 -44t44 -18t43.5 18t17.5 44z" />
    <glyph glyph-name="ellipsis" unicode="&#x2026;" horiz-adv-x="1200" 
d="M1010 0v80h-20v-80h20zM610 0v80h-20v-80h20zM210 0v80h-20v-80h20z" />
    <glyph glyph-name="perthousand" unicode="&#x2030;" horiz-adv-x="1475" 
d="M1390 165v1q0 39 -13 72t-36.5 57t-56 37.5t-72.5 13.5t-72.5 -13.5t-56 -37.5t-36.5 -57t-13 -72t13 -72t36.5 -57t56 -37.5t72.5 -13.5t72.5 13.5t56 37.5t36.5 57t13 71zM931 166v1q0 39 -13 72t-36.5 57t-56 37.5t-72.5 13.5t-72.5 -13.5t-56 -37.5t-36.5 -57
t-13 -72t13 -72t36.5 -57t56 -37.5t72.5 -13.5t72.5 13.5t56 37.5t36.5 57t13 71zM793 716h-22l-548 -727h23zM442 538v1q0 39 -13 72t-36.5 57t-56 37.5t-72.5 13.5t-72.5 -13.5t-56 -37.5t-36.5 -57t-13 -72t13 -72t36.5 -57t56 -37.5t72.5 -13.5t72.5 13.5t56 37.5
t36.5 57t13 71zM1371 165q0 -36 -11.5 -66t-32 -51.5t-49.5 -33.5t-64 -12h-1q-36 0 -65 12t-49.5 33.5t-32 51.5t-11.5 66t11.5 66t32 51.5t49.5 33.5t65 12t65 -12t49.5 -33.5t32 -51.5t11.5 -66zM911 165q0 -36 -11.5 -66t-32 -51.5t-49.5 -33.5t-64 -12h-1q-36 0 -65 12
t-49.5 33.5t-32 51.5t-11.5 66t11.5 66t32 51.5t49.5 33.5t65 12t65 -12t49.5 -33.5t32 -51.5t11.5 -66zM422 538q0 -36 -11.5 -66t-32 -51.5t-49.5 -33.5t-64 -12h-1q-36 0 -65 12t-49.5 33.5t-32 51.5t-11.5 66t11.5 66t32 51.5t49.5 33.5t65 12t65 -12t49.5 -33.5
t32 -51.5t11.5 -66z" />
    <glyph glyph-name="guilsinglleft" unicode="&#x2039;" horiz-adv-x="382" 
d="M277 61v22l-165 165v2l165 165v22l-194 -187v-2z" />
    <glyph glyph-name="guilsinglright" unicode="&#x203a;" horiz-adv-x="382" 
d="M299 248v2l-194 187v-22l165 -165v-2l-165 -165v-22z" />
    <glyph glyph-name="currency" unicode="&#x20ac;" horiz-adv-x="844" 
d="M811 151l-17 12q-16 -22 -41.5 -49.5t-61.5 -52t-82.5 -41t-103.5 -16.5q-63 0 -122.5 17.5t-108.5 53t-83 89.5t-45 127h603v16h-605q-1 11 -1.5 23t-0.5 24q0 17 1.5 33.5t3.5 31.5h602v16h-600q14 72 50 123t85.5 84t108 48t117.5 15q49 0 89 -11.5t72 -31t56.5 -45
t42.5 -53.5l18 11q-19 30 -46 57t-61.5 47t-77 32t-93.5 12q-86 0 -157 -26t-123 -74q-39 -36 -65.5 -83.5t-37.5 -104.5h-103v-16h101q-2 -16 -3.5 -31.5t-1.5 -32.5q0 -24 3 -48h-99v-16h101q10 -63 37.5 -115.5t72.5 -94.5q43 -40 112.5 -67.5t157.5 -27.5q59 0 107 16
t85.5 40t65.5 53t48 56z" />
    <glyph glyph-name="trademark" unicode="&#x2122;" horiz-adv-x="1170" 
d="M1005 353v356h-28l-119 -170q-59 -84 -120 -171h-2q-29 43 -59 85.5t-60 85.5l-119 170h-27v-356h16v171v174h1q30 -45 59.5 -87.5t59.5 -85.5l120 -172h20l119 170l60 86t60 89h2q-1 -45 -1 -88v-86v-171h18zM404 694v15h-370v-15h176v-341h18v341h176z" />
    <glyph glyph-name="minus" unicode="&#xe000;" horiz-adv-x="800" 
d="M656 245v16h-512v-16h512z" />
    <glyph glyph-name="notequal" unicode="&#xe001;" horiz-adv-x="682" 
d="M601 445h-20q-16 -18 -39 -33.5t-62 -15.5t-62 15.5t-39 33.5h-20q7 -11 17 -22.5t25 -21.5t34.5 -16.5t44.5 -6.5t44.5 6.5t34.5 16.5t25 21.5t17 22.5zM536 526v21l-187 -3l4 179h-24l4 -179l-187 3v-21l187 3q-1 -37 -2 -73.5t-1 -73.5q1 -81 1.5 -162.5t2.5 -162.5
q-32 3 -51.5 17.5t-33.5 30.5h-20q13 -20 37.5 -41t67.5 -25q1 -35 1 -70q0 -36 1 -71h10q1 35 1 70t1 70h2q25 0 44.5 6.5t34.5 16.5t25 21.5t17 22.5h-20q-16 -18 -39 -33.5t-62 -15.5h-2q2 82 2.5 163t1.5 163q0 37 -1 73.5t-2 73.5zM321 437h-20q-16 -18 -39 -33.5
t-62 -15.5t-62 15.5t-39 33.5h-20q7 -11 17 -22.5t25 -21.5t34.5 -16.5t44.5 -6.5t44.5 6.5t34.5 16.5t25 21.5t17 22.5z" />
    <glyph glyph-name="infinity" unicode="&#xe002;" horiz-adv-x="684" 
d="M351 685h-20q-16 -18 -39 -33.5t-62 -15.5t-62 15.5t-39 33.5h-20q7 -11 17 -22.5t25 -21.5t34.5 -16.5t44.5 -6.5t44.5 6.5t34.5 16.5t25 21.5t17 22.5zM671 685h-20q-16 -18 -39 -33.5t-62 -15.5q-38 0 -61 15t-39 33v38h-20v-37h-1l1 -2v-539q0 -54 -9 -84t-29 -53
q-17 -19 -38 -31t-43.5 -18.5t-45 -9t-41.5 -2.5q-45 0 -71 7t-42 13q-26 10 -45.5 21t-39.5 27l-12 -16q23 -17 45.5 -29t46.5 -21q25 -9 52.5 -14t60.5 -5q65 0 111 17t75 49q23 25 34 58.5t11 91.5v514q16 -17 40.5 -29t59.5 -12q25 0 44.5 6.5t34.5 16.5t25 21.5
t17 22.5zM351 -185h-20q-16 -18 -39 -33.5t-62 -15.5t-62 15.5t-39 33.5h-20q7 -11 17 -22.5t25 -21.5t34.5 -16.5t44.5 -6.5t44.5 6.5t34.5 16.5t25 21.5t17 22.5z" />
    <glyph glyph-name="lessequal" unicode="&#xe003;" horiz-adv-x="684" 
d="M576 685h-20q-16 -18 -39 -33.5t-62 -15.5t-62 15.5t-39 33.5h-20q7 -11 17 -22.5t25 -21.5t34.5 -16.5t44.5 -6.5t44.5 6.5t34.5 16.5t25 21.5t17 22.5zM671 -2l-12 16q-20 -16 -39.5 -27t-45.5 -21q-16 -6 -42 -13t-71 -7q-19 0 -41.5 2.5t-45 9t-44 18.5t-37.5 31
q-20 23 -29 53t-9 84v539l1 2h-1v37h-20v-38q-16 -18 -39 -33t-61 -15q-39 0 -62 15.5t-39 33.5h-20q7 -11 17 -22.5t25 -21.5t34.5 -16.5t44.5 -6.5q35 0 59.5 12t40.5 29v-514q0 -58 11 -91.5t34 -58.5q29 -32 75 -49t111 -17q33 0 60.5 5t52.5 14q24 9 46.5 21t45.5 29z
M576 -185h-20q-16 -18 -39 -33.5t-62 -15.5t-62 15.5t-39 33.5h-20q7 -11 17 -22.5t25 -21.5t34.5 -16.5t44.5 -6.5t44.5 6.5t34.5 16.5t25 21.5t17 22.5z" />
    <glyph glyph-name="greaterequal" unicode="&#xe004;" horiz-adv-x="788" 
d="M450 -35l-20 -1l-1 -15.5t-5 -37t-11.5 -45t-20.5 -39.5q-17 -20 -38 -32t-43.5 -18.5t-45 -8.5t-41.5 -2q-45 0 -71 7t-42 13q-26 10 -45.5 21t-39.5 27l-12 -16q23 -17 45.5 -29t46.5 -21q25 -9 52.5 -14t60.5 -5q32 0 58 2t48.5 9t41.5 20t38 35q15 18 23.5 43.5
t13.5 49t6.5 40.5zM110 604q14 14 32.5 22.5t40.5 8.5h1q32 0 56.5 -17t37.5 -43q-13 -8 -29.5 -13.5t-38.5 -5.5q-38 0 -61 15t-39 33zM284 558q3 -12 3 -26q0 -21 -8 -40t-22 -33t-33 -22t-40 -8t-40 8t-33 22t-22 33t-8 40q0 17 5 31.5t13 27.5q16 -20 42.5 -36.5
t68.5 -16.5q23 0 41.5 5.5t32.5 14.5zM331 605h-20q-8 -9 -18 -18q-15 30 -44 49t-65 19h-1q-26 0 -48 -9.5t-39 -26.5t-26.5 -39.5t-9.5 -47.5q0 -26 9.5 -48t26.5 -39t39 -26.5t48 -9.5q25 0 47.5 9.5t39.5 26.5t26.5 39t9.5 48q0 20 -6 38q11 8 18.5 17.5t12.5 17.5z
M481 605q30 30 72 30h1q33 0 59 -18t37 -47q-12 -6 -26.5 -10t-33.5 -4q-39 0 -62 15.5t-39 33.5h-8zM655 553q1 -5 1.5 -10.5t0.5 -10.5q0 -21 -8 -40t-22 -33t-33 -22t-40 -8t-40 8t-33 22t-22 33t-8 40q0 19 6 35.5t17 29.5q15 -20 42.5 -39.5t73.5 -19.5q20 0 35.5 4
t29.5 11zM711 605h-20q-5 -6 -11 -12.5t-14 -11.5q-14 32 -44 53t-68 21h-1q-32 0 -59 -15t-44 -41v133h-20v-200v-378q0 -54 -9 -84t-29 -53q-17 -19 -38 -31t-43.5 -18.5t-45 -9t-41.5 -2.5q-45 0 -71 7t-42 13q-26 10 -45.5 21t-39.5 27l-12 -16q23 -17 45.5 -29
t46.5 -21q25 -9 52.5 -14t60.5 -5q65 0 111 17t75 49q23 25 34 58.5t11 91.5v310q17 -26 44 -41t59 -15q25 0 47.5 9.5t39.5 26.5t26.5 39t9.5 48q0 18 -4 31q14 10 23 21t16 21z" />
    <glyph glyph-name="partialdiff" unicode="&#xe005;" horiz-adv-x="788" 
d="M450 -35l-20 -1l-1 -15.5t-5 -37t-11.5 -45t-20.5 -39.5q-17 -20 -38 -32t-43.5 -18.5t-45 -8.5t-41.5 -2q-45 0 -71 7t-42 13q-26 10 -45.5 21t-39.5 27l-12 -16q23 -17 45.5 -29t46.5 -21q25 -9 52.5 -14t60.5 -5q32 0 58 2t48.5 9t41.5 20t38 35q15 18 23.5 43.5
t13.5 49t6.5 40.5z" />
    <glyph glyph-name="summation" unicode="&#xe006;" horiz-adv-x="684" 
d="M351 685h-20q-16 -18 -39 -33.5t-62 -15.5t-62 15.5t-39 33.5h-20q7 -11 17 -22.5t25 -21.5t34.5 -16.5t44.5 -6.5t44.5 6.5t34.5 16.5t25 21.5t17 22.5zM671 685h-20q-16 -18 -39 -33.5t-62 -15.5q-38 0 -61 15t-39 33v38h-20v-37h-1l1 -2v-539q0 -54 -9 -84t-29 -53
q-17 -19 -38 -31t-43.5 -18.5t-45 -9t-41.5 -2.5q-45 0 -71 7t-42 13q-26 10 -45.5 21t-39.5 27l-12 -16q23 -17 45.5 -29t46.5 -21q25 -9 52.5 -14t60.5 -5q65 0 111 17t75 49q23 25 34 58.5t11 91.5v514q16 -17 40.5 -29t59.5 -12q25 0 44.5 6.5t34.5 16.5t25 21.5
t17 22.5zM351 -185h-20q-16 -18 -39 -33.5t-62 -15.5t-62 15.5t-39 33.5h-20q7 -11 17 -22.5t25 -21.5t34.5 -16.5t44.5 -6.5t44.5 6.5t34.5 16.5t25 21.5t17 22.5z" />
    <glyph glyph-name="product" unicode="&#xe007;" horiz-adv-x="788" 
d="M676 -182l-12 16q-20 -16 -39.5 -27t-45.5 -21q-16 -6 -42 -13t-71 -7q-19 0 -41.5 2t-45 8.5t-44 18.5t-37.5 32q-13 16 -20.5 39.5t-11.5 45t-5 37l-1 15.5l-20 1l1.5 -17t6.5 -40.5t13.5 -49t23.5 -43.5q19 -22 38 -35t41.5 -20t48.5 -9t58 -2q33 0 60.5 5t52.5 14
q24 9 46.5 21t45.5 29zM41 572q12 28 37.5 45.5t57.5 17.5h1q33 0 59 -19.5t37 -49.5q-15 -16 -36.5 -28t-56.5 -12q-38 0 -60.5 14.5t-38.5 31.5zM238 547q1 -5 1 -15q0 -21 -8 -40t-22 -33t-33 -22t-40 -8t-40 8t-33 22t-22 33t-8 40q0 5 0.5 11t1.5 11q16 -17 41.5 -31.5
t63.5 -14.5q35 0 58.5 11.5t39.5 27.5zM261 575h-1v157h-20v-133q-17 26 -44 41t-59 15h-1q-39 0 -70 -22.5t-44 -57.5h-3l2 -3q-7 -17 -7 -40q0 -26 9.5 -48t26.5 -39t39 -26.5t48 -9.5q32 0 59 15t44 41v-310q0 -58 11 -91.5t34 -58.5q29 -32 75 -49t111 -17q33 0 60.5 5
t52.5 14q24 9 46.5 21t45.5 29l-12 16q-20 -16 -39.5 -27t-45.5 -21q-16 -6 -42 -13t-71 -7q-19 0 -41.5 2.5t-45 9t-44 18.5t-37.5 31q-20 23 -29 53t-9 84v378v41zM408 564q10 31 36.5 51t61.5 20h1q34 0 60.5 -20t36.5 -51q-16 -17 -38 -31.5t-60 -14.5t-60 14.5
t-38 31.5zM608 543q1 -4 1 -11q0 -21 -8 -40t-22 -33t-33 -22t-40 -8t-40 8t-33 22t-22 33t-8 40q0 7 1 11q16 -17 40.5 -30t61.5 -13t61.5 13t40.5 30zM627 567h-2q-11 38 -43.5 63t-74.5 25h-1q-41 0 -73.5 -25t-43.5 -63h-4l3 -4q-4 -13 -4 -31q0 -26 9.5 -48t26.5 -39
t39 -26.5t48 -9.5q25 0 47.5 9.5t39.5 26.5t26.5 39t9.5 48q0 8 -1 16.5t-3 16.5z" />
    <glyph glyph-name="pi" unicode="&#xe008;" horiz-adv-x="587" 
d="M271 605h-20q-16 -18 -39 -33.5t-62 -15.5t-62 15.5t-39 33.5h-20q7 -11 17 -22.5t25 -21.5t34.5 -16.5t44.5 -6.5t44.5 6.5t34.5 16.5t25 21.5t17 22.5zM575 184l-18 7q-27 -55 -92.5 -88.5t-176.5 -33.5q-49 0 -94 7t-80 23.5t-56 44t-21 69.5q0 28 7 50t22 40.5
t39.5 35t59.5 33.5q48 23 80 44.5t51 45.5t27 53.5t8 68.5q15 -17 41 -31.5t64 -14.5q25 0 44.5 6.5t34.5 16.5t25 21.5t17 22.5h-20q-16 -18 -39 -33.5t-62 -15.5t-62 15.5t-39 33.5h-5v6h-15v-6q1 -38 -4.5 -67t-22 -54t-47 -47.5t-78.5 -45.5q-41 -20 -69 -38.5t-45 -39
t-24.5 -44.5t-7.5 -54q0 -46 21 -77.5t57.5 -50.5t85 -27t103.5 -8q67 0 116 10t83.5 28t56.5 42t35 52zM557 -95h-20q-16 -18 -39 -33.5t-62 -15.5t-62 15.5t-39 33.5h-20q7 -11 17 -22.5t25 -21.5t34.5 -16.5t44.5 -6.5t44.5 6.5t34.5 16.5t25 21.5t17 22.5z" />
    <glyph glyph-name="integral" unicode="&#xe009;" horiz-adv-x="638" 
d="M575 255l-18 7q-27 -55 -92.5 -88.5t-176.5 -33.5q-49 0 -94 7t-80 23.5t-56 44t-21 69.5q0 28 7 50t22 40.5t39.5 35t59.5 33.5q52 25 85 48t51.5 50t24.5 61t4 80h-15q1 -39 -4 -69.5t-21.5 -56t-47 -48t-79.5 -46.5q-41 -20 -69 -38.5t-45 -39t-24.5 -44.5t-7.5 -54
q0 -46 21 -77.5t57.5 -50.5t85 -27t103.5 -8q67 0 116 10t83.5 28t56.5 42t35 52zM588 -111l-12 16q-20 -16 -39.5 -27t-45.5 -21q-16 -6 -42 -13t-71 -7q-19 0 -41.5 2t-45 8.5t-43.5 18.5t-38 32q-13 16 -20.5 39.5t-11.5 45t-5 37l-1 15.5l-20 1l1.5 -17t6.5 -40.5
t13.5 -49t23.5 -43.5q19 -22 38 -35t41.5 -20t48.5 -9t58 -2q33 0 60.5 5t52.5 14q24 9 46.5 21t45.5 29zM385 591q9 33 36 54t62 21h1q35 0 61 -19.5t37 -50.5q-16 -18 -39 -33.5t-62 -15.5q-36 0 -58.5 13.5t-37.5 30.5zM586 576q1 -3 1 -7v-6q0 -21 -8 -40t-22 -33
t-33 -22t-40 -8t-40 8t-33 22t-22 33t-8 40v7q16 -16 40.5 -28.5t59.5 -12.5q38 0 64 14.5t41 32.5zM602 596q-11 39 -43.5 64.5t-74.5 25.5h-1q-43 0 -75.5 -25.5t-43.5 -64.5h-4l3 -4q-3 -15 -3 -29q0 -26 9.5 -48t26.5 -39t39 -26.5t48 -9.5q25 0 47.5 9.5t39.5 26.5
t26.5 39t9.5 48q0 9 -1 17t-3 16z" />
    <glyph glyph-name="Omega" unicode="&#xe00a;" horiz-adv-x="638" 
d="M606 597q0 25 -9.5 47.5t-26 39.5t-39 26.5t-47.5 9.5h-1q-26 0 -48 -9.5t-39 -26.5t-26.5 -39.5t-9.5 -47.5q0 -26 9.5 -48t26.5 -39t39 -26.5t48 -9.5q25 0 47.5 9.5t39.5 26.5t26.5 39t9.5 48zM575 289l-18 7q-27 -55 -92.5 -88.5t-176.5 -33.5q-49 0 -94 7t-80 23.5
t-56 44t-21 69.5q0 28 7 50t22 40.5t39.5 35t59.5 33.5q52 25 85 48t51.5 50t24.5 61t4 80h-15q1 -39 -4 -69.5t-21.5 -56t-47 -48t-79.5 -46.5q-41 -20 -69 -38.5t-45 -39t-24.5 -44.5t-7.5 -54q0 -46 21 -77.5t57.5 -50.5t85 -27t103.5 -8q67 0 116 10t83.5 28t56.5 42
t35 52zM588 -77l-12 16q-20 -16 -39.5 -27t-45.5 -21q-16 -6 -42 -13t-71 -7q-19 0 -41.5 2t-45 8.5t-43.5 18.5t-38 32q-13 16 -20.5 39.5t-11.5 45t-5 37l-1 15.5l-20 1l1.5 -17t6.5 -41t13.5 -49.5t23.5 -42.5q19 -22 38 -35t41.5 -20t48.5 -9t58 -2q33 0 60.5 5t52.5 14
q24 9 46.5 21t45.5 29zM587 597q0 -24 -10 -45t-27 -35l-73 83l72 68h-19l-50 -48l-43 -41q1 5 1.5 14.5t0.5 16.5v8v50h-13v-157q-20 14 -32.5 36.5t-12.5 49.5q0 21 8 40t22 33t32.5 22t39.5 8h1q21 0 40 -8t33 -22t22 -33t8 -40zM539 510q-26 -16 -55 -16q-23 0 -45 10
v60l29 27z" />
    <glyph glyph-name="radical" unicode="&#xe00b;" horiz-adv-x="587" 
d="M568 667h-20q-16 -18 -39 -33.5t-62 -15.5t-62 15.5t-39 33.5h-20q7 -11 17 -22.5t25 -21.5t34.5 -16.5t44.5 -6.5t44.5 6.5t34.5 16.5t25 21.5t17 22.5zM580 277q0 30 -7.5 54t-24.5 44.5t-45 39t-69 38.5q-49 23 -79 45.5t-46.5 47.5t-22 54t-4.5 67v6h-15l-5 -6
q-16 -18 -39 -33.5t-62 -15.5t-62 15.5t-39 33.5h-20q7 -11 17 -22.5t25 -21.5t34.5 -16.5t44.5 -6.5q38 0 63.5 14.5t41.5 32.5q0 -39 8 -68.5t27 -54t51 -46t80 -44.5q35 -17 59.5 -33t39.5 -35t22 -41t7 -50q0 -42 -21 -69.5t-56 -44t-80 -23.5t-94 -7
q-111 0 -176.5 33.5t-92.5 88.5l-18 -7q13 -28 35 -52t56.5 -42t83.5 -28t116 -10q55 0 103.5 8t85 27t57.5 50.5t21 77.5zM282 -33h-20q-16 -18 -39 -33.5t-62 -15.5t-62 15.5t-39 33.5h-20q7 -11 17 -22.5t25 -21.5t34.5 -16.5t44.5 -6.5t44.5 6.5t34.5 16.5t25 21.5
t17 22.5z" />
    <glyph glyph-name="approxequal" unicode="&#xe00c;" horiz-adv-x="638" 
d="M606 319q0 30 -7.5 54t-24.5 44.5t-45 39t-69 38.5q-50 24 -80 46.5t-46.5 48t-21.5 56t-4 69.5h-15q-2 -46 4 -80t24.5 -61t51.5 -50t85 -48q35 -17 59.5 -33.5t39.5 -35t22 -40.5t7 -50q0 -42 -21 -69.5t-56 -44t-80 -23.5t-94 -7q-111 0 -176.5 33.5t-92.5 88.5
l-18 -7q13 -28 35 -52t56.5 -42t83.5 -28t116 -10q55 0 103.5 8t85 27t57.5 50.5t21 77.5zM38 618q8 35 36 58t65 23h1q36 0 64 -23t36 -58q-16 -18 -39 -33t-62 -15t-62 15t-39 33zM19 617q-1 -5 -1.5 -10.5t-0.5 -10.5q0 -26 9.5 -48t26.5 -39t39 -26.5t48 -9.5
q25 0 47.5 9.5t39.5 26.5t26.5 39t9.5 48q0 25 -9.5 47.5t-26.5 39.5t-39.5 26.5t-47.5 9.5h-1q-22 0 -42 -7.5t-36 -21t-27 -32t-15 -39.5h-1zM242 596q0 -21 -8 -40t-22 -33t-33 -22t-40 -8t-40 8t-33 22t-22 33t-8 40q16 -17 40.5 -30.5t62.5 -13.5t62.5 13.5t40.5 30.5z
M471 69l-20 -1l-1 -15.5t-5 -37t-11.5 -45t-20.5 -39.5q-17 -20 -38 -32t-43.5 -18.5t-45 -8.5t-41.5 -2q-45 0 -71 7t-42 13q-26 10 -45.5 21t-39.5 27l-12 -16q23 -17 45.5 -29t46.5 -21q25 -9 52.5 -14t60.5 -5q32 0 58 2t48.5 9t41.5 20t38 35q15 17 23.5 42.5
t13.5 49.5t6.5 41z" />
    <glyph glyph-name="Delta" unicode="&#xe00d;" 
d="M649 465h-20q-16 -18 -39 -33.5t-62 -15.5t-62 15.5t-39 33.5h-5q10 45 28.5 79t41 56t49 33t53.5 11q41 0 73 -21.5t54.5 -60.5t34.5 -94t12 -121t-12 -121t-34 -94t-54.5 -60.5t-72.5 -21.5h-1q-35 0 -68 18t-59 55t-41.5 93t-15.5 131q0 55 9 102q15 -19 41 -35
t68 -16q25 0 44.5 6.5t34.5 16.5t25 21.5t17 22.5zM80 464q-12 -51 -12 -117q0 -70 13.5 -124.5t37 -91.5t55.5 -56t68 -19t64.5 17.5t48.5 47t31.5 68.5t13.5 82h1q2 -46 16.5 -89.5t39.5 -77t59.5 -54t76.5 -20.5q45 0 80.5 23t60 65t37.5 100.5t13 128.5q0 74 -13.5 133
t-38.5 100t-60.5 62.5t-78.5 21.5q-42 0 -76.5 -20t-59 -54t-39 -77.5t-17.5 -89.5h-1q-3 44 -14 83t-30.5 68.5t-48 46.5t-65.5 17q-56 0 -99.5 -44t-62.5 -129h-1zM321 465h-20q-16 -18 -39 -33.5t-62 -15.5t-62 15.5t-39 33.5h-1q18 75 57 114t87 39q32 0 59.5 -17
t47.5 -51t31.5 -85t11.5 -118t-11.5 -118t-31.5 -85t-47 -51t-59 -17h-1q-32 0 -60.5 17.5t-50 52t-34 85t-12.5 116.5q0 54 9 98q15 -17 41 -32t65 -15q25 0 44.5 6.5t34.5 16.5t25 21.5t17 22.5zM521 -145h-20q-16 -18 -39 -33.5t-62 -15.5t-62 15.5t-39 33.5h-20
q7 -11 17 -22.5t25 -21.5t34.5 -16.5t44.5 -6.5t44.5 6.5t34.5 16.5t25 21.5t17 22.5z" />
    <glyph glyph-name="nonbreakingspace" unicode="&#xe00e;" horiz-adv-x="266" 
 />
    <glyph glyph-name="apple" unicode="&#xe00f;" horiz-adv-x="699" 
d="M676 532q0 25 -9.5 47.5t-26 39.5t-39 26.5t-47.5 9.5h-1q-32 0 -59 -15t-44 -41v133h-20v-191h-124q-1 5 -1.5 10t-1.5 10l2 4h-3q-11 39 -43.5 64.5t-74.5 25.5h-1q-43 0 -75.5 -25.5t-43.5 -64.5h-1l1 -2q-4 -13 -4 -31q0 -26 9.5 -48t26.5 -39t39 -26.5t48 -9.5
q25 0 46.5 9t38 24.5t26.5 37t12 45.5h124v-371q0 -54 -9 -84t-29 -53q-17 -19 -38 -31t-43.5 -18.5t-45 -9t-41.5 -2.5q-45 0 -71 7t-42 13q-26 10 -45.5 21t-39.5 27l-12 -16q23 -17 45.5 -29t46.5 -21q25 -9 52.5 -14t60.5 -5q65 0 111 17t75 49q23 25 34 58.5t11 91.5
v310q17 -26 44 -41t59 -15q25 0 47.5 9.5t39.5 26.5t26.5 39t9.5 48zM450 -35l-20 -1l-1 -15.5t-5 -37t-11.5 -45t-20.5 -39.5q-17 -20 -38 -32t-43.5 -18.5t-45 -8.5t-41.5 -2q-45 0 -71 7t-42 13q-26 10 -45.5 21t-39.5 27l-12 -16q23 -17 45.5 -29t46.5 -21
q25 -9 52.5 -14t60.5 -5q32 0 58 2t48.5 9t41.5 20t38 35q15 18 23.5 43.5t13.5 49t6.5 40.5zM657 532q0 -23 -9.5 -43.5t-25.5 -34.5l-77 86l75 71q17 -14 27 -34.5t10 -44.5zM620 611h-21l-52 -49l-41 -39v36v52h-15v-161q-18 14 -29 35.5t-11 46.5q0 21 8 40t22 33
t32.5 22t39.5 8h1q37 0 66 -24zM610 445q-26 -16 -56 -16q-27 0 -49 12h1v62l29 27zM283 562q-16 -17 -38.5 -31.5t-60.5 -14.5t-60.5 14.5t-38.5 31.5q10 32 36.5 52.5t61.5 20.5h1q35 0 62 -20.5t37 -52.5zM287 532q0 -21 -8 -40t-22 -33t-33 -22t-40 -8t-40 8t-33 22
t-22 33t-8 40v9q16 -17 41 -30t62 -13t62 13t41 30v-9z" />
    </font>
</defs>
</svg>
