<?xml version="1.0" standalone="no"?>
<!DOCTYPE svg PUBLIC "-//W3C//DTD SVG 1.1//EN" "http://www.w3.org/Graphics/SVG/1.1/DTD/svg11.dtd" >
<svg xmlns="http://www.w3.org/2000/svg" xmlns:xlink="http://www.w3.org/1999/xlink" version="1.1">
<metadata>
Created by FontForge 20201107 at Wed Oct 20 21:17:21 2004
 By 
Copyright (c)  2-2004-M.Klen
</metadata>
<defs>
<font id="Sansumi-DemiBold" horiz-adv-x="852" >
  <font-face 
    font-family="Sansumi-DemiBold"
    font-weight="600"
    font-stretch="normal"
    units-per-em="1000"
    panose-1="2 0 7 7 4 0 0 2 0 4"
    ascent="800"
    descent="-200"
    x-height="548"
    cap-height="725"
    bbox="-308 -298 1406 873"
    underline-thickness="50"
    underline-position="-125"
    unicode-range="U+0005-E00F"
  />
<missing-glyph horiz-adv-x="653" 
d="M586 -16v24q-11 12 -17.5 20.5t-9.5 17.5t-4 20.5t-1 29.5v280q0 91 -55 137.5t-179 46.5q-28 0 -52.5 -2.5t-42.5 -5t-28.5 -5l-10.5 -2.5l5 -52l30.5 9t97.5 9q54 0 89 -8.5t56 -26t29.5 -44t8.5 -61.5v-11q-107 -9 -191.5 -23.5t-142.5 -39.5t-88.5 -64t-30.5 -98
q0 -30 12.5 -59.5t41 -52.5t75.5 -37t116 -14q19 0 45.5 3t55 11.5t57.5 22.5t54 36q6 -28 34 -61h46zM502 108q-24 -29 -52.5 -46t-57 -26t-54 -12t-42.5 -3q-62 0 -100 11.5t-59 28.5t-28.5 37.5t-7.5 37.5q0 42 23.5 71t72.5 49t125 33t180 22v-203z" />
    <glyph glyph-name=".notdef" horiz-adv-x="653" 
d="M586 -16v24q-11 12 -17.5 20.5t-9.5 17.5t-4 20.5t-1 29.5v280q0 91 -55 137.5t-179 46.5q-28 0 -52.5 -2.5t-42.5 -5t-28.5 -5l-10.5 -2.5l5 -52l30.5 9t97.5 9q54 0 89 -8.5t56 -26t29.5 -44t8.5 -61.5v-11q-107 -9 -191.5 -23.5t-142.5 -39.5t-88.5 -64t-30.5 -98
q0 -30 12.5 -59.5t41 -52.5t75.5 -37t116 -14q19 0 45.5 3t55 11.5t57.5 22.5t54 36q6 -28 34 -61h46zM502 108q-24 -29 -52.5 -46t-57 -26t-54 -12t-42.5 -3q-62 0 -100 11.5t-59 28.5t-28.5 37.5t-7.5 37.5q0 42 23.5 71t72.5 49t125 33t180 22v-203z" />
    <glyph glyph-name=".null" horiz-adv-x="0" 
 />
    <glyph glyph-name="nonmarkingreturn" horiz-adv-x="333" 
 />
    <glyph glyph-name="breve" horiz-adv-x="500" 
d="M400 701h-56q-19 -21 -39.5 -35t-54.5 -14t-54.5 14t-39.5 35h-56q13 -21 27.5 -39t32.5 -31.5t40 -21t50 -7.5t50 7.5t40 21t32.5 31.5t27.5 39z" />
    <glyph glyph-name="dotaccent" horiz-adv-x="500" 
d="M275 596v109h-50v-109h50z" />
    <glyph glyph-name="ring" horiz-adv-x="500" 
d="M343 643q0 20 -8.5 34.5t-22 24.5t-30 14.5t-32.5 4.5t-32.5 -4.5t-30 -14.5t-22 -24.5t-8.5 -34.5t8.5 -34.5t22 -24.5t30 -14.5t31.5 -4.5h1q16 0 32.5 4.5t30 14.5t22 24.5t8.5 34.5zM291 643q0 -10 -8.5 -19.5t-32.5 -9.5h-1q-25 0 -33.5 10t-8.5 19q0 11 10.5 20
t31.5 9t31.5 -9t10.5 -20z" />
    <glyph glyph-name="hungarumlaut" unicode="&#xa;" horiz-adv-x="500" 
d="M468 718h-75l-111 -173h49zM313 718h-75l-111 -173h49z" />
    <glyph glyph-name="ogonek" horiz-adv-x="500" 
d="M367 -101l-37 28q-19 -17 -36 -24.5t-33 -7.5q-14 0 -22.5 3t-13 7t-6 8t-1.5 7q0 9 5 19.5t22 24.5l61 52h-71l-23 -17q-27 -21 -36.5 -41t-9.5 -40q0 -18 8 -32t20.5 -23t28.5 -13.5t33 -4.5q32 0 59 14t52 40z" />
    <glyph glyph-name="caron" horiz-adv-x="500" 
d="M443 694h-75l-118 -64l-118 64h-75l187 -124h12z" />
    <glyph glyph-name="dotlessi" unicode="&#xd;" horiz-adv-x="280" 
d="M166 -16v564h-52v-564h52z" />
    <glyph glyph-name="fraction" horiz-adv-x="296" 
d="M504 721h-64l-637 -749h65z" />
    <glyph glyph-name="fi" horiz-adv-x="869" 
d="M755 631v112h-52v-112h52zM755 -16v564h-52v-564h52zM646 723q-29 23 -50.5 35t-42.5 20q-32 12 -67 16.5t-74 4.5q-51 0 -93.5 -9t-74.5 -29q-42 -25 -63.5 -65.5t-21.5 -92.5v-55h-131v-50h131v-764h52v764h324v50h-324v54q0 44 17 72.5t45 45.5t63 23.5t76 6.5
q35 0 66.5 -5t57.5 -14q23 -8 41.5 -19.5t38.5 -34.5z" />
    <glyph glyph-name="fl" horiz-adv-x="869" 
d="M755 -16v759h-52v-759h52zM646 723q-29 23 -50.5 35t-42.5 20q-32 12 -67 16.5t-74 4.5q-51 0 -93.5 -9t-74.5 -29q-42 -25 -63.5 -65.5t-21.5 -92.5v-55h-131v-50h131v-764h52v764h324v50h-324v54q0 44 17 72.5t45 45.5t63 23.5t76 6.5q35 0 66.5 -5t57.5 -14
q23 -8 41.5 -19.5t38.5 -34.5z" />
    <glyph glyph-name="Lslash" horiz-adv-x="689" 
d="M660 -16v51h-472v285l209 64v52l-209 -64v353h-54v-369l-87 -27v-52l87 27v-320h526z" />
    <glyph glyph-name="lslash" horiz-adv-x="280" 
d="M239 430v61l-73 -57v309h-52v-350l-70 -55v-61l70 55v-348h52v389z" />
    <glyph glyph-name="Zcaron" horiz-adv-x="695" 
d="M573 838h-96l-129 -44l-3 1l-14 5l-45 15l-67 23h-96l221 -99h8zM637 -16v51h-494l476 650v40h-515v-51h443l-477 -650v-40h567z" />
    <glyph glyph-name="zcaron" horiz-adv-x="604" 
d="M495 694h-75l-118 -64l-118 64h-75l187 -124h12zM584 -16v50h-460l444 472v42h-500v-50h424l-445 -472v-42h537z" />
    <glyph glyph-name="space" unicode=" " horiz-adv-x="266" 
 />
    <glyph glyph-name="exclam" unicode="!" horiz-adv-x="320" 
d="M186 725h-52l3 -585h46zM186 -16v112h-52v-112h52z" />
    <glyph glyph-name="quotedbl" unicode="&#x22;" horiz-adv-x="353" 
d="M267 725h-58l8 -195h42zM144 725h-58l8 -195h42z" />
    <glyph glyph-name="numbersign" unicode="#" horiz-adv-x="720" 
d="M697 464h-172l99 244h-54l-99 -244h-131l99 244h-54l-99 -244h-174l-18 -48h172l-52 -126h-173l-18 -48h172l-105 -258h54l105 258h131l-105 -258h54l105 258h174l18 48h-173l52 126h174zM451 416l-52 -126h-131l52 126h131z" />
    <glyph glyph-name="dollar" unicode="$" 
d="M725 199q0 29 -9 52.5t-24.5 41.5t-36 31.5t-42.5 23.5t-46 17t-48 13q-20 5 -38 8.5t-35 7.5v248q45 -2 78 -9.5t57 -19.5t40.5 -28.5t28.5 -35.5l44 27q-17 27 -37.5 47.5t-49.5 34.5t-68 22.5t-93 10.5v73h-50v-73q-76 -2 -126 -18t-79.5 -39.5t-41.5 -51t-12 -53.5
q0 -43 18.5 -71t46.5 -45.5t62 -27.5t64 -16q18 -4 35 -7t33 -7v-310q-75 3 -136.5 24.5t-106.5 76.5l-39 -36q27 -32 61 -53.5t71 -34.5t75.5 -19t74.5 -7v-82h50v83q59 3 110 19t88.5 42.5t59 62.5t21.5 78zM396 405q-26 6 -54 12q-20 4 -39 8.5t-37 11.5q-35 13 -56 33.5
t-21 54.5q0 17 7 36t28.5 36t62.5 29.5t109 15.5v-237zM673 195q0 -27 -15.5 -52.5t-45 -46.5t-71.5 -34.5t-95 -15.5v297q15 -3 30.5 -6.5t32.5 -7.5q21 -5 41.5 -11.5t39.5 -14.5q38 -16 60.5 -41t22.5 -67z" />
    <glyph glyph-name="percent" unicode="%" horiz-adv-x="1016" 
d="M947 166v1q0 42 -14 77.5t-39.5 62t-61.5 41.5t-79 15t-79 -15t-61.5 -41.5t-39.5 -62t-14 -77.5t14 -77.5t39.5 -62t61.5 -41.5t79 -15t79 15t61.5 41t39.5 62t14 77zM825 732h-62l-572 -759h63zM458 538v1q0 42 -14 77.5t-39.5 62t-61.5 41.5t-79 15t-79 -15
t-61.5 -41.5t-39.5 -62t-14 -77.5t14 -77.5t39.5 -62t61.5 -41.5t79 -15t79 15t61.5 41t39.5 62t14 77zM895 166q0 -66 -38.5 -106.5t-102.5 -40.5h-1q-65 0 -103.5 40.5t-38.5 106.5t38.5 106.5t103.5 40.5t103.5 -40.5t38.5 -106.5zM406 538q0 -66 -38.5 -106.5
t-102.5 -40.5h-1q-65 0 -103.5 40.5t-38.5 106.5t38.5 106.5t103.5 40.5t103.5 -40.5t38.5 -106.5z" />
    <glyph glyph-name="ampersand" unicode="&#x26;" horiz-adv-x="935" 
d="M937 -16q-39 19 -69.5 34.5t-55.5 29t-47 26.5t-46 28q45 48 78 112.5t44 151.5h-50q-11 -77 -41.5 -135.5t-72.5 -101.5q-81 57 -151 115t-133 120q39 16 74 35t61.5 41.5t41.5 50t15 61.5q0 37 -16 63.5t-42 43t-60 24t-70 7.5q-34 0 -66 -8.5t-57 -25.5t-40 -43.5
t-15 -62.5q0 -25 7.5 -48.5t19.5 -45t27.5 -41t31.5 -36.5q-40 -15 -77.5 -35.5t-66 -46.5t-45.5 -59t-17 -75q0 -50 20 -86t57 -60t88 -35.5t113 -11.5q55 0 101 8.5t84 22.5t67 31t50 35q45 -28 79 -47t66 -36h113zM534 554q0 -24 -13 -45t-36 -40t-56 -36t-73 -34
q-39 42 -62 76.5t-23 74.5v1q0 37 31.5 63.5t99.5 26.5q59 0 95.5 -24t36.5 -63zM637 94q-57 -43 -122.5 -59.5t-134.5 -16.5q-13 0 -35 0.5t-47 5t-51.5 13t-47.5 24.5t-34.5 40.5t-13.5 59.5v1q0 52 44.5 96.5t146.5 83.5q68 -68 144.5 -132.5t150.5 -115.5z" />
    <glyph glyph-name="quotesingle" unicode="'" horiz-adv-x="230" 
d="M144 725h-58l8 -195h42z" />
    <glyph glyph-name="parenleft" unicode="(" horiz-adv-x="496" 
d="M423 757l-35 32q-26 -21 -47.5 -40t-39.5 -39.5t-34 -44.5t-32 -54q-38 -70 -54.5 -151.5t-16.5 -167.5q0 -85 16.5 -166t55.5 -155q14 -28 30 -51t34 -44t40 -40.5t48 -40.5l35 32q-50 39 -84 79t-60 91q-20 40 -32.5 81t-19.5 79.5t-9 73t-2 61.5t2.5 61.5t9 72.5
t18.5 78t31 79q26 54 61 94.5t85 79.5z" />
    <glyph glyph-name="parenright" unicode=")" horiz-adv-x="496" 
d="M332 292q0 86 -16.5 167.5t-54.5 151.5q-16 30 -32 54t-34 44.5t-39.5 39.5t-47.5 40l-35 -32q50 -39 85 -79.5t61 -94.5q19 -39 31 -79t18.5 -78t9 -72.5t2.5 -61.5t-2.5 -61.5t-9 -73t-19 -79.5t-32.5 -81q-26 -51 -60 -91t-84 -79l35 -32q26 21 48 40.5t40 40.5t34 44
t30 51q39 74 55.5 155t16.5 166z" />
    <glyph glyph-name="asterisk" unicode="*" horiz-adv-x="682" 
d="M544 434l-160 86l159 86l-26 46l-154 -95l4 182h-52l4 -182l-154 95l-26 -46l159 -86l-160 -86l26 -46l155 94l-4 -181h52l-4 181l155 -94z" />
    <glyph glyph-name="plus" unicode="+" horiz-adv-x="800" 
d="M672 229v48h-247v185h-50v-185h-247v-48h247v-201h50v201h247z" />
    <glyph glyph-name="comma" unicode="," horiz-adv-x="260" 
d="M171 96h-58l-37 -192h43z" />
    <glyph glyph-name="hyphen" unicode="-" horiz-adv-x="399" 
d="M314 311v50h-315v-50h315z" />
    <glyph glyph-name="period" unicode="." horiz-adv-x="260" 
d="M84 -16v112h-52v-112h52z" />
    <glyph glyph-name="slash" unicode="/" horiz-adv-x="724" 
d="M668 755h-60l-546 -783h61z" />
    <glyph glyph-name="zero" unicode="0" 
d="M793 347q0 87 -28 156t-77 117.5t-116 74.5t-146 26t-146 -26t-116 -74.5t-77 -117.5t-28 -155v-1q0 -87 28 -156.5t77 -118t116 -74.5t146 -26t146 26t116 74.5t77 118t28 156.5zM741 347q0 -80 -25 -140.5t-68 -101.5t-100.5 -62t-121.5 -21q-65 0 -122 21t-100 62
t-68 101.5t-25 140.5q0 81 25 142t68 102t100 61.5t121 20.5h1q64 0 121.5 -21t100.5 -62t68 -102t25 -141z" />
    <glyph glyph-name="one" unicode="1" horiz-adv-x="707" 
d="M419 -16v730h-25l-291 -115l22 -46l242 96v-665h52z" />
    <glyph glyph-name="two" unicode="2" 
d="M735 -16v52h-569q19 50 51.5 87.5t73 67t86 52.5t92.5 44q25 11 48.5 21.5t45.5 21.5q31 16 60 34.5t51.5 42.5t36.5 54.5t14 69.5q0 34 -16 68t-52.5 61t-97 44t-149.5 17q-119 0 -191.5 -43t-101.5 -134l55 -8q22 68 79 102t157 34q85 0 137 -15t80.5 -36.5t38 -46
t9.5 -43.5q0 -38 -18.5 -66t-51.5 -51q-36 -25 -79 -45q-22 -11 -45.5 -22t-48.5 -22q-49 -23 -99.5 -50t-95.5 -64.5t-79.5 -87.5t-52.5 -119l20 -20h612z" />
    <glyph glyph-name="three" unicode="3" 
d="M729 183q0 39 -18 74t-50.5 62t-77 43t-98.5 16v-16q45 0 82.5 17t65 42.5t42.5 55.5t15 57q0 40 -16.5 74t-49.5 59t-82.5 39.5t-116.5 14.5q-71 0 -120.5 -15t-82.5 -40t-51.5 -56.5t-25.5 -64.5l51 -11q6 24 19 48.5t39 44.5t67 32.5t104 12.5q61 0 102 -12
t65.5 -31.5t35 -44t10.5 -49.5q0 -18 -8 -41.5t-35.5 -45.5t-80.5 -38.5t-143 -20.5v-45q98 -4 158 -19t93 -37t44 -49.5t11 -55.5q0 -34 -14.5 -63.5t-44.5 -51.5t-76.5 -34.5t-110.5 -12.5q-66 0 -112 11.5t-77.5 32t-51.5 48.5t-33 62l-50 -16q16 -43 42.5 -77.5
t65.5 -59t92 -37.5t124 -13q72 0 127.5 15.5t93.5 43t57.5 66.5t19.5 86z" />
    <glyph glyph-name="four" unicode="4" 
d="M741 184v50h-161v480h-39l-444 -494v-36h431v-200h52v200h161zM534 634q-5 -42 -5.5 -87.5t-0.5 -93.5v-219h-350l209 234q37 42 73.5 83t73.5 83z" />
    <glyph glyph-name="five" unicode="5" 
d="M735 213q0 54 -23 99t-65 77t-100.5 49.5t-128.5 17.5q-59 0 -107.5 -13.5t-83.5 -32.5l51 246h405v52h-447l-75 -369l34 -14q32 33 87 57.5t135 24.5q63 0 112 -15t83.5 -41.5t52.5 -62t18 -76.5q0 -43 -21 -78.5t-58 -60.5t-86.5 -38.5t-106.5 -13.5q-59 0 -101.5 12
t-73 32.5t-52 48t-36.5 58.5l-50 -18q17 -38 43 -71t64 -58t89 -39t118 -14q79 0 139 20.5t101 54t62 77t21 89.5z" />
    <glyph glyph-name="six" unicode="6" 
d="M771 217q0 55 -24.5 99.5t-69.5 75.5t-107.5 47.5t-138.5 16.5q-108 0 -178.5 -31.5t-105.5 -78.5q10 159 83.5 242.5t220.5 83.5q99 0 156 -37t87 -101l49 18q-38 80 -107.5 124.5t-184.5 44.5q-98 0 -166 -32.5t-111 -89.5t-62 -135.5t-19 -171.5q0 -51 14.5 -107.5
t53.5 -103.5t107 -78t175 -31q96 0 159 25.5t100.5 62.5t53 79.5t15.5 77.5zM719 216q0 -30 -13 -64t-44.5 -63.5t-85 -48.5t-133.5 -19q-65 0 -112 13.5t-79 34t-51.5 45.5t-30 48.5t-14 42t-3.5 26.5v1q0 24 14 54.5t47 57t87.5 45t134.5 18.5q135 0 209 -52t74 -139z" />
    <glyph glyph-name="seven" unicode="7" 
d="M707 676v32h-573v-51h507l-343 -673h59z" />
    <glyph glyph-name="eight" unicode="8" 
d="M759 180q0 36 -13.5 66.5t-36.5 55t-54 42t-65 28.5q30 9 56 22.5t45.5 33t30.5 45.5t11 58q0 42 -21.5 77t-61 60t-96.5 39t-128 14t-128 -14t-96.5 -39t-61 -60t-21.5 -77q0 -31 11 -56t30.5 -45t45 -34.5t55.5 -23.5q-34 -11 -64.5 -29t-53.5 -42.5t-36.5 -54.5
t-13.5 -66q0 -51 25.5 -89.5t70.5 -64.5t106 -39.5t131 -13.5q75 0 136 14t105 40.5t68 65t24 87.5zM681 531q0 -27 -15 -51.5t-46 -43t-79 -30t-115 -11.5t-115.5 11t-79.5 30t-45.5 43.5t-14.5 50.5v1q0 27 15.5 52t47 45t79.5 32t113 12t113 -12t79.5 -32t47 -45
t15.5 -52zM707 179q0 -35 -19 -64t-55 -50t-88.5 -32.5t-118.5 -11.5t-118.5 11.5t-88.5 32.5t-55 49.5t-19 63.5v1q0 30 16 60.5t50 55t87.5 40t127.5 15.5t127.5 -15.5t87.5 -40t50 -55t16 -60.5z" />
    <glyph glyph-name="nine" unicode="9" 
d="M771 401q0 20 -3.5 51.5t-15 67t-34.5 71.5t-62 65t-97.5 47t-140.5 18q-92 0 -154.5 -23.5t-100.5 -58.5t-54 -77t-16 -79q0 -45 18 -89t58 -79t105 -56.5t159 -21.5q108 0 178.5 31.5t105.5 79.5q-5 -75 -23.5 -135t-55 -103t-92 -66t-133.5 -23q-51 0 -90 10.5t-69 30
t-53 46t-41 58.5l-49 -19q22 -39 50 -71t64.5 -55t82.5 -36t105 -13q100 0 168.5 33.5t110.5 91.5t60.5 136.5t18.5 167.5zM711 461q0 -28 -16 -59t-50 -56.5t-87.5 -42.5t-129.5 -17q-70 0 -123 14.5t-88.5 41t-53.5 62.5t-18 78q0 27 12 60t42.5 62t84 48.5t137.5 19.5
q65 0 112 -13.5t79 -34t51.5 -45.5t30 -48.5t14 -42t3.5 -26.5v-1z" />
    <glyph glyph-name="colon" unicode=":" horiz-adv-x="260" 
d="M156 391v112h-52v-112h52zM156 -16v112h-52v-112h52z" />
    <glyph glyph-name="semicolon" unicode=";" horiz-adv-x="260" 
d="M156 391v112h-52v-112h52zM171 96h-58l-37 -192h43z" />
    <glyph glyph-name="less" unicode="&#x3c;" horiz-adv-x="800" 
d="M632 8v53l-433 192l433 192v53l-504 -227v-36z" />
    <glyph glyph-name="equal" unicode="=" horiz-adv-x="800" 
d="M672 293v48h-544v-48h544zM672 165v48h-544v-48h544z" />
    <glyph glyph-name="greater" unicode="&#x3e;" horiz-adv-x="800" 
d="M672 235v36l-504 227v-53l433 -192l-433 -192v-53z" />
    <glyph glyph-name="question" unicode="?" horiz-adv-x="585" 
d="M584 552q0 52 -24 87t-63.5 55t-90.5 28.5t-105 8.5q-69 0 -120.5 -11.5t-89 -32.5t-63 -50.5t-42.5 -66.5l47 -21q14 30 35 55t52.5 42t74.5 26.5t102 9.5q50 0 93 -7t74.5 -22t49.5 -39.5t18 -59.5q0 -25 -6 -44.5t-19.5 -36.5t-36.5 -32.5t-57 -31.5
q-54 -26 -88.5 -50.5t-54 -55t-26.5 -69.5t-4 -94h46q-1 43 3.5 74.5t19.5 56.5t43.5 46.5t76.5 44.5q42 20 71 39.5t48 42t27.5 49t8.5 59.5zM291 -16v112h-52v-112h52z" />
    <glyph glyph-name="at" unicode="@" horiz-adv-x="996" 
d="M936 362q0 56 -25 107.5t-73 91t-118.5 63t-162.5 23.5q-102 0 -191 -29t-154.5 -83.5t-103.5 -132t-38 -174.5q0 -75 29.5 -139.5t83 -111t127 -73t161.5 -26.5q70 0 143 13.5t145 61.5l-35 34q-58 -35 -114.5 -47.5t-125.5 -12.5q-80 0 -146.5 22.5t-114.5 62.5
t-74.5 95.5t-26.5 120.5q0 96 38 164.5t101 116.5q62 46 137 67.5t161 21.5q46 0 83.5 -6t68 -16.5t54.5 -24t43 -28.5q43 -35 59.5 -78.5t16.5 -82.5q0 -32 -6.5 -64t-18.5 -61.5t-28 -55t-34 -42.5q-10 -9 -27 -9q-6 0 -12.5 0.5t-13.5 0.5v255v14l-2 -1q-2 18 -10 47
t-28 56.5t-55 47.5t-89 20q-28 0 -60 -2t-59.5 -5t-46 -5l-18.5 -2l5 -51l15 2.5t40 5.5t57 5.5t66 2.5q51 0 78.5 -21.5t39.5 -48.5t13.5 -51t1.5 -28v-9q-107 -9 -191.5 -23.5t-142.5 -39.5t-88.5 -64t-30.5 -98q0 -30 12.5 -59.5t41 -52.5t75.5 -37t116 -14q22 0 51.5 5
t61 16t63.5 29t58 45l11 11h20q5 1 11 1h12q13 0 27.5 3.5t28.5 14.5q25 21 45 53t34 68t21.5 72.5t7.5 68.5zM692 113l-4 -7q-24 -27 -52 -43t-56 -24.5t-53 -11.5t-41 -3q-62 0 -100 11.5t-59 28.5t-28.5 37.5t-7.5 37.5q0 42 23.5 71t72.5 49t125 33t180 22v-201z" />
    <glyph glyph-name="A" unicode="A" horiz-adv-x="691" 
d="M691 -16l-329 741h-34l-328 -741h58l110 247h353l111 -247h59zM499 282h-308l81 187l36 84t37 87q19 -46 38 -89t37 -86z" />
    <glyph glyph-name="B" unicode="B" horiz-adv-x="801" 
d="M742 194q0 75 -49.5 120t-134.5 63q72 22 105 64t33 100q0 42 -19.5 76t-62 58t-109 37t-159.5 13h-212v-741h208q41 0 87 2t90 9.5t84.5 21.5t71.5 37.5t49 57.5t18 82zM642 543q0 -25 -9 -50.5t-40 -46t-90 -33.5t-159 -13h-156v274h155q87 0 145 -11t92 -29t48 -41.5
t14 -49.5zM688 194q0 -51 -30 -82.5t-79 -48.5t-111 -22.5t-126 -5.5h-154v314h170q89 0 151.5 -11.5t102.5 -32t58 -49t18 -62.5z" />
    <glyph glyph-name="C" unicode="C" horiz-adv-x="844" 
d="M794 155l-44 30q-19 -26 -45.5 -55t-62 -53.5t-79.5 -40.5t-98 -16q-67 0 -129.5 20.5t-111 61.5t-77.5 104t-29 148q0 90 31 153.5t81 104t113 59t127 18.5q46 0 84 -11t69.5 -31t56.5 -47t45 -58l45 28q-23 37 -53 68t-67 53.5t-82 35t-98 12.5q-88 0 -162 -26.5
t-129 -77.5q-54 -51 -84.5 -121.5t-30.5 -158.5t31.5 -160t88.5 -126q45 -42 117.5 -70.5t163.5 -28.5q62 0 112 17t90.5 43.5t71.5 59.5t55 65z" />
    <glyph glyph-name="D" unicode="D" horiz-adv-x="861" 
d="M797 354q0 84 -26 152.5t-78 117t-131.5 75t-185.5 26.5h-242v-741h242q106 0 185.5 26.5t131.5 74.5t78 116.5t26 152.5zM743 354q0 -71 -21 -129.5t-65 -100.5t-113.5 -65.5t-165.5 -23.5h-190v639h190q96 0 165.5 -23.5t113.5 -65.5t65 -101t21 -130z" />
    <glyph glyph-name="E" unicode="E" horiz-adv-x="719" 
d="M645 -16v51h-457v310h360v51h-360v278h443v51h-497v-741h511z" />
    <glyph glyph-name="F" unicode="F" horiz-adv-x="700" 
d="M631 674v51h-497v-741h54v361h360v51h-360v278h443z" />
    <glyph glyph-name="G" unicode="G" horiz-adv-x="836" 
d="M760 584q-29 37 -59 66t-65 49t-78 30t-98 10q-42 0 -88 -9t-90 -28.5t-83.5 -50t-69.5 -73.5t-47.5 -98.5t-17.5 -125.5q0 -92 32.5 -163t87 -120.5t126.5 -75t150 -25.5q40 0 77 4.5t72.5 15t70.5 27.5t72 41v268h-343v-51h289v-190q-51 -32 -112 -48.5t-119 -16.5
q-72 0 -136 22t-111 64.5t-74.5 104.5t-27.5 143q0 63 15.5 112t42 86.5t61 63.5t73 42t78.5 23.5t76 7.5q44 0 79 -8t65 -24.5t56 -41.5t52 -59z" />
    <glyph glyph-name="H" unicode="H" horiz-adv-x="915" 
d="M781 -16v741h-54v-327h-539v327h-54v-741h54v363h539v-363h54z" />
    <glyph glyph-name="I" unicode="I" horiz-adv-x="342" 
d="M198 -16v741h-54v-741h54z" />
    <glyph glyph-name="J" unicode="J" horiz-adv-x="629" 
d="M500 321v404h-54v-403q0 -155 -58.5 -228t-161.5 -73q-64 0 -111.5 25t-94.5 71l-35 -39q25 -24 50.5 -44t54 -34.5t61.5 -22t74 -7.5q131 0 203 89.5t72 261.5z" />
    <glyph glyph-name="K" unicode="K" horiz-adv-x="744" 
d="M741 -16l-384 431l325 310h-76l-228 -218q-48 -46 -95 -91.5t-95 -91.5v173v228h-54v-741h54v269l132 127l349 -396h72z" />
    <glyph glyph-name="L" unicode="L" horiz-adv-x="689" 
d="M660 -16v51h-472v690h-54v-741h526z" />
    <glyph glyph-name="M" unicode="M" horiz-adv-x="1275" 
d="M1143 -16v741h-55q-165 -248 -277 -416t-172 -259q-60 91 -172 259t-277 416h-56v-741h54v395t-1 256q62 -94 168.5 -255t262.5 -396h40q155 233 262.5 394.5t169.5 256.5q-1 -96 -1 -256v-395h54z" />
    <glyph glyph-name="N" unicode="N" horiz-adv-x="904" 
d="M770 -16v741h-54v-402q0 -162 1 -256q-74 93 -206.5 256t-325.5 402h-51v-741h54v401t-1 257q75 -94 207 -257t325 -401h51z" />
    <glyph glyph-name="O" unicode="O" horiz-adv-x="940" 
d="M876 354q0 97 -34 169.5t-90.5 120.5t-130 71.5t-151.5 23.5t-151.5 -23.5t-130 -71.5t-90.5 -120t-34 -169v-1q0 -97 34 -169t90.5 -120t130 -71.5t151.5 -23.5t151.5 23.5t130 71.5t90.5 120t34 169zM822 355q0 -85 -29 -148t-77.5 -104t-112.5 -61.5t-133 -20.5
t-133 20.5t-112.5 61.5t-77.5 104t-29 148t29 148.5t77.5 104.5t112 61.5t132.5 20.5h1q69 0 133 -20.5t112.5 -61.5t77.5 -104.5t29 -148.5z" />
    <glyph glyph-name="P" unicode="P" horiz-adv-x="811" 
d="M766 503q0 51 -22 92.5t-69 70t-120 44t-174 15.5h-247v-741h54v292h173q106 0 182.5 15t126 44.5t73 71.5t23.5 96zM712 503q0 -37 -16 -69t-56.5 -56t-108.5 -37.5t-172 -13.5h-171v347h201q94 0 156.5 -14.5t99.5 -38t52 -54.5t15 -64z" />
    <glyph glyph-name="Q" unicode="Q" horiz-adv-x="940" 
d="M876 354q0 97 -34 169.5t-90.5 120.5t-130 71.5t-151.5 23.5t-151.5 -23.5t-130 -71.5t-90.5 -120t-34 -169v-1q0 -97 34 -169t90.5 -120t130 -71.5t151.5 -23.5q17 0 33 1t32 3q14 -15 34 -33.5t48 -37.5q24 -17 55.5 -25t63 -10t59.5 0.5t46 7.5l-25 45
q-13 -3 -35.5 -3.5t-47 2t-49 8.5t-41.5 18q-21 14 -49 39q59 15 110.5 46t89.5 77t60 107.5t22 138.5zM822 355q0 -72 -21 -128t-57.5 -96.5t-85.5 -66t-104 -35.5l-32 37q-14 16 -41.5 41t-62.5 42q-30 14 -65 18.5t-68 3.5t-62 -6t-47 -9q-27 38 -42.5 87t-15.5 112
q0 85 29 148.5t77.5 104.5t112 61.5t132.5 20.5h1q69 0 133 -20.5t112.5 -61.5t77.5 -104.5t29 -148.5zM493 22q-5 -1 -11 -1h-12q-73 0 -139 22.5t-116 67.5q19 4 42 7t47 3t47.5 -3.5t43.5 -13.5q18 -9 30.5 -17.5t23.5 -18t21.5 -21t22.5 -25.5z" />
    <glyph glyph-name="R" unicode="R" horiz-adv-x="809" 
d="M831 -16l-324 312q53 6 99 24t80 46.5t53.5 65.5t19.5 82q0 100 -87.5 155.5t-278.5 55.5h-254v-741h54v308h246l317 -308h75zM705 514q0 -32 -16 -62.5t-47.5 -54.5t-79 -39t-110.5 -15h-259v331h192q103 0 165.5 -14t97 -37t46 -51.5t11.5 -57.5z" />
    <glyph glyph-name="S" unicode="S" horiz-adv-x="790" 
d="M728 193q0 53 -25.5 88.5t-56.5 55.5q-19 12 -40 21.5t-48.5 17.5t-62.5 16.5t-81 18.5q-53 12 -89.5 20t-62 15t-42.5 12.5t-31 12.5q-26 13 -41.5 35.5t-15.5 52.5q0 59 61 93q33 19 86.5 28t114.5 9q55 0 96 -7t71 -20t50.5 -32t34.5 -43l47 25q-18 31 -44 55t-62 40
t-83.5 24t-109.5 8q-70 0 -127 -10t-100 -33q-48 -24 -68.5 -60.5t-20.5 -73.5q0 -52 24 -84.5t54 -48.5q13 -7 28.5 -13.5t39.5 -13.5t61 -16t95 -22q55 -12 92.5 -21t63 -16.5t42 -14t29.5 -13.5q24 -14 45.5 -39t21.5 -69q0 -33 -18 -62.5t-50 -50.5q-39 -26 -92.5 -42
t-123.5 -16q-112 0 -184 30t-112 81l-42 -35q52 -60 131.5 -93t205.5 -33q75 0 138 17.5t108 48.5q44 29 68.5 69t24.5 88z" />
    <glyph glyph-name="T" unicode="T" horiz-adv-x="686" 
d="M668 674v51h-638v-51h292v-690h54v690h292z" />
    <glyph glyph-name="U" unicode="U" horiz-adv-x="833" 
d="M709 287v438h-54v-436q0 -74 -10.5 -125.5t-37.5 -83.5t-73.5 -46t-118.5 -14q-70 0 -115.5 14t-72.5 46t-38 83.5t-11 125.5v436h-54v-438q0 -90 17 -151t52.5 -98t90.5 -52.5t131 -15.5q77 0 132.5 15.5t91.5 52.5t53 98t17 151z" />
    <glyph glyph-name="V" unicode="V" horiz-adv-x="753" 
d="M743 725h-57l-165 -354q-36 -79 -71 -155t-71 -157q-35 80 -70.5 157t-71.5 155l-165 354h-57l344 -741h40z" />
    <glyph glyph-name="W" unicode="W" horiz-adv-x="1210" 
d="M1198 725h-56l-138 -351q-29 -76 -58.5 -152.5t-59.5 -157.5q-29 81 -59 157.5t-60 152.5l-138 351h-43l-138 -352q-29 -76 -59 -152t-60 -157q-29 80 -58.5 156.5t-59.5 152.5l-138 352h-56l291 -741h42l138 352q30 77 60 153.5t59 154.5q30 -79 60 -155.5t60 -153.5
l138 -351h42z" />
    <glyph glyph-name="X" unicode="X" horiz-adv-x="806" 
d="M767 -16l-331 385l306 356h-69l-270 -317l-270 317h-69l306 -356l-331 -385h68l296 347l296 -347h68z" />
    <glyph glyph-name="Y" unicode="Y" horiz-adv-x="700" 
d="M697 725h-65l-149 -198q-33 -45 -66 -89t-67 -89q-33 45 -66.5 88.5t-66.5 88.5l-149 199h-65l320 -425v-316h54v316z" />
    <glyph glyph-name="Z" unicode="Z" horiz-adv-x="695" 
d="M637 -16v51h-494l476 650v40h-515v-51h443l-477 -650v-40h567z" />
    <glyph glyph-name="bracketleft" unicode="[" horiz-adv-x="479" 
d="M373 -172v49h-134v829h134v49h-186v-927h186z" />
    <glyph glyph-name="backslash" unicode="\" horiz-adv-x="724" 
d="M663 -28l-546 783h-60l545 -783h61z" />
    <glyph glyph-name="bracketright" unicode="]" horiz-adv-x="479" 
d="M292 -172v927h-186v-49h134v-829h-134v-49h186z" />
    <glyph glyph-name="asciicircum" unicode="^" horiz-adv-x="800" 
d="M648 301l-230 420h-34l-230 -420h55l192 354l192 -354h55z" />
    <glyph glyph-name="underscore" unicode="_" horiz-adv-x="800" 
d="M816 -298v62h-832v-62h832z" />
    <glyph glyph-name="grave" unicode="`" horiz-adv-x="500" 
d="M317 556l-178 145h-93l204 -145h67z" />
    <glyph glyph-name="a" unicode="a" horiz-adv-x="653" 
d="M606 -16l-30 34q-8 9 -12.5 15.5t-6.5 14.5t-2.5 19t-0.5 29v280q0 91 -55 137.5t-179 46.5q-28 0 -52.5 -2.5t-42.5 -5t-28.5 -5l-10.5 -2.5l5 -51l30.5 8.5t97.5 8.5q54 0 89 -8.5t56 -26t29.5 -44t8.5 -61.5v-11q-107 -9 -191.5 -23.5t-142.5 -39.5t-88.5 -64
t-30.5 -98q0 -30 12.5 -59.5t41 -52.5t75.5 -37t116 -14q19 0 45.5 3t55 11.5t57.5 22.5t54 36q6 -28 34 -61h66zM502 108q-24 -29 -52.5 -46t-57 -26t-54 -12t-42.5 -3q-62 0 -100 11.5t-59 28.5t-28.5 37.5t-7.5 37.5q0 42 23.5 71t72.5 49t125 33t180 22v-203z" />
    <glyph glyph-name="b" unicode="b" horiz-adv-x="734" 
d="M680 266q0 63 -21.5 116.5t-61 93t-95.5 62t-125 22.5q-60 0 -116.5 -18t-104.5 -59v260h-52v-759h52l-1 67l9 -6q10 -8 22 -16.5t26 -16.5q30 -17 69.5 -28.5t93.5 -11.5q76 0 133 25t95.5 66t57.5 94t19 109zM628 266q0 -48 -16.5 -92.5t-48 -78.5t-79 -54t-108.5 -20
q-49 0 -85.5 11.5t-63.5 27.5q-14 8 -25 16t-21 16q-8 6 -14 11.5t-11 10.5v304q51 52 105.5 72.5t114.5 20.5t107 -19t79.5 -52.5t49 -78t16.5 -95.5z" />
    <glyph glyph-name="c" unicode="c" horiz-adv-x="673" 
d="M636 115l-47 24q-16 -26 -36 -47.5t-46 -37t-60.5 -24.5t-79.5 -9q-50 0 -96.5 14t-83.5 44t-59 76t-22 111q0 62 22.5 108t59 76.5t83.5 45.5t96 15q40 0 70.5 -6.5t55.5 -19t45 -31.5t38 -43l45 26q-23 30 -48.5 53t-56 38.5t-67 23.5t-82.5 8q-58 0 -114 -17.5
t-100.5 -54t-71.5 -92t-27 -130.5q0 -77 26.5 -132.5t70 -91.5t100 -53t116.5 -17q54 0 96 11t74 30.5t56 45.5t43 56z" />
    <glyph glyph-name="d" unicode="d" horiz-adv-x="734" 
d="M630 -16v759h-52v-260q-48 41 -104.5 59t-116.5 18q-69 0 -125 -22.5t-95.5 -62t-61 -93t-21.5 -116.5q0 -56 19 -109t57.5 -94t95.5 -66t133 -25q56 0 97.5 13t70.5 30q32 19 48 34l6 4q-1 -13 -2 -30t-1 -27v-12h52zM578 114q-6 -5 -13.5 -11.5t-15.5 -13.5
q-10 -8 -21 -16t-25 -16q-27 -15 -62 -25.5t-82 -10.5h-1q-62 0 -109 20t-78.5 54t-48 78.5t-16.5 92.5q0 51 16.5 95.5t49 78t79.5 52.5t107 19t114.5 -20.5t105.5 -72.5v-304z" />
    <glyph glyph-name="e" unicode="e" horiz-adv-x="682" 
d="M641 253q0 75 -21 128t-56 90q-42 44 -95 66.5t-112 22.5q-67 0 -119.5 -20t-93.5 -55q-43 -38 -66.5 -91.5t-23.5 -120.5q0 -75 22.5 -129t61.5 -92q45 -42 102 -61t117 -19q40 0 89 8.5t91.5 19t71 19l28.5 8.5l-3 47q-8 -2 -36.5 -10.5t-68.5 -18t-86 -17t-88 -7.5
q-41 0 -83.5 12t-78.5 39t-60 71.5t-27 109.5h535zM586 303h-479q3 42 22 80t52 66.5t77.5 45t98.5 16.5q48 0 88 -17t70 -46t48 -66.5t23 -78.5z" />
    <glyph glyph-name="f" unicode="f" horiz-adv-x="589" 
d="M655 723q-29 23 -50.5 35t-42.5 20q-32 12 -67 16.5t-74 4.5q-51 0 -93.5 -9t-74.5 -29q-42 -25 -63.5 -65.5t-21.5 -92.5v-55h-131v-50h131v-764h52v764h324v50h-324v54q0 44 17 72.5t45 45.5t63 23.5t76 6.5q35 0 66.5 -5t57.5 -14q23 -8 41.5 -19.5t38.5 -34.5z" />
    <glyph glyph-name="g" unicode="g" horiz-adv-x="730" 
d="M631 16v532h-52l1 -61q-44 36 -95.5 54.5t-118.5 18.5q-61 0 -107.5 -14t-81.5 -37.5t-58.5 -54t-38 -63.5t-20.5 -66.5t-6 -62.5q0 -73 27 -127.5t70 -90.5t97 -54t109 -18q40 0 73.5 6.5t60.5 17.5t48.5 25t39.5 28v-33q0 -66 -13.5 -106.5t-40.5 -70.5
q-16 -18 -37 -31t-43.5 -21t-46 -11.5t-44.5 -3.5q-41 0 -75 7t-60 18q-35 16 -59.5 35t-46.5 45l-40 -35q35 -36 65.5 -57.5t59.5 -33.5q35 -15 73.5 -21.5t83.5 -6.5q64 0 118 21.5t90 60.5q37 41 52.5 92t15.5 119zM579 113q-17 -17 -38 -33.5t-47.5 -29.5t-59.5 -21
t-74 -8q-52 0 -98 16t-80.5 47t-55 76.5t-20.5 104.5v1q0 31 11 73t40 80.5t80 65t131 26.5q75 0 125.5 -24.5t85.5 -66.5v-307z" />
    <glyph glyph-name="h" unicode="h" horiz-adv-x="721" 
d="M629 -16v391q0 45 -11.5 76t-35.5 55q-52 54 -154 54q-35 0 -70.5 -6.5t-72.5 -21.5q-31 -12 -61.5 -29t-60.5 -38v278h-52v-759h52v421q13 10 30 22t35.5 23.5t37 20.5t34.5 15q68 25 126 25q47 0 75 -11.5t44 -27.5q20 -20 26 -44.5t6 -53.5v-390h52z" />
    <glyph glyph-name="i" unicode="i" horiz-adv-x="280" 
d="M173 631v112h-52v-112h52zM173 -16v564h-52v-564h52z" />
    <glyph glyph-name="j" unicode="j" horiz-adv-x="280" 
d="M166 631v112h-52v-112h52zM166 -45v593h-52v-594q0 -52 -8.5 -79.5t-25.5 -46.5q-15 -17 -34 -28t-40 -17t-42 -8.5t-40 -2.5q-22 0 -38 2t-30 5q-13 2 -22 5.5t-17 6.5q-13 4 -23.5 9t-21.5 11.5t-22.5 15t-26.5 20.5l-31 -42q33 -26 58 -39.5t50 -22.5q26 -10 55 -15
t64 -5q133 0 198 71q25 28 37 64.5t12 96.5z" />
    <glyph glyph-name="k" unicode="k" horiz-adv-x="633" 
d="M649 -16l-356 330l297 234h-82l-191 -150l-80 -64t-81 -64v115v358h-52v-759h52v224l95 73l323 -297h75z" />
    <glyph glyph-name="l" unicode="l" horiz-adv-x="280" 
d="M175 -16v759h-52v-759h52z" />
    <glyph glyph-name="m" unicode="m" horiz-adv-x="1045" 
d="M946 -16v416q0 33 -9.5 61.5t-29.5 50.5q-22 23 -54 35.5t-77 12.5q-53 0 -116 -24q-28 -11 -57 -29.5t-61 -42.5q-5 15 -15.5 31.5t-26.5 28.5q-22 17 -51.5 26.5t-66.5 9.5q-26 0 -53.5 -5t-58.5 -18q-26 -11 -54.5 -27.5t-60.5 -40.5l1 79h-52v-564h52v425
q63 53 121 78q31 14 57 19t48 5q56 0 88 -27q16 -14 22.5 -32t6.5 -44v-424h52v426q35 29 65.5 48t58.5 30q29 13 53.5 18t46.5 5q38 0 60 -9.5t34 -23.5q16 -17 20.5 -38.5t4.5 -44.5v-411h52z" />
    <glyph glyph-name="n" unicode="n" horiz-adv-x="721" 
d="M622 -16v391q0 45 -11.5 76t-34.5 55q-52 54 -155 54q-35 0 -70 -6.5t-73 -21.5q-61 -25 -125 -69q1 14 1.5 35t1 34.5t0.5 15.5h-52v-564h52v421q13 10 30 22t36 23.5t37.5 20.5t33.5 15q68 25 126 25q48 0 75.5 -11.5t44.5 -27.5q19 -20 25 -44.5t6 -53.5v-390h52z" />
    <glyph glyph-name="o" unicode="o" horiz-adv-x="739" 
d="M685 265v1q0 70 -25 125t-67.5 92.5t-100 57t-122.5 19.5q-66 0 -123.5 -19.5t-100 -57t-67.5 -92.5t-25 -125q0 -59 19.5 -112t59 -93.5t98.5 -64.5t139 -24q82 0 141.5 25t98 66t57 93.5t18.5 108.5zM633 265q0 -48 -16 -92.5t-48.5 -78t-82 -54t-115.5 -20.5h-1
q-68 0 -117.5 20.5t-82 54t-48.5 78t-16 92.5q0 57 20 102.5t55.5 77t83.5 48.5t105 17q56 0 104 -16.5t83.5 -48t55.5 -77t20 -103.5z" />
    <glyph glyph-name="p" unicode="p" horiz-adv-x="734" 
d="M680 268q0 63 -20.5 113t-55.5 88q-87 91 -227 91q-42 0 -77 -7t-66 -21q-24 -11 -43.5 -23.5t-35.5 -25.5l1 65h-52v-812h52v314q20 -16 42.5 -29.5t42.5 -22.5q42 -18 76.5 -22t59.5 -4q75 0 132 25.5t93 63.5q42 46 60 99.5t18 107.5zM628 268q0 -57 -17.5 -99.5
t-46.5 -72.5q-37 -40 -85 -57.5t-102 -17.5q-37 0 -66.5 6t-52.5 17q-21 9 -46.5 25t-55.5 45v305q45 45 99 68q31 14 61 19t61 5q63 0 109.5 -20.5t78.5 -54.5t47.5 -77t15.5 -91z" />
    <glyph glyph-name="q" unicode="q" horiz-adv-x="734" 
d="M630 -264v812h-52l1 -65q-16 13 -35.5 25.5t-43.5 23.5q-31 14 -66 21t-77 7q-140 0 -227 -91q-35 -38 -55.5 -88t-20.5 -113q0 -54 18 -107.5t60 -99.5q36 -38 93 -63.5t132 -25.5q25 0 59.5 4t76.5 22q20 9 42.5 22.5t42.5 29.5v-314h52zM578 114q-30 -29 -55.5 -45
t-46.5 -25q-23 -11 -52.5 -17t-66.5 -6q-53 0 -101.5 18t-86.5 57q-28 29 -45.5 72t-17.5 100q0 48 15.5 91t47.5 77q32 35 78.5 55t109.5 20q31 0 61 -5t61 -19q54 -23 99 -68v-305z" />
    <glyph glyph-name="r" unicode="r" horiz-adv-x="562" 
d="M537 495q-22 19 -35.5 29.5t-30.5 18.5q-23 10 -46.5 13.5t-46.5 3.5q-38 0 -70.5 -8.5t-63.5 -22.5q-24 -11 -45.5 -24.5t-43.5 -29.5l1 73h-52v-564h52v431q26 21 53.5 39t56.5 31q32 15 60 20.5t52 5.5q23 0 40 -3.5t31 -9.5q11 -6 22.5 -15t30.5 -29z" />
    <glyph glyph-name="s" unicode="s" horiz-adv-x="652" 
d="M608 147q0 30 -12.5 57.5t-35.5 45.5q-15 13 -33.5 22t-44 16.5t-60.5 14t-83 14.5q-53 8 -86 14t-54 11.5t-34 11.5t-24 15q-16 12 -21.5 24.5t-5.5 26.5q0 21 11 36t34 27q32 16 76 21.5t92 5.5q88 0 140.5 -23.5t79.5 -63.5l40 35q-24 30 -46.5 47t-48.5 28
q-38 17 -79.5 22t-85.5 5q-59 0 -107 -7.5t-83 -23.5q-35 -17 -55 -44t-20 -65q0 -30 13 -53t39 -42q15 -11 32 -19t41 -14t57.5 -12t82.5 -13q50 -8 83 -14t55.5 -12t36.5 -13.5t25 -16.5q15 -14 22 -32t7 -35q0 -49 -48 -80q-34 -22 -81 -32t-96 -10q-93 0 -157 25t-99 64
l-38 -38q31 -28 58.5 -46t63.5 -29q38 -12 81.5 -19t94.5 -7q132 0 204 52q35 25 52 53t17 70z" />
    <glyph glyph-name="t" unicode="t" horiz-adv-x="676" 
d="M674 38l-23 46q-39 -21 -91 -42t-112 -21q-38 0 -76 6.5t-68 23.5t-48.5 48t-18.5 81v318h371v50h-371v162h-52v-162h-166v-50h166v-318q0 -68 26.5 -109t66 -63t85 -29t83.5 -7q71 0 129.5 21.5t98.5 44.5z" />
    <glyph glyph-name="u" unicode="u" horiz-adv-x="721" 
d="M617 -16v564h-52v-421q-37 -28 -73 -48t-64 -31q-33 -14 -65 -20.5t-61 -6.5q-49 0 -77 12.5t-42 26.5q-20 19 -26 43.5t-6 54.5v390h-52v-391q0 -45 11.5 -76t34.5 -55q52 -54 155 -54q67 0 143 29q32 13 61.5 30t63.5 40q-1 -11 -1.5 -26t-1 -28.5t-0.5 -22.5v-10h52z
" />
    <glyph glyph-name="v" unicode="v" horiz-adv-x="668" 
d="M660 548h-58l-142 -266q-32 -59 -63 -117t-63 -118q-31 57 -62 115t-63 118l-142 268h-59l306 -564h39z" />
    <glyph glyph-name="w" unicode="w" horiz-adv-x="1244" 
d="M1236 548h-58l-142 -264q-32 -59 -63 -117t-63 -118q-32 59 -63.5 116.5t-63.5 117.5l-144 265h-37q-69 -128 -135.5 -251t-132.5 -248q-32 60 -63.5 118t-63.5 118l-141 263h-58l305 -564h41l143 265q32 58 62 114.5t61 115.5q32 -59 63 -116t63 -116l143 -263h42z" />
    <glyph glyph-name="x" unicode="x" horiz-adv-x="627" 
d="M581 -16v23l-234 270l212 248v23h-46l-200 -233l-199 233h-47v-23l214 -248l-235 -270v-23h47l220 256l221 -256h47z" />
    <glyph glyph-name="y" unicode="y" horiz-adv-x="661" 
d="M650 548h-56l-109 -255q-24 -56 -48.5 -114t-49.5 -117q-77 122 -153 243t-152 243h-61l341 -541l-49 -111q-21 -50 -54 -81q-43 -43 -119 -43q-20 0 -36 2.5t-30 6.5q-15 5 -29 12.5t-32 18.5l-27 -45q23 -13 38 -20.5t34 -12.5q17 -5 36.5 -8t45.5 -3q53 0 90 16t63 39
q26 24 42 51t26 50z" />
    <glyph glyph-name="z" unicode="z" horiz-adv-x="604" 
d="M584 -16v50h-460l444 472v42h-500v-50h424l-445 -472v-42h537z" />
    <glyph glyph-name="braceleft" unicode="{" horiz-adv-x="464" 
d="M383 -173v48q-42 2 -66 9.5t-39 21.5q-12 11 -19.5 32t-7.5 60v157q0 42 -9.5 69t-26.5 47q-12 12 -27 21q14 7 27 20q17 20 26.5 47t9.5 69v157q0 38 8 59.5t20 33.5q11 11 36.5 19.5t67.5 10.5v48q-51 -3 -85 -13t-57 -33q-42 -42 -42 -127v-144q0 -44 -7 -63t-18 -32
q-11 -12 -28.5 -18.5t-55.5 -11.5v-45q38 -5 55.5 -11.5t28.5 -18.5q11 -13 18 -32t7 -63v-144q0 -85 42 -127q23 -23 57 -33t85 -13z" />
    <glyph glyph-name="bar" unicode="|" horiz-adv-x="593" 
d="M322 -266v1032h-50v-1032h50z" />
    <glyph glyph-name="braceright" unicode="}" horiz-adv-x="464" 
d="M374 269v45q-38 5 -55.5 11.5t-28.5 18.5q-11 13 -18 32t-7 63v144q0 85 -42 127q-23 23 -57 33t-85 13v-48q42 -2 67.5 -10.5t36.5 -19.5q12 -12 20 -33.5t8 -59.5v-157q0 -42 9.5 -69t26.5 -47q12 -12 27 -21q-14 -7 -27 -20q-17 -20 -26.5 -47t-9.5 -69v-157
q0 -39 -7.5 -60t-19.5 -32q-15 -14 -39 -21.5t-66 -9.5v-48q51 3 85 13t57 33q42 42 42 127v144q0 44 7 63t18 32q11 12 28.5 18.5t55.5 11.5z" />
    <glyph glyph-name="asciitilde" unicode="~" horiz-adv-x="800" 
d="M697 281l-46 24q-18 -19 -41 -31t-66 -12q-22 0 -47 3t-57 11l-64 17q-21 6 -51.5 11.5t-70.5 5.5q-58 0 -92 -20t-59 -49l46 -24q18 19 41 31t66 12q22 0 47 -3t57 -11l64 -17q21 -6 51.5 -11.5t70.5 -5.5q58 0 92 20t59 49z" />
    <glyph glyph-name="exclamdown" unicode="&#xa1;" horiz-adv-x="320" 
d="M186 391v112h-52v-112h52zM186 -238l-3 585h-46l-3 -585h52z" />
    <glyph glyph-name="cent" unicode="&#xa2;" 
d="M699 185l-43 29q-38 -53 -90 -81t-124 -31v491q66 -4 119 -31.5t83 -66.5l43 30q-94 109 -245 116v67h-50v-68q-65 -6 -116.5 -29.5t-88 -62t-56 -89.5t-19.5 -111q0 -64 20 -116t57 -89.5t88.5 -60.5t114.5 -28v-70h50v69q87 3 148 36t109 96zM392 105q-51 6 -93 24
t-72 49t-46.5 73.5t-16.5 96.5q0 100 60 164.5t168 77.5v-485z" />
    <glyph glyph-name="sterling" unicode="&#xa3;" 
d="M769 42l-36 33q-18 -14 -35 -23t-37 -14.5t-44.5 -8t-55.5 -2.5q-41 0 -72 3.5t-61 7.5t-62 7.5t-73 3.5h-15q-6 0 -12 -1q29 29 43.5 65t14.5 82q0 39 -7 72t-18 62h265v49h-284q-14 35 -25 67.5t-11 70.5q0 34 11 62.5t34.5 48.5t61 31t91.5 11q65 0 108 -19.5
t74 -64.5l43 25q-42 62 -99 85t-128 23q-62 0 -108.5 -15t-77 -41t-45.5 -63t-15 -80q0 -39 8.5 -72.5t22.5 -68.5h-114v-49h133q12 -31 21 -63t9 -71q0 -57 -32 -98.5t-96 -73.5l22 -42q16 6 30 9.5t28.5 6t30.5 3t36 0.5q36 0 69.5 -3.5t66 -7.5t65 -7.5t67.5 -3.5
q81 0 128 16.5t80 47.5z" />
    <glyph glyph-name="yen" unicode="&#xa5;" horiz-adv-x="846" 
d="M756 708h-65l-143 -190l-62 -84t-63 -87q-31 44 -62.5 86t-63.5 85l-142 190h-65l306 -407h-276v-49h277v-69h-277v-49h277v-150h52v150h275v49h-275v69h275v49h-274z" />
    <glyph glyph-name="brokenbar" unicode="&#xa6;" horiz-adv-x="593" 
d="M322 309v382h-50v-382h50zM322 -191v382h-50v-382h50z" />
    <glyph glyph-name="section" unicode="&#xa7;" horiz-adv-x="778" 
d="M697 267q0 49 -20.5 80.5t-55.5 52t-83.5 34t-103.5 26.5q-58 13 -107 25.5t-70 22.5q-30 14 -43 32t-13 45q0 31 19.5 51.5t50 32.5t68.5 16.5t75 4.5q31 0 61.5 -4t57 -14.5t47 -29t32.5 -46.5l47 24q-17 36 -44 59t-60 36.5t-69.5 18.5t-72.5 5q-51 0 -98.5 -7
t-86.5 -27q-31 -15 -55 -44.5t-24 -74.5q0 -26 9.5 -51.5t31.5 -45.5q-14 -7 -28.5 -17t-27.5 -25t-21 -35t-8 -45q0 -42 20 -69.5t54.5 -46t82 -31t101.5 -23.5q29 -6 58.5 -12.5t55.5 -14.5t47.5 -17t35.5 -20q21 -16 31 -32.5t10 -43.5q0 -31 -16 -57t-44 -45
q-32 -22 -72.5 -32t-88.5 -10q-47 0 -83 7t-63.5 20t-48 29.5t-36.5 36.5l-42 -31q15 -18 37.5 -38t55 -36t77 -26.5t103.5 -10.5q54 0 104 12t93 44q32 23 54 56.5t22 77.5q0 32 -9 53t-20 35q32 24 52.5 57t20.5 68zM645 269q0 -27 -15.5 -52.5t-39.5 -42.5
q-23 17 -53 28.5t-62 19.5q-36 10 -74 17.5t-75 15.5q-39 9 -70 18.5t-53 22.5t-34 29t-12 38v1q0 68 84 95q39 -14 77.5 -24.5t75 -18.5t70 -15.5t62.5 -16.5q58 -17 88.5 -42.5t30.5 -72.5z" />
    <glyph glyph-name="dieresis" unicode="&#xa8;" horiz-adv-x="500" 
d="M389 596v109h-50v-109h50zM161 596v109h-50v-109h50z" />
    <glyph glyph-name="copyright" unicode="&#xa9;" horiz-adv-x="1008" 
d="M887 355q0 79 -30 149t-82 122.5t-122 82.5t-149 30h-1q-80 0 -149.5 -30t-122 -82.5t-82.5 -122.5t-30 -149q0 -80 30 -150t82.5 -122.5t122 -82.5t149.5 -30q79 0 149 30t122.5 82.5t82.5 122.5t30 150zM838 355q0 -69 -26.5 -130.5t-71.5 -107t-106 -72t-130 -26.5
t-130 26.5t-106 72t-71.5 107t-26.5 130.5t26.5 130t71.5 106.5t105.5 72t129.5 26.5h1q69 0 130 -26.5t106 -72t71.5 -106.5t26.5 -130zM691 183l-34 37q-32 -37 -66 -49q-14 -6 -32 -10t-42 -4q-34 0 -67.5 11t-62.5 42q-30 31 -41 68t-11 79q0 55 15 89t35 54
q29 29 62.5 42t69.5 13q12 0 20.5 -0.5t16 -2t14.5 -3.5t17 -5q12 -5 28 -14.5t36 -28.5l34 37q-26 23 -42 33t-36 18q-21 8 -42 11.5t-44 3.5q-51 0 -93 -18t-75 -49q-34 -32 -51 -78.5t-17 -101.5q0 -115 68 -181q32 -32 74.5 -50t93.5 -18q25 0 50 5t40 12
q20 9 39.5 21.5t42.5 36.5z" />
    <glyph glyph-name="ordfeminine" unicode="&#xaa;" horiz-adv-x="455" 
d="M402 368q-4 10 -8 16.5t-7 12.5t-5 12.5t-2 16.5v142v27t-1 26q-2 13 -5 26t-11 25q-15 24 -46 36.5t-85 12.5q-51 0 -84.5 -13.5t-46.5 -25.5t-14 -14l10 -34l9.5 6t27.5 13.5t43.5 13.5t57.5 6q40 0 58.5 -8.5t26.5 -18.5q7 -10 8.5 -21t1.5 -22q-68 -6 -118.5 -15.5
t-83.5 -26t-49.5 -40.5t-16.5 -59q0 -33 16.5 -53t39.5 -30.5t49 -14t44 -3.5q28 0 62 8.5t63 28.5q3 -8 3 -15t10 -15h53zM330 453q-52 -44 -126 -44q-16 0 -32.5 2.5t-29.5 9t-21.5 17t-8.5 26.5t9.5 30.5t34.5 26t67 20.5t107 14v-102z" />
    <glyph glyph-name="guillemotleft" unicode="&#xab;" horiz-adv-x="546" 
d="M457 23v67l-159 159l159 159v67l-226 -218v-16zM293 23v67l-159 159l159 159v67l-226 -218v-16z" />
    <glyph glyph-name="logicalnot" unicode="&#xac;" horiz-adv-x="800" 
d="M672 143v198h-544v-48h494v-150h50z" />
    <glyph glyph-name="registered" unicode="&#xae;" horiz-adv-x="1008" 
d="M888 355q0 79 -30 149t-82 122.5t-122 82.5t-149 30h-1q-80 0 -149.5 -30t-122 -82.5t-82.5 -122.5t-30 -149q0 -80 30 -150t82.5 -122.5t122 -82.5t149.5 -30q79 0 149 30t122.5 82.5t82.5 122.5t30 150zM839 355q0 -69 -26.5 -130.5t-71.5 -107t-106 -72t-130 -26.5
t-130 26.5t-106 72t-71.5 107t-26.5 130.5t26.5 130t71.5 106.5t105.5 72t129.5 26.5h1q69 0 130 -26.5t106 -72t71.5 -106.5t26.5 -130zM750 110l-186 216q18 4 38 13.5t37.5 26t29 41t11.5 59.5q0 28 -10 54t-36 46q-25 19 -65 30t-99 11h-110v-497h52v211h90l181 -211h67
zM628 462q0 -38 -29.5 -65t-92.5 -27h-94v188h58q75 0 116.5 -20.5t41.5 -75.5z" />
    <glyph glyph-name="macron" unicode="&#xaf;" horiz-adv-x="500" 
d="M396 624v50h-292v-50h292z" />
    <glyph glyph-name="degree" unicode="&#xb0;" horiz-adv-x="506" 
d="M392 582q0 29 -11 54.5t-29.5 44t-44 29.5t-53.5 11h-1q-29 0 -54.5 -11t-44 -29.5t-29.5 -44t-11 -54.5t11 -54.5t29.5 -44t44 -29.5t54.5 -11t54.5 11t44 29.5t29.5 44t11 54.5zM341 582q0 -36 -25.5 -61.5t-61.5 -25.5t-61.5 25.5t-25.5 61.5q0 18 7 34t18.5 27.5
t27 18.5t33.5 7h1q36 0 61.5 -25.5t25.5 -61.5z" />
    <glyph glyph-name="plusminus" unicode="&#xb1;" horiz-adv-x="800" 
d="M672 229v48h-247v185h-50v-185h-247v-48h247v-181h50v181h247zM672 -16v48h-544v-48h544z" />
    <glyph glyph-name="twosuperior" unicode="&#xb2;" horiz-adv-x="543" 
d="M465 267v50h-333q30 49 78.5 77.5t101.5 52.5q28 13 55 26.5t48 30.5t33.5 39t12.5 52q0 33 -14.5 56.5t-40 39t-60 23t-73.5 7.5q-84 0 -129 -32.5t-61 -88.5l50 -8q4 14 12.5 28.5t23.5 26t39 18.5t61 7q78 0 110 -23t32 -53q0 -20 -9.5 -34.5t-27.5 -28.5
q-10 -7 -21 -13t-24 -12q-13 -7 -26.5 -13t-27.5 -13q-29 -13 -59.5 -29t-58.5 -38.5t-51.5 -53.5t-38.5 -74l24 -20h374z" />
    <glyph glyph-name="threesuperior" unicode="&#xb3;" horiz-adv-x="543" 
d="M459 390q0 25 -7.5 44t-20 33.5t-29 24t-33.5 15.5q32 13 49.5 38t17.5 64q0 15 -6 34.5t-24 37t-50.5 29t-86.5 11.5q-70 0 -118 -25t-64 -93l48 -11q13 45 43 62.5t92 17.5q42 0 65 -8t34.5 -19.5t14 -23t2.5 -17.5q0 -14 -8.5 -28t-28.5 -24.5t-52 -17t-79 -6.5v-47
q100 0 145.5 -22.5t45.5 -63.5q0 -36 -30 -62t-103 -26q-35 0 -61 5.5t-45 16.5t-32.5 28t-23.5 41l-49 -13q29 -71 79 -99t125 -28q92 0 141 35.5t49 96.5z" />
    <glyph glyph-name="acute" unicode="&#xb4;" horiz-adv-x="500" 
d="M454 701h-93l-178 -145h67z" />
    <glyph glyph-name="mu" unicode="&#xb5;" horiz-adv-x="721" 
d="M617 -16v564h-52v-421q-37 -28 -73 -48t-64 -31q-33 -14 -65 -20.5t-61 -6.5q-49 0 -77 12.5t-43 26.5q-20 20 -25.5 44t-5.5 54v390h-52v-812h52v285q52 -49 149 -49q67 0 143 29q32 13 61.5 30t63.5 40q-1 -11 -1.5 -26t-1 -28.5t-0.5 -22.5v-10h52z" />
    <glyph glyph-name="paragraph" unicode="&#xb6;" horiz-adv-x="654" 
d="M507 -248v973h-227q-56 0 -100 -15t-76 -43q-31 -28 -48 -67t-17 -86q0 -60 22.5 -100.5t59.5 -65.5q34 -23 75.5 -33t86.5 -12v-551h50v924h124v-924h50z" />
    <glyph glyph-name="periodcentered" unicode="&#xb7;" horiz-adv-x="260" 
d="M164 253q0 14 -9.5 24t-23.5 10h-1q-14 0 -24 -10t-10 -24t10 -24t24 -10t24 10t10 24z" />
    <glyph glyph-name="periodcentered" unicode="&#x2219;" horiz-adv-x="260" 
d="M164 253q0 14 -9.5 24t-23.5 10h-1q-14 0 -24 -10t-10 -24t10 -24t24 -10t24 10t10 24z" />
    <glyph glyph-name="cedilla" unicode="&#xb8;" horiz-adv-x="500" 
d="M364 -112q0 21 -9 34.5t-22.5 22t-30 12t-31.5 4.5l43 55h-62l-70 -90l35 -19q11 3 27.5 6t32 2t26.5 -6.5t11 -20.5q0 -10 -7 -16t-17.5 -9t-23.5 -4t-25 -1q-24 0 -44 5t-43 16l-29 -40q26 -13 53.5 -21.5t62.5 -8.5q24 0 46 4.5t39 14t27.5 24.5t10.5 36z" />
    <glyph glyph-name="onesuperior" unicode="&#xb9;" horiz-adv-x="543" 
d="M318 267v450h-28l-137 -61l18 -45l97 45v-389h50z" />
    <glyph glyph-name="ordmasculine" unicode="&#xba;" horiz-adv-x="464" 
d="M429 541q0 41 -14.5 74.5t-41 57t-62.5 36t-78 12.5t-77.5 -12.5t-62 -36t-41 -56.5t-14.5 -74v-1q0 -41 14.5 -74.5t41 -57t62 -36t77.5 -12.5t78 12.5t62.5 36t41 57t14.5 74.5zM379 542q0 -59 -38.5 -95.5t-107.5 -36.5q-68 0 -106.5 36.5t-38.5 95.5t38.5 95.5
t105.5 36.5h1q69 0 107.5 -36.5t38.5 -95.5z" />
    <glyph glyph-name="guillemotright" unicode="&#xbb;" horiz-adv-x="546" 
d="M479 241v16l-226 218v-67l159 -159l-159 -159v-67zM315 241v16l-226 218v-67l159 -159l-159 -159v-67z" />
    <glyph glyph-name="onequarter" unicode="&#xbc;" horiz-adv-x="1161" 
d="M1036 101v48h-94v284h-41l-282 -299v-33h273v-117h50v117h94zM866 721h-64l-637 -749h65zM318 267v450h-28l-137 -61l18 -45l97 45v-389h50zM892 354v-97v-108h-193l93 98q25 26 50 53z" />
    <glyph glyph-name="onehalf" unicode="&#xbd;" horiz-adv-x="1161" 
d="M1047 -16v50h-333q30 49 78.5 77.5t101.5 52.5q28 13 55 26.5t48 30.5t33.5 39t12.5 52q0 33 -14.5 56.5t-40 39t-60 23t-73.5 7.5q-84 0 -129 -32.5t-61 -88.5l50 -8q4 14 12.5 28.5t23.5 26t39 18.5t61 7q78 0 110 -23t32 -53q0 -20 -9.5 -34.5t-27.5 -28.5
q-10 -7 -21 -13t-24 -12q-13 -7 -26.5 -13t-27.5 -13q-29 -13 -59.5 -29t-58.5 -38.5t-51.5 -53.5t-38.5 -74l24 -20h374zM843 721h-64l-637 -749h65zM299 267v450h-27l-127 -37l14 -47l90 27v-393h50z" />
    <glyph glyph-name="threequarters" unicode="&#xbe;" horiz-adv-x="1246" 
d="M1121 101v48h-94v284h-41l-282 -299v-33h273v-117h50v117h94zM967 721h-64l-637 -749h65zM459 390q0 25 -7.5 44t-20 33.5t-29 24t-33.5 15.5q32 13 49.5 38t17.5 64q0 15 -6 34.5t-24 37t-50.5 29t-86.5 11.5q-70 0 -118 -25t-64 -93l48 -11q13 45 43 62.5t92 17.5
q42 0 65 -8t34.5 -19.5t14 -23t2.5 -17.5q0 -14 -8.5 -28t-28.5 -24.5t-52 -17t-79 -6.5v-47q100 0 145.5 -22.5t45.5 -63.5q0 -36 -30 -62t-103 -26q-35 0 -61 5.5t-45 16.5t-32.5 28t-23.5 41l-49 -13q29 -71 79 -99t125 -28q92 0 141 35.5t49 96.5zM977 354v-97v-108
h-193l93 98q25 26 50 53z" />
    <glyph glyph-name="questiondown" unicode="&#xbf;" horiz-adv-x="587" 
d="M346 391v112h-52v-112h52zM597 -87l-48 18q-29 -59 -90.5 -92.5t-170.5 -33.5q-50 0 -93 7t-74.5 22t-49.5 39.5t-18 59.5q0 25 6 44.5t19.5 36.5t36.5 32t57 32q54 26 88.5 50.5t54 55t26.5 69.5t4 94h-46q1 -43 -3.5 -74.5t-19.5 -56.5t-43.5 -46.5t-76.5 -44.5
q-42 -20 -71 -39.5t-48 -42t-27.5 -49t-8.5 -59.5q0 -53 24 -87.5t63.5 -54.5t90.5 -28.5t105 -8.5q68 0 119 11t88.5 31t63 49.5t42.5 65.5z" />
    <glyph glyph-name="Agrave" unicode="&#xc0;" horiz-adv-x="691" 
d="M473 741l-199 122h-126l240 -122h85zM691 -16l-329 741h-34l-328 -741h58l110 247h353l111 -247h59zM499 282h-308l81 187l36 84t37 87q19 -46 38 -89t37 -86z" />
    <glyph glyph-name="Aacute" unicode="&#xc1;" horiz-adv-x="691" 
d="M548 873h-126l-199 -122h85zM691 -16l-329 741h-34l-328 -741h58l110 247h353l111 -247h59zM499 282h-308l81 187l36 84t37 87q19 -46 38 -89t37 -86z" />
    <glyph glyph-name="Acircumflex" unicode="&#xc2;" horiz-adv-x="691" 
d="M571 743l-221 99h-8l-221 -99h96l129 44l3 -1l14 -5l45 -15l67 -23h96zM691 -16l-329 741h-34l-328 -741h58l110 247h353l111 -247h59zM499 282h-308l81 187l36 84t37 87q19 -46 38 -89t37 -86z" />
    <glyph glyph-name="Atilde" unicode="&#xc3;" horiz-adv-x="691" 
d="M519 808l-35 35q-19 -23 -34.5 -29t-35.5 -6q-15 0 -29.5 2.5t-21.5 4.5l-22 7q-19 6 -36 8t-30 2q-28 0 -53 -10t-50 -39l35 -35q19 23 33.5 28.5t34.5 5.5q15 0 29.5 -2.5t21.5 -4.5l22 -7q20 -6 36.5 -8t29.5 -2q29 0 54.5 10.5t50.5 39.5zM691 -16l-329 741h-34
l-328 -741h58l110 247h353l111 -247h59zM499 282h-308l81 187l36 84t37 87q19 -46 38 -89t37 -86z" />
    <glyph glyph-name="Adieresis" unicode="&#xc4;" horiz-adv-x="691" 
d="M487 731v104h-50v-104h50zM255 731v104h-50v-104h50zM691 -16l-329 741h-34l-328 -741h58l110 247h353l111 -247h59zM499 282h-308l81 187l36 84t37 87q19 -46 38 -89t37 -86z" />
    <glyph glyph-name="Aring" unicode="&#xc5;" horiz-adv-x="691" 
d="M691 -16l-318 717q26 7 46 25t20 50q0 20 -8.5 34.5t-22 24.5t-30 14.5t-32.5 4.5t-32.5 -4.5t-30 -14.5t-22 -24.5t-8.5 -34.5q0 -31 19.5 -49.5t44.5 -24.5l-317 -718h58l110 247h353l111 -247h59zM387 776q0 -10 -8.5 -19.5t-32.5 -9.5h-1q-25 0 -33.5 10t-8.5 19
q0 11 10.5 20t31.5 9t31.5 -9t10.5 -20zM499 282h-308l81 187l36 84t37 87q19 -46 38 -89t37 -86z" />
    <glyph glyph-name="AE" unicode="&#xc6;" horiz-adv-x="1120" 
d="M1046 -16v51h-457v310h360v51h-360v278h443v51h-498l-577 -741h65l193 247h320v-247h511zM535 282h-281l146 188q34 45 67.5 88t67.5 89v-169v-196z" />
    <glyph glyph-name="Ccedilla" unicode="&#xc7;" horiz-adv-x="844" 
d="M793 155l-43 30q-19 -26 -45.5 -55t-62 -53.5t-79.5 -40.5t-98 -16q-67 0 -129.5 20.5t-111 61.5t-77.5 104t-29 148q0 90 31 153.5t81 104t113 59t127 18.5q46 0 84 -11t69.5 -31t56.5 -47t45 -58l45 28q-23 37 -53 68t-67 53.5t-82 35t-98 12.5q-88 0 -162 -26.5
t-129 -77.5q-54 -51 -84.5 -121.5t-30.5 -158.5t31.5 -160t88.5 -126q40 -38 101.5 -64.5t139.5 -33.5l-43 -58l34 -19q56 11 83 1t27 -26q0 -4 -3 -10t-12.5 -11.5t-26.5 -9.5t-44 -4t-49.5 5.5t-44.5 15.5l-28 -39q29 -17 59 -24t68 -7q63 0 98 23.5t35 60.5q0 22 -9.5 37
t-25 24t-34.5 13.5t-38 4.5l15 22q57 3 103.5 21t84 44t67 57.5t52.5 62.5z" />
    <glyph glyph-name="Egrave" unicode="&#xc8;" horiz-adv-x="719" 
d="M447 751l-199 122h-126l240 -122h85zM645 -16v51h-457v310h360v51h-360v278h443v51h-497v-741h511z" />
    <glyph glyph-name="Eacute" unicode="&#xc9;" horiz-adv-x="719" 
d="M602 843h-126l-199 -122h85zM645 -16v51h-457v310h360v51h-360v278h443v51h-497v-741h511z" />
    <glyph glyph-name="Ecircumflex" unicode="&#xca;" horiz-adv-x="719" 
d="M585 743l-221 99h-8l-221 -99h96l129 44l3 -1l14 -5l45 -15l67 -23h96zM645 -16v51h-457v310h360v51h-360v278h443v51h-497v-741h511z" />
    <glyph glyph-name="Edieresis" unicode="&#xcb;" horiz-adv-x="719" 
d="M521 751v104h-50v-104h50zM289 751v104h-50v-104h50zM645 -16v51h-457v310h360v51h-360v278h443v51h-497v-741h511z" />
    <glyph glyph-name="Igrave" unicode="&#xcc;" horiz-adv-x="342" 
d="M298 751l-199 122h-126l240 -122h85zM198 -16v741h-54v-741h54z" />
    <glyph glyph-name="Iacute" unicode="&#xcd;" horiz-adv-x="342" 
d="M373 873h-126l-199 -122h85zM198 -16v741h-54v-741h54z" />
    <glyph glyph-name="Icircumflex" unicode="&#xce;" horiz-adv-x="342" 
d="M396 743l-221 99h-8l-221 -99h96l129 44l3 -1l14 -5l45 -15l67 -23h96zM198 -16v741h-54v-741h54z" />
    <glyph glyph-name="Idieresis" unicode="&#xcf;" horiz-adv-x="342" 
d="M312 731v104h-50v-104h50zM80 731v104h-50v-104h50zM198 -16v741h-54v-741h54z" />
    <glyph glyph-name="Eth" unicode="&#xd0;" horiz-adv-x="881" 
d="M797 354q0 84 -26 152.5t-78 117t-131.5 75t-185.5 26.5h-242v-330h-90v-51h90v-360h242q106 0 185.5 26.5t131.5 74.5t78 116.5t26 152.5zM743 354q0 -71 -21 -129.5t-65 -100.5t-113.5 -65.5t-165.5 -23.5h-190v309h253v51h-253v279h190q96 0 165.5 -23.5t113.5 -65.5
t65 -101t21 -130z" />
    <glyph glyph-name="Ntilde" unicode="&#xd1;" horiz-adv-x="904" 
d="M625 808l-35 35q-19 -23 -34.5 -29t-35.5 -6q-15 0 -29.5 2.5t-21.5 4.5l-22 7q-19 6 -36 8t-30 2q-28 0 -53 -10t-50 -39l35 -35q19 23 33.5 28.5t34.5 5.5q15 0 29.5 -2.5t21.5 -4.5l22 -7q20 -6 36.5 -8t29.5 -2q29 0 54.5 10.5t50.5 39.5zM770 -16v741h-54v-402
q0 -162 1 -256q-74 93 -206.5 256t-325.5 402h-51v-741h54v401t-1 257q75 -94 207 -257t325 -401h51z" />
    <glyph glyph-name="Ograve" unicode="&#xd2;" horiz-adv-x="940" 
d="M876 354q0 87 -27.5 154.5t-74.5 115t-108.5 75t-130.5 36.5l-178 109h-126l208 -106q-74 -4 -142 -29.5t-119.5 -73.5t-82.5 -117.5t-31 -162.5v-1q0 -97 34 -169t90.5 -120t130 -71.5t151.5 -23.5t151.5 23.5t130 71.5t90.5 120t34 169zM822 355q0 -85 -29 -148
t-77.5 -104t-112.5 -61.5t-133 -20.5t-133 20.5t-112.5 61.5t-77.5 104t-29 148t29 148.5t77.5 104.5t112 61.5t132.5 20.5h1q69 0 133 -20.5t112.5 -61.5t77.5 -104.5t29 -148.5z" />
    <glyph glyph-name="Oacute" unicode="&#xd3;" horiz-adv-x="940" 
d="M876 357q0 93 -30.5 162.5t-82.5 117.5t-119.5 73.5t-141.5 30.5l209 106h-126l-177 -109q-69 -8 -131.5 -36t-110 -75t-75 -114.5t-27.5 -154.5v-1q0 -97 34 -169t90.5 -120t130 -71.5t151.5 -23.5t151.5 23.5t130 71.5t90.5 120t34 169zM822 355q0 -85 -29 -148
t-77.5 -104t-112.5 -61.5t-133 -20.5t-133 20.5t-112.5 61.5t-77.5 104t-29 148t29 148.5t77.5 104.5t112 61.5t132.5 20.5h1q69 0 133 -20.5t112.5 -61.5t77.5 -104.5t29 -148.5z" />
    <glyph glyph-name="Ocircumflex" unicode="&#xd4;" horiz-adv-x="940" 
d="M694 744l-221 99h-8l-221 -99h96l129 44l3 -1l14 -5l45 -15l67 -23h96zM876 354q0 97 -34 169.5t-90.5 120.5t-130 71.5t-151.5 23.5t-151.5 -23.5t-130 -71.5t-90.5 -120t-34 -169v-1q0 -97 34 -169t90.5 -120t130 -71.5t151.5 -23.5t151.5 23.5t130 71.5t90.5 120
t34 169zM822 355q0 -85 -29 -148t-77.5 -104t-112.5 -61.5t-133 -20.5t-133 20.5t-112.5 61.5t-77.5 104t-29 148t29 148.5t77.5 104.5t112 61.5t132.5 20.5h1q69 0 133 -20.5t112.5 -61.5t77.5 -104.5t29 -148.5z" />
    <glyph glyph-name="Otilde" unicode="&#xd5;" horiz-adv-x="940" 
d="M642 809l-35 35q-19 -23 -34.5 -29t-35.5 -6q-15 0 -29.5 2.5t-21.5 4.5l-22 7q-19 6 -36 8t-30 2q-28 0 -53 -10t-50 -39l35 -35q19 23 33.5 28.5t34.5 5.5q15 0 29.5 -2.5t21.5 -4.5l22 -7q20 -6 36.5 -8t29.5 -2q29 0 54.5 10.5t50.5 39.5zM876 354q0 97 -34 169.5
t-90.5 120.5t-130 71.5t-151.5 23.5t-151.5 -23.5t-130 -71.5t-90.5 -120t-34 -169v-1q0 -97 34 -169t90.5 -120t130 -71.5t151.5 -23.5t151.5 23.5t130 71.5t90.5 120t34 169zM822 355q0 -85 -29 -148t-77.5 -104t-112.5 -61.5t-133 -20.5t-133 20.5t-112.5 61.5t-77.5 104
t-29 148t29 148.5t77.5 104.5t112 61.5t132.5 20.5h1q69 0 133 -20.5t112.5 -61.5t77.5 -104.5t29 -148.5z" />
    <glyph glyph-name="Odieresis" unicode="&#xd6;" horiz-adv-x="940" 
d="M610 732v104h-50v-104h50zM378 732v104h-50v-104h50zM876 354q0 97 -34 169.5t-90.5 120.5t-130 71.5t-151.5 23.5t-151.5 -23.5t-130 -71.5t-90.5 -120t-34 -169v-1q0 -97 34 -169t90.5 -120t130 -71.5t151.5 -23.5t151.5 23.5t130 71.5t90.5 120t34 169zM822 355
q0 -85 -29 -148t-77.5 -104t-112.5 -61.5t-133 -20.5t-133 20.5t-112.5 61.5t-77.5 104t-29 148t29 148.5t77.5 104.5t112 61.5t132.5 20.5h1q69 0 133 -20.5t112.5 -61.5t77.5 -104.5t29 -148.5z" />
    <glyph glyph-name="multiply" unicode="&#xd7;" horiz-adv-x="800" 
d="M655 32l-221 221l221 221l-34 34l-221 -221l-221 221l-34 -34l221 -221l-221 -221l34 -34l221 221l221 -221z" />
    <glyph glyph-name="Oslash" unicode="&#xd8;" horiz-adv-x="940" 
d="M895 707l-36 39l-107 -102q-56 47 -127.5 71t-154.5 24q-78 0 -151.5 -23.5t-130 -71.5t-90.5 -120.5t-34 -169.5q0 -45 7.5 -83t20 -69.5t29 -57t33.5 -45.5l-109 -97l36 -39l107 102q56 -47 127.5 -71t153.5 -24q79 0 152.5 23.5t130 71.5t90.5 120t34 169
q0 45 -7.5 83t-20 69.5t-29 57.5t-33.5 46zM715 612l-525 -483q-34 45 -53 102t-19 123q0 85 29 148.5t77.5 104.5t112.5 61.5t133 20.5q49 0 91 -9t71 -21q26 -11 46.5 -23t36.5 -24zM822 354q0 -85 -29 -148t-77.5 -104t-112.5 -61.5t-133 -20.5q-49 0 -91 8.5t-71 21.5
q-26 11 -46.5 23t-36.5 24l525 483q34 -45 53 -102.5t19 -123.5z" />
    <glyph glyph-name="Ugrave" unicode="&#xd9;" horiz-adv-x="833" 
d="M504 721l-199 122h-126l240 -122h85zM709 287v438h-54v-436q0 -74 -10.5 -125.5t-37.5 -83.5t-73.5 -46t-118.5 -14q-70 0 -115.5 14t-72.5 46t-38 83.5t-11 125.5v436h-54v-438q0 -90 17 -151t52.5 -98t90.5 -52.5t131 -15.5q77 0 132.5 15.5t91.5 52.5t53 98t17 151z
" />
    <glyph glyph-name="Uacute" unicode="&#xda;" horiz-adv-x="833" 
d="M659 843h-126l-199 -122h85zM709 287v438h-54v-436q0 -74 -10.5 -125.5t-37.5 -83.5t-73.5 -46t-118.5 -14q-70 0 -115.5 14t-72.5 46t-38 83.5t-11 125.5v436h-54v-438q0 -90 17 -151t52.5 -98t90.5 -52.5t131 -15.5q77 0 132.5 15.5t91.5 52.5t53 98t17 151z" />
    <glyph glyph-name="Ucircumflex" unicode="&#xdb;" horiz-adv-x="833" 
d="M642 743l-221 99h-8l-221 -99h96l129 44l3 -1l14 -5l45 -15l67 -23h96zM709 287v438h-54v-436q0 -74 -10.5 -125.5t-37.5 -83.5t-73.5 -46t-118.5 -14q-70 0 -115.5 14t-72.5 46t-38 83.5t-11 125.5v436h-54v-438q0 -90 17 -151t52.5 -98t90.5 -52.5t131 -15.5
q77 0 132.5 15.5t91.5 52.5t53 98t17 151z" />
    <glyph glyph-name="Udieresis" unicode="&#xdc;" horiz-adv-x="833" 
d="M558 711v104h-50v-104h50zM326 711v104h-50v-104h50zM709 287v438h-54v-436q0 -74 -10.5 -125.5t-37.5 -83.5t-73.5 -46t-118.5 -14q-70 0 -115.5 14t-72.5 46t-38 83.5t-11 125.5v436h-54v-438q0 -90 17 -151t52.5 -98t90.5 -52.5t131 -15.5q77 0 132.5 15.5t91.5 52.5
t53 98t17 151z" />
    <glyph glyph-name="Yacute" unicode="&#xdd;" horiz-adv-x="700" 
d="M592 843h-126l-199 -122h85zM697 725h-65l-149 -198q-33 -45 -66 -89t-67 -89q-33 45 -66.5 88.5t-66.5 88.5l-149 199h-65l320 -425v-316h54v316z" />
    <glyph glyph-name="Thorn" unicode="&#xde;" horiz-adv-x="811" 
d="M766 381q0 51 -22 92.5t-69 70t-120 44t-174 15.5h-193v122h-54v-741h54v170h173q106 0 182.5 15t126 44.5t73 71.5t23.5 96zM712 381q0 -37 -16 -69t-56.5 -56t-108.5 -37.5t-172 -13.5h-171v347h201q94 0 156.5 -14.5t99.5 -38t52 -54.5t15 -64z" />
    <glyph glyph-name="germandbls" unicode="&#xdf;" horiz-adv-x="740" 
d="M688 245q0 55 -16.5 94t-43.5 66t-61.5 42.5t-71.5 23.5q31 16 50 37t30 37q9 13 13.5 34t6.5 36q2 11 2 20v14q0 19 -6 45.5t-28.5 51t-67 42t-120.5 17.5q-58 0 -100.5 -14t-72.5 -37.5t-49.5 -54.5t-30 -64.5t-14.5 -68t-4 -64.5v-758h52v756q0 39 7 84t29.5 83.5
t66 63.5t116.5 25q63 0 97 -13t50.5 -30.5t19.5 -35t3 -25.5q0 -31 -10 -60.5t-36.5 -52t-72.5 -36t-117 -13.5h-18v-49h21q88 0 149.5 -12.5t100.5 -37t56.5 -61.5t17.5 -86q0 -45 -13.5 -83.5t-45 -67t-83 -44.5t-127.5 -16h-46v-49h47q94 0 155.5 22t98 59t51.5 83.5
t15 96.5z" />
    <glyph glyph-name="agrave" unicode="&#xe0;" horiz-adv-x="653" 
d="M394 586l-178 145h-93l204 -145h67zM606 -16l-30 34q-8 9 -12.5 15.5t-6.5 14.5t-2.5 19t-0.5 29v280q0 91 -55 137.5t-179 46.5q-28 0 -52.5 -2.5t-42.5 -5t-28.5 -5l-10.5 -2.5l5 -51l30.5 8.5t97.5 8.5q54 0 89 -8.5t56 -26t29.5 -44t8.5 -61.5v-11
q-107 -9 -191.5 -23.5t-142.5 -39.5t-88.5 -64t-30.5 -98q0 -30 12.5 -59.5t41 -52.5t75.5 -37t116 -14q19 0 45.5 3t55 11.5t57.5 22.5t54 36q6 -28 34 -61h66zM502 108q-24 -29 -52.5 -46t-57 -26t-54 -12t-42.5 -3q-62 0 -100 11.5t-59 28.5t-28.5 37.5t-7.5 37.5
q0 42 23.5 71t72.5 49t125 33t180 22v-203z" />
    <glyph glyph-name="aacute" unicode="&#xe1;" horiz-adv-x="653" 
d="M531 731h-93l-178 -145h67zM606 -16l-30 34q-8 9 -12.5 15.5t-6.5 14.5t-2.5 19t-0.5 29v280q0 91 -55 137.5t-179 46.5q-28 0 -52.5 -2.5t-42.5 -5t-28.5 -5l-10.5 -2.5l5 -51l30.5 8.5t97.5 8.5q54 0 89 -8.5t56 -26t29.5 -44t8.5 -61.5v-11q-107 -9 -191.5 -23.5
t-142.5 -39.5t-88.5 -64t-30.5 -98q0 -30 12.5 -59.5t41 -52.5t75.5 -37t116 -14q19 0 45.5 3t55 11.5t57.5 22.5t54 36q6 -28 34 -61h66zM502 108q-24 -29 -52.5 -46t-57 -26t-54 -12t-42.5 -3q-62 0 -100 11.5t-59 28.5t-28.5 37.5t-7.5 37.5q0 42 23.5 71t72.5 49t125 33
t180 22v-203z" />
    <glyph glyph-name="acircumflex" unicode="&#xe2;" horiz-adv-x="653" 
d="M520 575l-187 124h-12l-187 -124h75l118 64l118 -64h75zM606 -16l-30 34q-8 9 -12.5 15.5t-6.5 14.5t-2.5 19t-0.5 29v280q0 91 -55 137.5t-179 46.5q-28 0 -52.5 -2.5t-42.5 -5t-28.5 -5l-10.5 -2.5l5 -51l30.5 8.5t97.5 8.5q54 0 89 -8.5t56 -26t29.5 -44t8.5 -61.5
v-11q-107 -9 -191.5 -23.5t-142.5 -39.5t-88.5 -64t-30.5 -98q0 -30 12.5 -59.5t41 -52.5t75.5 -37t116 -14q19 0 45.5 3t55 11.5t57.5 22.5t54 36q6 -28 34 -61h66zM502 108q-24 -29 -52.5 -46t-57 -26t-54 -12t-42.5 -3q-62 0 -100 11.5t-59 28.5t-28.5 37.5t-7.5 37.5
q0 42 23.5 71t72.5 49t125 33t180 22v-203z" />
    <glyph glyph-name="atilde" unicode="&#xe3;" horiz-adv-x="653" 
d="M486 659l-34 34q-18 -20 -30.5 -25t-29.5 -5q-14 0 -27.5 2.5t-20.5 4.5l-20 6q-17 5 -33 7t-27 2q-25 0 -48 -9t-46 -37l34 -34q18 20 30.5 25t29.5 5q14 0 27.5 -2.5t20.5 -4.5l20 -6q17 -5 33 -7t27 -2q25 0 48 9t46 37zM606 -16l-30 34q-8 9 -12.5 15.5t-6.5 14.5
t-2.5 19t-0.5 29v280q0 91 -55 137.5t-179 46.5q-28 0 -52.5 -2.5t-42.5 -5t-28.5 -5l-10.5 -2.5l5 -51l30.5 8.5t97.5 8.5q54 0 89 -8.5t56 -26t29.5 -44t8.5 -61.5v-11q-107 -9 -191.5 -23.5t-142.5 -39.5t-88.5 -64t-30.5 -98q0 -30 12.5 -59.5t41 -52.5t75.5 -37
t116 -14q19 0 45.5 3t55 11.5t57.5 22.5t54 36q6 -28 34 -61h66zM502 108q-24 -29 -52.5 -46t-57 -26t-54 -12t-42.5 -3q-62 0 -100 11.5t-59 28.5t-28.5 37.5t-7.5 37.5q0 42 23.5 71t72.5 49t125 33t180 22v-203z" />
    <glyph glyph-name="adieresis" unicode="&#xe4;" horiz-adv-x="653" 
d="M466 596v109h-50v-109h50zM238 596v109h-50v-109h50zM606 -16l-30 34q-8 9 -12.5 15.5t-6.5 14.5t-2.5 19t-0.5 29v280q0 91 -55 137.5t-179 46.5q-28 0 -52.5 -2.5t-42.5 -5t-28.5 -5l-10.5 -2.5l5 -51l30.5 8.5t97.5 8.5q54 0 89 -8.5t56 -26t29.5 -44t8.5 -61.5v-11
q-107 -9 -191.5 -23.5t-142.5 -39.5t-88.5 -64t-30.5 -98q0 -30 12.5 -59.5t41 -52.5t75.5 -37t116 -14q19 0 45.5 3t55 11.5t57.5 22.5t54 36q6 -28 34 -61h66zM502 108q-24 -29 -52.5 -46t-57 -26t-54 -12t-42.5 -3q-62 0 -100 11.5t-59 28.5t-28.5 37.5t-7.5 37.5
q0 42 23.5 71t72.5 49t125 33t180 22v-203z" />
    <glyph glyph-name="aring" unicode="&#xe5;" horiz-adv-x="653" 
d="M420 643q0 20 -8.5 34.5t-22 24.5t-30 14.5t-32.5 4.5t-32.5 -4.5t-30 -14.5t-22 -24.5t-8.5 -34.5t8.5 -34.5t22 -24.5t30 -14.5t31.5 -4.5h1q16 0 32.5 4.5t30 14.5t22 24.5t8.5 34.5zM606 -16l-30 34q-8 9 -12.5 15.5t-6.5 14.5t-2.5 19t-0.5 29v280q0 91 -55 137.5
t-179 46.5q-28 0 -52.5 -2.5t-42.5 -5t-28.5 -5l-10.5 -2.5l5 -51l30.5 8.5t97.5 8.5q54 0 89 -8.5t56 -26t29.5 -44t8.5 -61.5v-11q-107 -9 -191.5 -23.5t-142.5 -39.5t-88.5 -64t-30.5 -98q0 -30 12.5 -59.5t41 -52.5t75.5 -37t116 -14q19 0 45.5 3t55 11.5t57.5 22.5
t54 36q6 -28 34 -61h66zM368 643q0 -10 -8.5 -24.5t-32.5 -14.5h-1q-12 0 -20.5 4.5t-13 10.5t-6.5 12.5t-2 11.5q0 11 10.5 25t31.5 14t31.5 -14t10.5 -25zM502 108q-24 -29 -52.5 -46t-57 -26t-54 -12t-42.5 -3q-62 0 -100 11.5t-59 28.5t-28.5 37.5t-7.5 37.5
q0 42 23.5 71t72.5 49t125 33t180 22v-203z" />
    <glyph glyph-name="ae" unicode="&#xe6;" horiz-adv-x="1130" 
d="M1089 253q0 71 -19.5 124.5t-57.5 93.5q-41 42 -94 65.5t-113 23.5q-47 0 -87.5 -10.5t-73.5 -28.5t-58 -42.5t-41 -52.5q-6 30 -20.5 54.5t-40.5 42.5t-66 27.5t-98 9.5q-54 0 -89 -4.5t-56 -10.5t-29 -10.5l-8 -4.5l12 -42q1 1 14.5 6t52.5 11t102 6q55 0 91 -9.5
t56 -27.5t28 -44t8 -59v-11q-107 -9 -191.5 -23.5t-142.5 -39.5t-88.5 -64t-30.5 -98q0 -30 12.5 -59.5t41 -52.5t75.5 -37t116 -14q80 0 147 30t118 81q26 -35 58.5 -56.5t66 -33.5t65.5 -16.5t58 -4.5q40 0 89 8.5t92 19t72 19l29 8.5l-11 51q-7 -2 -35 -11.5t-67.5 -19.5
t-85 -18t-87.5 -8q-41 0 -83.5 12t-78.5 39t-60 71.5t-27 109.5h535zM1034 303h-479q3 39 20 76t48.5 66.5t76.5 47.5t105 18q48 0 88 -17t70 -46t48 -66.5t23 -78.5zM533 126q-19 -21 -44.5 -40t-56 -33.5t-65 -23t-71.5 -8.5q-62 0 -100 11.5t-59 28.5t-28.5 37.5
t-7.5 37.5q0 42 23.5 71t72.5 49t125 33t180 22v-38q0 -44 8.5 -80.5t22.5 -66.5z" />
    <glyph glyph-name="ccedilla" unicode="&#xe7;" horiz-adv-x="673" 
d="M636 115l-47 24q-16 -26 -36 -47.5t-46 -37t-60.5 -24.5t-79.5 -9q-50 0 -96.5 14t-83.5 44t-59 76t-22 111q0 62 22.5 108t59 76.5t83.5 45.5t96 15q40 0 70.5 -6.5t55.5 -19t45 -31.5t38 -43l45 26q-23 30 -48.5 53t-56 38.5t-67 23.5t-82.5 8q-58 0 -114 -17.5
t-100.5 -54t-71.5 -92t-27 -130.5q0 -72 23 -125t61.5 -89t89 -55.5t105.5 -23.5l-37 -47l35 -19q11 3 27.5 6t32 2t26.5 -6.5t11 -20.5q0 -10 -7 -16t-17.5 -9t-23.5 -4t-25 -1q-24 0 -44 5t-43 16l-29 -40q26 -13 53.5 -21.5t62.5 -8.5q24 0 46 4.5t39 14t27.5 24.5
t10.5 36t-9 34.5t-22.5 22t-30 12t-31.5 4.5l9 11q48 3 85 15.5t66 31.5t51 43.5t40 52.5z" />
    <glyph glyph-name="egrave" unicode="&#xe8;" horiz-adv-x="682" 
d="M408 586l-178 145h-93l204 -145h67zM641 253q0 75 -21 128t-56 90q-42 44 -95 66.5t-112 22.5q-67 0 -119.5 -20t-93.5 -55q-43 -38 -66.5 -91.5t-23.5 -120.5q0 -75 22.5 -129t61.5 -92q45 -42 102 -61t117 -19q40 0 89 8.5t92 19t72 19l29 8.5l-11 51
q-7 -2 -34.5 -11.5t-66.5 -19.5t-84.5 -18t-87.5 -8q-41 0 -83.5 12t-78.5 39t-60 71.5t-27 109.5h535zM586 303h-479q3 42 22 80t52 66.5t77.5 45t98.5 16.5q48 0 88 -17t70 -46t48 -66.5t23 -78.5z" />
    <glyph glyph-name="eacute" unicode="&#xe9;" horiz-adv-x="682" 
d="M545 731h-93l-178 -145h67zM641 253q0 75 -21 128t-56 90q-42 44 -95 66.5t-112 22.5q-67 0 -119.5 -20t-93.5 -55q-43 -38 -66.5 -91.5t-23.5 -120.5q0 -75 22.5 -129t61.5 -92q45 -42 102 -61t117 -19q40 0 89 8.5t92 19t72 19l29 8.5l-11 51q-7 -2 -34.5 -11.5
t-66.5 -19.5t-84.5 -18t-87.5 -8q-41 0 -83.5 12t-78.5 39t-60 71.5t-27 109.5h535zM586 303h-479q3 42 22 80t52 66.5t77.5 45t98.5 16.5q48 0 88 -17t70 -46t48 -66.5t23 -78.5z" />
    <glyph glyph-name="ecircumflex" unicode="&#xea;" horiz-adv-x="682" 
d="M534 575l-187 124h-12l-187 -124h75l118 64l118 -64h75zM641 253q0 75 -21 128t-56 90q-42 44 -95 66.5t-112 22.5q-67 0 -119.5 -20t-93.5 -55q-43 -38 -66.5 -91.5t-23.5 -120.5q0 -75 22.5 -129t61.5 -92q45 -42 102 -61t117 -19q40 0 89 8.5t92 19t72 19l29 8.5
l-11 51q-7 -2 -34.5 -11.5t-66.5 -19.5t-84.5 -18t-87.5 -8q-41 0 -83.5 12t-78.5 39t-60 71.5t-27 109.5h535zM586 303h-479q3 42 22 80t52 66.5t77.5 45t98.5 16.5q48 0 88 -17t70 -46t48 -66.5t23 -78.5z" />
    <glyph glyph-name="edieresis" unicode="&#xeb;" horiz-adv-x="682" 
d="M480 596v109h-50v-109h50zM252 596v109h-50v-109h50zM641 253q0 75 -21 128t-56 90q-42 44 -95 66.5t-112 22.5q-67 0 -119.5 -20t-93.5 -55q-43 -38 -66.5 -91.5t-23.5 -120.5q0 -75 22.5 -129t61.5 -92q45 -42 102 -61t117 -19q40 0 89 8.5t92 19t72 19l29 8.5l-11 51
q-7 -2 -34.5 -11.5t-66.5 -19.5t-84.5 -18t-87.5 -8q-41 0 -83.5 12t-78.5 39t-60 71.5t-27 109.5h535zM586 303h-479q3 42 22 80t52 66.5t77.5 45t98.5 16.5q48 0 88 -17t70 -46t48 -66.5t23 -78.5z" />
    <glyph glyph-name="igrave" unicode="&#xec;" horiz-adv-x="280" 
d="M247 576l-178 145h-93l204 -145h67zM166 -16v564h-52v-564h52z" />
    <glyph glyph-name="iacute" unicode="&#xed;" horiz-adv-x="280" 
d="M304 721h-93l-178 -145h67zM166 -16v564h-52v-564h52z" />
    <glyph glyph-name="icircumflex" unicode="&#xee;" horiz-adv-x="280" 
d="M333 575l-187 124h-12l-187 -124h75l118 64l118 -64h75zM166 -16v564h-52v-564h52z" />
    <glyph glyph-name="idieresis" unicode="&#xef;" horiz-adv-x="280" 
d="M279 596v109h-50v-109h50zM51 596v109h-50v-109h50zM166 -16v564h-52v-564h52z" />
    <glyph glyph-name="eth" unicode="&#xf0;" horiz-adv-x="739" 
d="M685 312q0 58 -17 118t-49 112q-21 32 -51.5 64t-71.5 59l148 46l-46 36l-158 -49q-54 23 -113 38t-122 19l-107 -43q54 -2 95 -6t72.5 -9t55.5 -10.5t43 -11.5l-209 -64l48 -36l230 71q60 -33 92 -66.5t51 -61.5q14 -23 26 -47q-46 48 -108 68.5t-125 20.5
q-65 0 -122.5 -19.5t-100.5 -57t-67.5 -92.5t-24.5 -125q0 -59 19.5 -112t59 -93.5t98.5 -64.5t138 -24q75 0 134 22t97 65q18 21 34 43.5t27 51.5t17.5 67t6.5 91zM633 280q0 -45 -13.5 -91t-44 -83.5t-81 -61t-123.5 -23.5h-1q-68 0 -117.5 20.5t-82 54t-48.5 78t-16 92.5
q0 57 20 102.5t55.5 77t83.5 48.5t105 17q63 0 112 -19.5t82.5 -52t51 -74t17.5 -85.5z" />
    <glyph glyph-name="ntilde" unicode="&#xf1;" horiz-adv-x="721" 
d="M520 659l-34 34q-18 -20 -30.5 -25t-29.5 -5q-14 0 -27.5 2.5t-20.5 4.5l-20 6q-17 5 -33 7t-27 2q-25 0 -48 -9t-46 -37l34 -34q18 20 30.5 25t29.5 5q14 0 27.5 -2.5t20.5 -4.5l20 -6q17 -5 33 -7t27 -2q25 0 48 9t46 37zM622 -16v391q0 45 -11.5 76t-34.5 55
q-52 54 -155 54q-35 0 -70 -6.5t-73 -21.5q-61 -25 -125 -69q1 14 1.5 35t1 34.5t0.5 15.5h-52v-564h52v421q13 10 30 22t36 23.5t37.5 20.5t33.5 15q68 25 126 25q48 0 75.5 -11.5t44.5 -27.5q19 -20 25 -44.5t6 -53.5v-390h52z" />
    <glyph glyph-name="ograve" unicode="&#xf2;" horiz-adv-x="739" 
d="M437 586l-170 145h-101l204 -145h67zM685 265v1q0 70 -25 125t-67.5 92.5t-100 57t-122.5 19.5q-66 0 -123.5 -19.5t-100 -57t-67.5 -92.5t-25 -125q0 -59 19.5 -112t59 -93.5t98.5 -64.5t139 -24q82 0 141.5 25t98 66t57 93.5t18.5 108.5zM633 265q0 -48 -16 -92.5
t-48.5 -78t-82 -54t-115.5 -20.5h-1q-68 0 -117.5 20.5t-82 54t-48.5 78t-16 92.5q0 57 20 102.5t55.5 77t83.5 48.5t105 17q56 0 104 -16.5t83.5 -48t55.5 -77t20 -103.5z" />
    <glyph glyph-name="oacute" unicode="&#xf3;" horiz-adv-x="739" 
d="M574 731h-93l-178 -145h67zM685 265v1q0 70 -25 125t-67.5 92.5t-100 57t-122.5 19.5q-66 0 -123.5 -19.5t-100 -57t-67.5 -92.5t-25 -125q0 -59 19.5 -112t59 -93.5t98.5 -64.5t139 -24q82 0 141.5 25t98 66t57 93.5t18.5 108.5zM633 265q0 -48 -16 -92.5t-48.5 -78
t-82 -54t-115.5 -20.5h-1q-68 0 -117.5 20.5t-82 54t-48.5 78t-16 92.5q0 57 20 102.5t55.5 77t83.5 48.5t105 17q56 0 104 -16.5t83.5 -48t55.5 -77t20 -103.5z" />
    <glyph glyph-name="ocircumflex" unicode="&#xf4;" horiz-adv-x="739" 
d="M563 575l-187 124h-12l-187 -124h75l118 64l118 -64h75zM685 265v1q0 70 -25 125t-67.5 92.5t-100 57t-122.5 19.5q-66 0 -123.5 -19.5t-100 -57t-67.5 -92.5t-25 -125q0 -59 19.5 -112t59 -93.5t98.5 -64.5t139 -24q82 0 141.5 25t98 66t57 93.5t18.5 108.5zM633 265
q0 -48 -16 -92.5t-48.5 -78t-82 -54t-115.5 -20.5h-1q-68 0 -117.5 20.5t-82 54t-48.5 78t-16 92.5q0 57 20 102.5t55.5 77t83.5 48.5t105 17q56 0 104 -16.5t83.5 -48t55.5 -77t20 -103.5z" />
    <glyph glyph-name="otilde" unicode="&#xf5;" horiz-adv-x="739" 
d="M529 659l-34 34q-18 -20 -30.5 -25t-29.5 -5q-14 0 -27.5 2.5t-20.5 4.5l-20 6q-17 5 -33 7t-27 2q-25 0 -48 -9t-46 -37l34 -34q18 20 30.5 25t29.5 5q14 0 27.5 -2.5t20.5 -4.5l20 -6q17 -5 33 -7t27 -2q25 0 48 9t46 37zM685 265v1q0 70 -25 125t-67.5 92.5t-100 57
t-122.5 19.5q-66 0 -123.5 -19.5t-100 -57t-67.5 -92.5t-25 -125q0 -59 19.5 -112t59 -93.5t98.5 -64.5t139 -24q82 0 141.5 25t98 66t57 93.5t18.5 108.5zM633 265q0 -48 -16 -92.5t-48.5 -78t-82 -54t-115.5 -20.5h-1q-68 0 -117.5 20.5t-82 54t-48.5 78t-16 92.5
q0 57 20 102.5t55.5 77t83.5 48.5t105 17q56 0 104 -16.5t83.5 -48t55.5 -77t20 -103.5z" />
    <glyph glyph-name="odieresis" unicode="&#xf6;" horiz-adv-x="739" 
d="M518 596v109h-50v-109h50zM290 596v109h-50v-109h50zM694 265v1q0 70 -25 125t-67.5 92.5t-100 57t-122.5 19.5q-66 0 -123.5 -19.5t-100 -57t-67.5 -92.5t-25 -125q0 -59 19.5 -112t59 -93.5t98.5 -64.5t139 -24q82 0 141.5 25t98 66t57 93.5t18.5 108.5zM642 265
q0 -48 -16 -92.5t-48.5 -78t-81.5 -54t-116 -20.5h-1q-68 0 -117.5 20.5t-82 54t-48.5 78t-16 92.5q0 57 20 102.5t55.5 77t83.5 48.5t105 17q56 0 104 -16.5t83.5 -48t55.5 -77t20 -103.5z" />
    <glyph glyph-name="divide" unicode="&#xf7;" horiz-adv-x="605" 
d="M334 395q0 14 -9.5 24t-23.5 10h-1q-14 0 -24 -10t-10 -24t10 -24t24 -10t24 10t10 24zM573 230v48h-544v-48h544zM335 113q0 14 -9.5 24t-23.5 10h-1q-14 0 -24 -10t-10 -24t10 -24t24 -10t24 10t10 24z" />
    <glyph glyph-name="oslash" unicode="&#xf8;" horiz-adv-x="739" 
d="M726 529l-32 38l-101 -86q-34 32 -87.5 55t-134.5 23q-66 0 -124 -19.5t-101 -57t-67.5 -92.5t-24.5 -125q0 -48 14.5 -94t46.5 -88l-102 -82l32 -38l101 86q13 -13 32.5 -26.5t46.5 -25t62.5 -19t80.5 -7.5q82 0 142 25t99 66t57.5 94t18.5 109q0 48 -14.5 94t-46.5 88z
M559 452l-408 -341q-15 21 -30 59t-15 95t20 102.5t55.5 77t84 48.5t106.5 17q34 0 65.5 -5.5t54.5 -14.5q24 -9 40 -18.5t27 -19.5zM633 265q0 -48 -15.5 -92.5t-48 -78t-82.5 -54t-119 -20.5q-35 0 -66.5 5.5t-54.5 14.5t-39.5 18.5t-27.5 19.5l408 341q15 -21 30 -59
t15 -95z" />
    <glyph glyph-name="ugrave" unicode="&#xf9;" horiz-adv-x="721" 
d="M428 556l-178 145h-93l204 -145h67zM617 -16v564h-52v-421q-37 -28 -73 -48t-64 -31q-33 -14 -65 -20.5t-61 -6.5q-49 0 -77 12.5t-42 26.5q-20 19 -26 43.5t-6 54.5v390h-52v-391q0 -45 11.5 -76t34.5 -55q52 -54 155 -54q67 0 143 29q32 13 61.5 30t63.5 40
q-1 -11 -1.5 -26t-1 -28.5t-0.5 -22.5v-10h52z" />
    <glyph glyph-name="uacute" unicode="&#xfa;" horiz-adv-x="721" 
d="M565 701h-93l-178 -145h67zM617 -16v564h-52v-421q-37 -28 -73 -48t-64 -31q-33 -14 -65 -20.5t-61 -6.5q-49 0 -77 12.5t-42 26.5q-20 19 -26 43.5t-6 54.5v390h-52v-391q0 -45 11.5 -76t34.5 -55q52 -54 155 -54q67 0 143 29q32 13 61.5 30t63.5 40q-1 -11 -1.5 -26
t-1 -28.5t-0.5 -22.5v-10h52z" />
    <glyph glyph-name="ucircumflex" unicode="&#xfb;" horiz-adv-x="721" 
d="M554 575l-187 124h-12l-187 -124h75l118 64l118 -64h75zM617 -16v564h-52v-421q-37 -28 -73 -48t-64 -31q-33 -14 -65 -20.5t-61 -6.5q-49 0 -77 12.5t-42 26.5q-20 19 -26 43.5t-6 54.5v390h-52v-391q0 -45 11.5 -76t34.5 -55q52 -54 155 -54q67 0 143 29q32 13 61.5 30
t63.5 40q-1 -11 -1.5 -26t-1 -28.5t-0.5 -22.5v-10h52z" />
    <glyph glyph-name="udieresis" unicode="&#xfc;" horiz-adv-x="721" 
d="M500 596v109h-50v-109h50zM272 596v109h-50v-109h50zM617 -16v564h-52v-421q-37 -28 -73 -48t-64 -31q-33 -14 -65 -20.5t-61 -6.5q-49 0 -77 12.5t-42 26.5q-20 19 -26 43.5t-6 54.5v390h-52v-391q0 -45 11.5 -76t34.5 -55q52 -54 155 -54q67 0 143 29q32 13 61.5 30
t63.5 40q-1 -11 -1.5 -26t-1 -28.5t-0.5 -22.5v-10h52z" />
    <glyph glyph-name="yacute" unicode="&#xfd;" horiz-adv-x="661" 
d="M575 701h-93l-178 -145h67zM650 548h-56l-109 -255q-24 -56 -48.5 -114t-49.5 -117q-77 122 -153 243t-152 243h-61l341 -541l-49 -111q-21 -50 -54 -81q-43 -43 -119 -43q-20 0 -36 2.5t-30 6.5q-15 5 -29 12.5t-32 18.5l-27 -45q23 -13 38 -20.5t34 -12.5
q17 -5 36.5 -8t45.5 -3q53 0 90 16t63 39q26 24 42 51t26 50z" />
    <glyph glyph-name="thorn" unicode="&#xfe;" horiz-adv-x="739" 
d="M680 268q0 63 -20.5 113t-55.5 88q-87 91 -227 91q-42 0 -77 -7t-66 -21q-47 -23 -78 -48v259h-52v-1007h52v314q20 -16 42.5 -29.5t42.5 -22.5q42 -18 76.5 -22t59.5 -4q75 0 132 25.5t93 63.5q42 46 60 99.5t18 107.5zM628 268q0 -57 -17.5 -99.5t-46.5 -72.5
q-37 -40 -85 -57.5t-102 -17.5q-37 0 -66.5 6t-52.5 17q-21 9 -46.5 25t-55.5 45v305q45 45 99 68q31 14 61 19t61 5q63 0 109.5 -20.5t78.5 -54.5t47.5 -77t15.5 -91z" />
    <glyph glyph-name="ydieresis" unicode="&#xff;" horiz-adv-x="661" 
d="M493 596v109h-50v-109h50zM265 596v109h-50v-109h50zM650 548h-56l-109 -255q-24 -56 -48.5 -114t-49.5 -117q-77 122 -153 243t-152 243h-61l341 -541l-49 -111q-21 -50 -54 -81q-43 -43 -119 -43q-20 0 -36 2.5t-30 6.5q-15 5 -29 12.5t-32 18.5l-27 -45
q23 -13 38 -20.5t34 -12.5q17 -5 36.5 -8t45.5 -3q53 0 90 16t63 39q26 24 42 51t26 50z" />
    <glyph glyph-name="OE" unicode="&#x152;" horiz-adv-x="1231" 
d="M1157 -16v51h-457v310h360v51h-360v278h443v51h-470q-17 4 -57.5 9t-115.5 5q-99 0 -179.5 -26.5t-137.5 -76t-88 -121t-31 -161.5t31 -161.5t88 -121t137.5 -75.5t179.5 -26q79 0 119 5t54 9h484zM646 24q0 -7 -39 -5.5t-106 1.5q-88 0 -158.5 22.5t-120.5 65.5t-77 105
t-27 141t27 141.5t77 105.5t120.5 65.5t158.5 22.5q67 0 106 1.5t39 -5.5v-661z" />
    <glyph glyph-name="oe" unicode="&#x153;" horiz-adv-x="1232" 
d="M1191 253q0 75 -21 128t-56 90q-42 44 -95 66.5t-112 22.5q-56 0 -101 -14t-80 -37t-59.5 -53.5t-38.5 -63.5q-11 26 -31 55.5t-52.5 54.5t-80 41.5t-112.5 16.5q-63 0 -117 -20.5t-94.5 -58.5t-63.5 -92.5t-23 -122.5q0 -64 21.5 -118t60.5 -93t94 -61t122 -22
q58 0 103.5 13t80 35.5t58 53t37.5 64.5q21 -50 54 -82t71 -51t77.5 -26t73.5 -7q40 0 89 8.5t92 19t72 19l29 8.5l-11 51q-7 -2 -34.5 -11.5t-66.5 -19.5t-84.5 -18t-87.5 -8q-39 0 -82 12t-79.5 39t-61 71.5t-27.5 109.5h536zM1136 302h-480q3 36 19.5 73t47.5 67t76.5 49
t106.5 19q48 0 88 -17t70 -46t48.5 -66.5t23.5 -78.5zM603 266q0 -62 -18.5 -108t-51.5 -76.5t-79 -45.5t-101 -15q-56 0 -101.5 18t-77.5 50.5t-50 77.5t-18 98v1q0 65 22 111.5t57.5 76t79.5 43.5t88 14q55 0 101 -17t79 -49t51.5 -77t18.5 -102z" />
    <glyph glyph-name="Scaron" unicode="&#x160;" horiz-adv-x="790" 
d="M620 838h-96l-129 -44l-3 1l-14 5l-45 15l-67 23h-96l221 -99h8zM728 193q0 53 -25.5 88.5t-56.5 55.5q-19 12 -40 21.5t-48.5 17.5t-62.5 16.5t-81 18.5q-53 12 -89.5 20t-62 15t-42.5 12.5t-31 12.5q-26 13 -41.5 35.5t-15.5 52.5q0 59 61 93q33 19 86.5 28t114.5 9
q55 0 96 -7t71 -20t50.5 -32t34.5 -43l47 25q-18 31 -44 55t-62 40t-83.5 24t-109.5 8q-70 0 -127 -10t-100 -33q-48 -24 -68.5 -60.5t-20.5 -73.5q0 -52 24 -84.5t54 -48.5q13 -7 28.5 -13.5t39.5 -13.5t61 -16t95 -22q55 -12 92.5 -21t63 -16.5t42 -14t29.5 -13.5
q24 -14 45.5 -39t21.5 -69q0 -33 -18 -62.5t-50 -50.5q-39 -26 -92.5 -42t-123.5 -16q-112 0 -184 30t-112 81l-42 -35q52 -60 131.5 -93t205.5 -33q75 0 138 17.5t108 48.5q44 29 68.5 69t24.5 88z" />
    <glyph glyph-name="scaron" unicode="&#x161;" horiz-adv-x="652" 
d="M519 694h-75l-118 -64l-118 64h-75l187 -124h12zM608 147q0 30 -12.5 57.5t-35.5 45.5q-15 13 -33.5 22t-44 16.5t-60.5 14t-83 14.5q-53 8 -86 14t-54 11.5t-34 11.5t-24 15q-16 12 -21.5 24.5t-5.5 26.5q0 21 11 36t34 27q32 16 76 21.5t92 5.5q88 0 140.5 -23.5
t79.5 -63.5l40 35q-24 30 -46.5 47t-48.5 28q-38 17 -79.5 22t-85.5 5q-59 0 -107 -7.5t-83 -23.5q-35 -17 -55 -44t-20 -65q0 -30 13 -53t39 -42q15 -11 32 -19t41 -14t57.5 -12t82.5 -13q50 -8 83 -14t55.5 -12t36.5 -13.5t25 -16.5q15 -14 22 -32t7 -35q0 -49 -48 -80
q-34 -22 -81 -32t-96 -10q-93 0 -157 25t-99 64l-38 -38q31 -28 58.5 -46t63.5 -29q38 -12 81.5 -19t94.5 -7q132 0 204 52q35 25 52 53t17 70z" />
    <glyph glyph-name="Ydieresis" unicode="&#x178;" horiz-adv-x="700" 
d="M491 711v104h-50v-104h50zM259 711v104h-50v-104h50zM697 725h-65l-149 -198q-33 -45 -66 -89t-67 -89q-33 45 -66.5 88.5t-66.5 88.5l-149 199h-65l320 -425v-316h54v316z" />
    <glyph glyph-name="florin" unicode="&#x192;" 
d="M876 680q-44 22 -79.5 31.5t-82.5 9.5q-46 0 -82.5 -12.5t-66.5 -41.5q-27 -26 -49 -65.5t-43 -96.5l-18 -49h-158l-18 -49h158l-124 -338q-27 -75 -69 -111q-48 -39 -107 -39q-33 0 -60.5 8t-65.5 26l-27 -45q53 -24 85 -31t64 -7q46 0 81.5 13t63.5 37q30 25 50 60
t35 76l129 351h207l18 49h-207q7 22 16 46t20.5 47.5t24.5 44.5t30 38q20 19 47 29.5t65 10.5q41 0 68 -8t59 -25z" />
    <glyph glyph-name="circumflex" unicode="&#x2c6;" horiz-adv-x="500" 
d="M443 575l-187 124h-12l-187 -124h75l118 64l118 -64h75z" />
    <glyph glyph-name="tilde" unicode="&#x2dc;" horiz-adv-x="500" 
d="M409 659l-34 34q-18 -20 -30.5 -25t-29.5 -5q-14 0 -27.5 2.5t-20.5 4.5l-20 6q-17 5 -33 7t-27 2q-25 0 -48 -9t-46 -37l34 -34q18 20 30.5 25t29.5 5q14 0 27.5 -2.5t20.5 -4.5l20 -6q17 -5 33 -7t27 -2q25 0 48 9t46 37z" />
    <glyph glyph-name="endash" unicode="&#x2013;" horiz-adv-x="600" 
d="M586 226v48h-572v-48h572z" />
    <glyph glyph-name="emdash" unicode="&#x2014;" horiz-adv-x="1200" 
d="M1186 226v48h-1172v-48h1172z" />
    <glyph glyph-name="quoteleft" unicode="&#x2018;" horiz-adv-x="230" 
d="M149 536l-37 189h-58l52 -189h43z" />
    <glyph glyph-name="quoteright" unicode="&#x2019;" horiz-adv-x="230" 
d="M176 725h-58l-37 -189h43z" />
    <glyph glyph-name="quotesinglbase" unicode="&#x201a;" horiz-adv-x="589" 
d="M646 723q-29 23 -50.5 35t-42.5 20q-32 12 -67 16.5t-74 4.5q-51 0 -93.5 -9t-74.5 -29q-42 -25 -63.5 -65.5t-21.5 -92.5v-869h52v868q0 44 17 72.5t45 45.5t63 23.5t76 6.5q35 0 66.5 -5t57.5 -14q23 -8 41.5 -19.5t38.5 -34.5z" />
    <glyph glyph-name="quotedblleft" unicode="&#x201c;" horiz-adv-x="353" 
d="M272 536l-37 189h-58l52 -189h43zM149 536l-37 189h-58l52 -189h43z" />
    <glyph glyph-name="quotedblright" unicode="&#x201d;" horiz-adv-x="353" 
d="M299 725h-58l-37 -189h43zM176 725h-58l-37 -189h43z" />
    <glyph glyph-name="quotedblbase" unicode="&#x201e;" horiz-adv-x="353" 
d="M299 93h-58l-37 -189h43zM176 93h-58l-37 -189h43z" />
    <glyph glyph-name="dagger" unicode="&#x2020;" horiz-adv-x="682" 
d="M552 510v53l-187 -3l4 179h-56l4 -179l-187 3v-53l187 3q-1 -33 -2 -65.5t-1 -65.5q1 -121 2.5 -243.5t3.5 -256.5h42q2 134 3.5 256.5t2.5 243.5q0 33 -1 65.5t-2 65.5z" />
    <glyph glyph-name="daggerdbl" unicode="&#x2021;" horiz-adv-x="682" 
d="M552 178v53l-187 -3q1 39 2 77.5t1 76.5q0 33 -1 65.5t-2 65.5l187 -3v53l-187 -3l4 179h-56l4 -179l-187 3v-53l187 3q-1 -33 -2 -65.5t-1 -65.5q0 -38 1 -76.5t2 -77.5l-187 3v-53l187 3l-4 -281h56l-4 281z" />
    <glyph glyph-name="bullet" unicode="&#x2022;" horiz-adv-x="570" 
d="M363 341q0 32 -23 55t-55 23q-16 0 -30 -6t-24.5 -16.5t-17 -25t-6.5 -30.5q0 -32 23 -55t55 -23t55 23t23 55z" />
    <glyph glyph-name="ellipsis" unicode="&#x2026;" horiz-adv-x="1200" 
d="M1026 -16v112h-52v-112h52zM626 -16v112h-52v-112h52zM226 -16v112h-52v-112h52z" />
    <glyph glyph-name="perthousand" unicode="&#x2030;" horiz-adv-x="1475" 
d="M1406 165v1q0 42 -14 77.5t-39.5 62t-61.5 41.5t-79 15t-79 -15t-61.5 -41.5t-39.5 -62t-14 -77.5t14 -77.5t39.5 -62t61.5 -41.5t79 -15t79 15t61.5 41t39.5 62t14 77zM947 166v1q0 42 -14 77.5t-39.5 62t-61.5 41.5t-79 15t-79 -15t-61.5 -41.5t-39.5 -62t-14 -77.5
t14 -77.5t39.5 -62t61.5 -41.5t79 -15t79 15t61.5 41t39.5 62t14 77zM825 732h-62l-572 -759h63zM458 538v1q0 42 -14 77.5t-39.5 62t-61.5 41.5t-79 15t-79 -15t-61.5 -41.5t-39.5 -62t-14 -77.5t14 -77.5t39.5 -62t61.5 -41.5t79 -15t79 15t61.5 41t39.5 62t14 77z
M1355 165q0 -66 -38.5 -106.5t-102.5 -40.5h-1q-65 0 -103.5 40.5t-38.5 106.5t38.5 106.5t103.5 40.5t103.5 -40.5t38.5 -106.5zM895 165q0 -66 -38.5 -106.5t-102.5 -40.5h-1q-65 0 -103.5 40.5t-38.5 106.5t38.5 106.5t103.5 40.5t103.5 -40.5t38.5 -106.5zM406 538
q0 -66 -38.5 -106.5t-102.5 -40.5h-1q-65 0 -103.5 40.5t-38.5 106.5t38.5 106.5t103.5 40.5t103.5 -40.5t38.5 -106.5z" />
    <glyph glyph-name="guilsinglleft" unicode="&#x2039;" horiz-adv-x="382" 
d="M293 23v67l-159 159l159 159v67l-226 -218v-16z" />
    <glyph glyph-name="guilsinglright" unicode="&#x203a;" horiz-adv-x="382" 
d="M315 241v16l-226 218v-67l159 -159l-159 -159v-67z" />
    <glyph glyph-name="currency" unicode="&#x20ac;" horiz-adv-x="844" 
d="M834 155l-44 30q-19 -26 -45.5 -55t-62 -53.5t-79.5 -40.5t-98 -16q-59 0 -114.5 15.5t-101 47.5t-78.5 79.5t-46 112.5h600v48h-606q-1 8 -1 15v16q0 25 3 49h604v48h-596q16 63 50.5 108t81 74t100.5 42.5t109 13.5q46 0 84 -11t69.5 -31t56.5 -47t45 -58l45 28
q-23 37 -53 68t-67 53.5t-82 35t-98 12.5q-88 0 -162 -26.5t-129 -77.5q-38 -36 -65 -82t-40 -102h-106v-48h99q-3 -24 -3 -48v-16t1 -16h-97v-48h103q12 -62 40.5 -113.5t72.5 -92.5q45 -42 117.5 -70.5t163.5 -28.5q62 0 112 17t90.5 43.5t71.5 59.5t55 65z" />
    <glyph glyph-name="trademark" unicode="&#x2122;" horiz-adv-x="1170" 
d="M1021 337v388h-52l-124 -177q-53 -75 -108 -153q-26 38 -53 76.5t-54 76.5l-124 177h-51v-388h48v187v123q23 -34 45.5 -66t45.5 -65l125 -179h36l124 177q23 33 46 65.5t46 67.5v-123v-187h50zM420 678v47h-402v-47h176v-341h50v341h176z" />
    <glyph glyph-name="minus" unicode="&#xe000;" horiz-adv-x="800" 
d="M672 229v48h-544v-48h544z" />
    <glyph glyph-name="notequal" unicode="&#xe001;" horiz-adv-x="682" 
d="M630 461h-56q-19 -21 -39.5 -35t-54.5 -14t-54.5 14t-39.5 35h-19q-1 13 -1 25q0 13 -1 27l187 -3v53l-187 -3l4 179h-56l4 -179l-187 3v-53l187 3q-1 -15 -1.5 -30t-0.5 -30h-21q-19 -21 -39.5 -35t-54.5 -14t-54.5 14t-39.5 35h-56q13 -21 27.5 -39t32.5 -31.5t40 -21
t50 -7.5q39 0 66.5 14.5t47.5 35.5v-22q0 -77 1 -153t2 -153q-19 5 -33 16.5t-28 28.5h-56q23 -37 49.5 -62.5t68.5 -33.5q1 -32 1 -65q0 -34 1 -78h42q0 42 0.5 75.5t1.5 64.5q50 4 80.5 32t55.5 67h-56q-17 -19 -34.5 -32t-45.5 -16q2 78 3 154.5t1 154.5v28
q20 -20 47 -34t65 -14q28 0 50 7.5t40 21t32.5 31.5t27.5 39z" />
    <glyph glyph-name="infinity" unicode="&#xe002;" horiz-adv-x="684" 
d="M380 701h-56q-19 -21 -39.5 -35t-54.5 -14t-54.5 14t-39.5 35h-56q13 -21 27.5 -39t32.5 -31.5t40 -21t50 -7.5t50 7.5t40 21t32.5 31.5t27.5 39zM700 701h-56q-19 -21 -39.5 -35t-54.5 -14q-32 0 -51 11.5t-33 26.5v48h-52l-1 -8.5t-2 -41.5t-1.5 -96.5t0.5 -174
t4 -273.5q1 -52 -8 -79.5t-26 -46.5q-15 -17 -34 -28t-40 -17t-42 -8.5t-40 -2.5q-22 0 -38 2t-30 5q-13 2 -22 5.5t-17 6.5q-13 4 -23.5 9t-21.5 11.5t-22.5 15t-26.5 20.5l-31 -42q33 -26 58 -39.5t50 -22.5q26 -10 55 -15t64 -5q67 0 116.5 18t81.5 53q25 28 37 64.5
t12 96.5v480q16 -10 37 -16.5t47 -6.5q28 0 50 7.5t40 21t32.5 31.5t27.5 39zM380 -169h-56q-19 -21 -39.5 -35t-54.5 -14t-54.5 14t-39.5 35h-56q13 -21 27.5 -39t32.5 -31.5t40 -21t50 -7.5t50 7.5t40 21t32.5 31.5t27.5 39z" />
    <glyph glyph-name="lessequal" unicode="&#xe003;" horiz-adv-x="684" 
d="M605 701h-56q-19 -21 -39.5 -35t-54.5 -14t-54.5 14t-39.5 35h-56q13 -21 27.5 -39t32.5 -31.5t40 -21t50 -7.5t50 7.5t40 21t32.5 31.5t27.5 39zM693 -5l-31 42q-29 -23 -49 -35t-45 -21q-8 -3 -17 -6.5t-22 -5.5q-14 -3 -30 -5t-38 -2q-19 0 -40 2.5t-42 8.5t-40 17
t-34 28q-17 19 -25.5 46.5t-8.5 79.5v594h-52v-48q-14 -15 -33 -26.5t-51 -11.5q-34 0 -54.5 14t-39.5 35h-56q13 -21 27.5 -39t32.5 -31.5t40 -21t50 -7.5q26 0 47 6.5t37 16.5v-480q0 -60 12 -96.5t37 -64.5q65 -71 198 -71q35 0 64 5t55 15q25 9 50 22.5t58 39.5z
M605 -169h-56q-19 -21 -39.5 -35t-54.5 -14t-54.5 14t-39.5 35h-56q13 -21 27.5 -39t32.5 -31.5t40 -21t50 -7.5t50 7.5t40 21t32.5 31.5t27.5 39z" />
    <glyph glyph-name="greaterequal" unicode="&#xe004;" horiz-adv-x="788" 
d="M360 621h-56l-8 -8q-19 26 -48 42t-64 16h-1q-29 0 -54.5 -11t-44 -29.5t-29.5 -44t-11 -54.5t11 -54.5t29.5 -44t44 -29.5t54.5 -11t54.5 11t44 29.5t29.5 44t11 54.5q0 19 -4 32q9 8 17.5 20t24.5 37zM740 621h-56q-5 -5 -8 -8.5t-6 -6.5q-18 29 -48.5 47t-67.5 18h-1
q-50 0 -87 -31v108h-52v-216v-378q0 -52 -8.5 -79.5t-25.5 -46.5q-15 -17 -34 -28t-40 -17t-42 -8.5t-40 -2.5q-22 0 -38 2t-30 5q-13 2 -22 5.5t-17 6.5q-13 4 -23.5 9t-21.5 11.5t-22.5 15t-26.5 20.5l-31 -42q33 -26 58 -39.5t50 -22.5q26 -10 55 -15t64 -5
q67 0 116.5 18t81.5 53q25 28 37 64.5t12 96.5v269q37 -31 87 -31q29 0 54.5 11t44 29.5t29.5 44t11 54.5q0 6 -0.5 12.5t-1.5 12.5q12 10 22.5 23.5t27.5 40.5zM467 -18l-53 -3q0 -6 -1 -23t-4 -39t-10 -43.5t-19 -36.5q-15 -18 -34 -28.5t-40 -16.5t-42 -8t-40 -2
q-22 0 -38 2t-30 5q-13 2 -22 5.5t-17 6.5q-13 4 -23.5 9t-21.5 11.5t-22.5 15t-26.5 20.5l-31 -42q33 -26 58 -39.5t50 -22.5q26 -10 55 -15t64 -5q33 0 60 2t51 9.5t45.5 22t41.5 38.5q16 18 25.5 48t15 58.5t7.5 49.5zM628 578q-17 -6 -38 -6q-29 0 -47.5 10t-33.5 25
q19 12 44 12h1q23 0 43 -11t31 -30zM641 530q0 -18 -7 -33.5t-19 -27t-27.5 -18t-33.5 -6.5q-36 0 -61.5 25.5t-25.5 61.5q0 21 9 38q17 -18 44.5 -33t69.5 -15q27 0 51 8zM256 581q-9 -4 -20.5 -6.5t-25.5 -2.5q-28 0 -45.5 9t-31.5 22q22 16 50 16h1q23 0 41.5 -10.5
t30.5 -27.5zM271 532q0 -36 -25.5 -61.5t-61.5 -25.5t-61.5 25.5t-25.5 61.5q0 17 6 31q17 -17 43.5 -29t63.5 -12q34 0 61 11v-1z" />
    <glyph glyph-name="partialdiff" unicode="&#xe005;" horiz-adv-x="788" 
d="M467 -18l-53 -3q0 -6 -1 -23t-4 -39t-10 -43.5t-19 -36.5q-15 -18 -34 -28.5t-40 -16.5t-42 -8t-40 -2q-22 0 -38 2t-30 5q-13 2 -22 5.5t-17 6.5q-13 4 -23.5 9t-21.5 11.5t-22.5 15t-26.5 20.5l-31 -42q33 -26 58 -39.5t50 -22.5q26 -10 55 -15t64 -5q33 0 60 2t51 9.5
t45.5 22t41.5 38.5q16 18 25.5 48t15 58.5t7.5 49.5z" />
    <glyph glyph-name="summation" unicode="&#xe006;" horiz-adv-x="684" 
d="M380 701h-56q-19 -21 -39.5 -35t-54.5 -14t-54.5 14t-39.5 35h-56q13 -21 27.5 -39t32.5 -31.5t40 -21t50 -7.5t50 7.5t40 21t32.5 31.5t27.5 39zM700 701h-56q-19 -21 -39.5 -35t-54.5 -14q-32 0 -51 11.5t-33 26.5v48h-52v-594q0 -52 -8.5 -79.5t-25.5 -46.5
q-15 -17 -34 -28t-40 -17t-42 -8.5t-40 -2.5q-22 0 -38 2t-30 5q-13 2 -22 5.5t-17 6.5q-13 4 -23.5 9t-21.5 11.5t-22.5 15t-26.5 20.5l-31 -42q33 -26 58 -39.5t50 -22.5q26 -10 55 -15t64 -5q67 0 116.5 18t81.5 53q25 28 37 64.5t12 96.5v480q16 -10 37 -16.5t47 -6.5
q28 0 50 7.5t40 21t32.5 31.5t27.5 39zM380 -169h-56q-19 -21 -39.5 -35t-54.5 -14t-54.5 14t-39.5 35h-56q13 -21 27.5 -39t32.5 -31.5t40 -21t50 -7.5t50 7.5t40 21t32.5 31.5t27.5 39z" />
    <glyph glyph-name="product" unicode="&#xe007;" horiz-adv-x="788" 
d="M686 532q0 15 -3 30l-7 21q-15 39 -49.5 63.5t-79.5 24.5h-1q-44 0 -78.5 -25t-49.5 -63l-7 -23q-3 -14 -3 -28q0 -29 11 -54.5t29.5 -44t44 -29.5t54.5 -11t54.5 11t44 29.5t29.5 44t11 54.5zM738 5l-31 42q-29 -23 -49 -35t-45 -21q-8 -3 -17 -6.5t-22 -5.5
q-14 -3 -30 -5t-38 -2q-19 0 -40 2.5t-42 8.5t-40 17t-34 28q-17 19 -25.5 46.5t-8.5 79.5v378v216h-52v-108q-37 31 -87 31h-1q-42 0 -75 -22.5t-50 -57.5l-8 -21q-5 -20 -5 -38q0 -29 11 -54.5t29.5 -44t44 -29.5t54.5 -11q50 0 87 31v-269q0 -60 12 -96.5t37 -64.5
q65 -71 198 -71q35 0 64 5t55 15q25 9 50 22.5t58 39.5zM738 -185l-31 42q-29 -23 -49 -35t-45 -21q-8 -3 -17 -6.5t-22 -5.5q-14 -3 -30 -5t-38 -2q-19 0 -40 2t-42 7.5t-40 16.5t-34 29q-12 15 -19 36.5t-10 43.5t-4 39t-1 23l-53 3l2 -21t7.5 -49.5t15 -58.5t25.5 -48
q20 -24 41.5 -38.5t45.5 -22t51 -9.5t60 -2q35 0 64 5t55 15q25 9 50 22.5t58 39.5zM626 567q-14 -14 -32.5 -23.5t-47.5 -9.5t-47.5 9.5t-32.5 23.5q11 23 32 37.5t48 14.5h1q26 0 47 -14.5t32 -37.5zM629 507q-8 -27 -31 -44.5t-52 -17.5t-52 17.5t-31 44.5
q16 -11 36.5 -17t46.5 -6t46.5 6t36.5 17zM254 570q-13 -11 -30.5 -19.5t-43.5 -8.5q-29 0 -47.5 9.5t-32.5 23.5q11 20 31.5 32t44.5 12h1q26 0 46 -13.5t31 -35.5zM261 513q-6 -29 -29.5 -48.5t-55.5 -19.5q-33 0 -57.5 21.5t-28.5 53.5q17 -12 39 -20t51 -8q25 0 45 6
t36 15z" />
    <glyph glyph-name="pi" unicode="&#xe008;" horiz-adv-x="587" 
d="M300 621h-56q-19 -21 -39.5 -35t-54.5 -14t-54.5 14t-39.5 35h-56q13 -21 27.5 -39t32.5 -31.5t40 -21t50 -7.5t50 7.5t40 21t32.5 31.5t27.5 39zM597 193l-48 18q-29 -59 -90.5 -92.5t-170.5 -33.5q-50 0 -93 7t-74.5 22t-49.5 39.5t-18 59.5q0 25 6 44.5t19.5 36.5
t36.5 32t57 32q44 21 75 41t52 42.5t32 49t14 59.5q17 -12 39.5 -20t51.5 -8q28 0 50 7.5t40 21t32.5 31.5t27.5 39h-56q-19 -21 -39.5 -35t-54.5 -14q-32 0 -52.5 12.5t-37.5 32.5l-5 10h-42l7 -35q-3 -33 -10.5 -58.5t-24 -47t-44.5 -41t-71 -40.5q-42 -20 -71 -39.5
t-48 -42t-27.5 -49t-8.5 -59.5q0 -53 24 -87.5t63.5 -54.5t90.5 -28.5t105 -8.5q68 0 119 11t88.5 31t63 49.5t42.5 65.5zM586 -79h-56q-19 -21 -39.5 -35t-54.5 -14t-54.5 14t-39.5 35h-56q13 -21 27.5 -39t32.5 -31.5t40 -21t50 -7.5t50 7.5t40 21t32.5 31.5t27.5 39z" />
    <glyph glyph-name="integral" unicode="&#xe009;" horiz-adv-x="638" 
d="M642 492q-1 19 -4.5 31.5t-12.5 29.5q-20 38 -50.5 58t-70.5 20h-1q-45 0 -80 -25t-50 -65l-7 -24q-1 -6 -1.5 -12.5t-0.5 -12.5q0 -29 11 -54.5t29.5 -44t44 -29.5t54.5 -11t54.5 11t44.5 29.5t30 44t10 54.5zM597 193l-48 18q-29 -59 -90.5 -92.5t-170.5 -33.5
q-50 0 -93 7t-74.5 22t-49.5 39.5t-18 59.5q0 25 6 44.5t19.5 36.5t36.5 32t57 32q54 26 88.5 50.5t54 55t26.5 69.5t4 94h-46q1 -43 -3.5 -74.5t-19.5 -56.5t-43.5 -46.5t-76.5 -44.5q-42 -20 -71 -39.5t-48 -42t-27.5 -49t-8.5 -59.5q0 -53 24 -87.5t63.5 -54.5
t90.5 -28.5t105 -8.5q68 0 119 11t88.5 31t63 49.5t42.5 65.5zM611 -185l-32 42q-29 -23 -48.5 -35t-44.5 -21q-8 -3 -17.5 -6.5t-22.5 -5.5q-13 -3 -29.5 -5t-38.5 -2q-19 0 -40 2t-41.5 8t-39.5 16.5t-34 28.5q-12 15 -19 36.5t-10.5 43.5t-4.5 39t-1 23l-53 3l2 -21
t7.5 -49.5t15 -58.5t25.5 -48q21 -24 42 -38.5t45 -22t51 -9.5t60 -2q35 0 64 5t55 15q25 9 50.5 22.5t58.5 39.5zM583 528q-14 -14 -33 -25t-49 -11q-29 0 -46.5 9t-31.5 23q10 24 31.5 39.5t48.5 15.5h1q26 0 47.5 -14t31.5 -37zM587 467q-8 -27 -31 -44.5t-52 -17.5
t-51 16t-31 41q16 -9 35.5 -14.5t43.5 -5.5q27 0 48.5 7t37.5 18z" />
    <glyph glyph-name="Omega" unicode="&#xe00a;" horiz-adv-x="638" 
d="M642 597q0 29 -11 54.5t-29.5 44t-44 29.5t-53.5 11h-1q-29 0 -54.5 -11t-44 -29.5t-29.5 -44t-11 -54.5t11 -54.5t29.5 -44t44 -29.5t54.5 -11t54.5 11t44 29.5t29.5 44t11 54.5zM597 297l-48 19q-29 -60 -90.5 -93t-170.5 -33q-50 0 -93 7t-74.5 22t-49.5 39.5
t-18 59.5q0 25 6 44.5t19.5 36t36.5 32t57 31.5q54 26 88.5 51t54 55.5t26.5 69.5t4 94h-46q1 -43 -3.5 -74.5t-19.5 -56.5t-43.5 -46.5t-76.5 -44.5q-42 -20 -71 -39.5t-48 -42t-27.5 -49t-8.5 -59.5q0 -53 24 -87.5t63.5 -54.5t90.5 -28.5t105 -8.5q68 0 119 11t88.5 31
t63 49t42.5 65zM611 -80l-32 41q-14 -11 -26 -19.5t-22.5 -15t-21.5 -11.5t-23 -9q-8 -3 -17.5 -6.5t-22.5 -6.5q-13 -2 -29.5 -4t-38.5 -2q-19 0 -40 2t-41.5 7.5t-39.5 16.5t-34 29q-12 15 -19 36.5t-10.5 43.5t-4.5 39t-1 23l-53 3l2 -21t7.5 -49.5t15 -58.5t25.5 -49
q21 -24 42 -38t45 -21.5t51 -9.5t60 -2q35 0 64 5t55 15q25 9 50.5 22.5t58.5 39.5zM556 684h-12l-55 -52l-14 -14v61q15 5 28 5h1q26 0 48 -14zM591 597q0 -17 -5.5 -31t-14.5 -25l-52 58l54 51q8 -11 13 -24.5t5 -28.5zM534 515q-17 -5 -30 -5q-18 0 -31 6q2 11 2 23v18
l12 11zM430 550q-13 23 -13 47q0 25 13 46v-93z" />
    <glyph glyph-name="radical" unicode="&#xe00b;" horiz-adv-x="587" 
d="M597 619h-57q-18 -21 -38.5 -35t-54.5 -14q-35 0 -55.5 14t-38.5 35h-54v6h-11h-29l-10 -12q-14 -17 -34 -30t-54 -13q-35 0 -55.5 14t-38.5 35h-57q13 -21 28 -39t33 -31.5t40 -21t50 -7.5q29 0 51.5 8t39.5 19q3 -33 14 -59.5t32 -48.5t52 -42.5t75 -41.5
q34 -17 56.5 -32t36.5 -31.5t20 -36t6 -44.5q0 -35 -18 -59.5t-49.5 -39.5t-74.5 -22t-93 -7q-109 0 -170.5 33t-90.5 93l-48 -19q17 -36 42.5 -65t63 -49.5t88.5 -31t119 -10.5q54 0 105 8.5t90.5 28.5t63.5 54.5t24 87.5q0 33 -8.5 59.5t-27.5 49t-48 42t-71 39.5
q-46 22 -74 38t-43.5 37t-20.5 52.5t-4 84.5q13 -20 27 -37.5t32 -30t39.5 -20t49.5 -7.5t50 7.5t40 21t32.5 31.5t27.5 39zM311 -81h-57q-18 -21 -38.5 -35t-54.5 -14q-35 0 -55.5 14t-38.5 35h-57q13 -21 28 -39t33 -31.5t40 -21t50 -7.5t50 7.5t40 21t32.5 31.5t27.5 39z
" />
    <glyph glyph-name="approxequal" unicode="&#xe00c;" horiz-adv-x="638" 
d="M622 215q0 33 -8.5 59.5t-27.5 49t-48 42t-71 39.5q-48 23 -76.5 44.5t-43.5 46.5t-19.5 56.5t-3.5 74.5h-46q-3 -55 4 -94t26.5 -69.5t54 -55t88.5 -50.5q34 -17 57 -32t36.5 -32t19.5 -36.5t6 -44.5q0 -35 -18 -59.5t-49.5 -39.5t-74.5 -22t-93 -7q-109 0 -170.5 33.5
t-90.5 92.5l-48 -18q17 -36 42.5 -65.5t63 -49.5t88.5 -31t119 -11q54 0 105 8.5t90.5 28.5t63.5 54.5t24 87.5zM279 492q0 29 -11 54.5t-29.5 44t-44 29.5t-54.5 11h-1q-48 0 -84 -28t-48 -72l-5 -21q-1 -5 -1 -9v-9q0 -29 11 -54.5t29.5 -44t44 -29.5t54.5 -11t54.5 11
t44 29.5t29.5 44t11 54.5zM488 -18l-53 -3q0 -6 -1 -23t-4.5 -39t-10.5 -43.5t-19 -36.5q-15 -18 -34 -28.5t-39.5 -16.5t-41.5 -8t-40 -2q-22 0 -38.5 2t-29.5 5q-13 2 -22.5 5.5t-17.5 6.5q-25 9 -44.5 21t-48.5 35l-32 -42q33 -26 58.5 -39.5t50.5 -22.5q26 -10 55 -15
t64 -5q33 0 60 2t51 9.5t45 22t42 38.5q16 18 25.5 48t15 58.5t7.5 49.5zM222 519q-14 -15 -33 -26t-50 -11t-50 11t-33 26q8 26 31 43t52 17h1q29 0 51.5 -17t30.5 -43zM216 451q-11 -20 -31.5 -33t-45.5 -13t-45.5 13t-31.5 33q16 -8 35 -13.5t42 -5.5t42 5.5t35 13.5z
" />
    <glyph glyph-name="Delta" unicode="&#xe00d;" 
d="M800 347q0 75 -14 136t-40.5 105t-65 68t-87.5 24q-36 0 -66.5 -13.5t-55 -36.5t-42 -54t-28.5 -65q-9 30 -22.5 56t-33 45.5t-45.5 30.5t-58 11q-62 0 -108 -46t-67 -127l-4 -20q-11 -53 -11 -114q0 -71 14 -128t39 -96.5t60 -61t77 -21.5q31 0 56 11t45 30.5t34.5 45
t23.5 55.5q11 -34 29 -64.5t42.5 -53.5t54.5 -36.5t66 -13.5q51 0 89.5 25.5t64.5 70.5t39.5 106t13.5 131zM550 -129h-56q-19 -21 -39.5 -35t-54.5 -14t-54.5 14t-39.5 35h-56q13 -21 27.5 -39t32.5 -31.5t40 -21t50 -7.5t50 7.5t40 21t32.5 31.5t27.5 39zM752 347
q0 -66 -11.5 -118.5t-32.5 -88.5t-50 -55t-63 -19h-1q-30 0 -60 16t-54 50t-39 87.5t-15 127.5q0 18 1 35t3 33q17 -14 41.5 -23.5t56.5 -9.5q28 0 50 7.5t40 21t32.5 31.5t27.5 39h-56q-19 -21 -39.5 -35t-54.5 -14q-32 0 -51.5 12t-35.5 29q22 81 65 118t88 37
q35 0 64 -19t50 -55t32.5 -88.5t11.5 -118.5zM376 347q0 -67 -11 -115.5t-29.5 -79.5t-42.5 -45.5t-50 -14.5h-1q-27 0 -52 15.5t-45 47t-32 79.5t-12 113q0 18 1 34.5t3 31.5q17 -13 40.5 -22t54.5 -9q28 0 50 7.5t40 21t32.5 31.5t27.5 39h-56q-19 -21 -39.5 -35
t-54.5 -14q-31 0 -50 11t-34 27q18 68 52.5 100t73.5 32q27 0 51 -14.5t42.5 -45.5t29.5 -79.5t11 -115.5z" />
    <glyph glyph-name="nonbreakingspace" unicode="&#xe00e;" horiz-adv-x="266" 
 />
    <glyph glyph-name="apple" unicode="&#xe00f;" horiz-adv-x="699" 
d="M692 532q0 29 -11 54.5t-29.5 44t-44 29.5t-53.5 11h-1q-50 0 -87 -31v108h-52v-191h-94v1l12 -1l-19 24q-15 40 -49.5 65t-79.5 25h-1q-18 0 -41.5 -9.5t-44.5 -25t-35.5 -35.5t-14.5 -41q-3 -14 -3 -28q0 -29 11 -54.5t29.5 -44t44 -29.5t54.5 -11q26 0 49 9t41 24.5
t30.5 36.5t16.5 46h94v-355q0 -52 -8.5 -79.5t-25.5 -46.5q-15 -17 -34 -28t-40 -17t-42 -8.5t-40 -2.5q-22 0 -38 2t-30 5q-13 2 -22 5.5t-17 6.5q-13 4 -23.5 9t-21.5 11.5t-22.5 15t-26.5 20.5l-31 -42q33 -26 58 -39.5t50 -22.5q26 -10 55 -15t64 -5q67 0 116.5 18
t81.5 53q25 28 37 64.5t12 96.5v269q37 -31 87 -31q29 0 54.5 11t44 29.5t29.5 44t11 54.5zM467 -18l-53 -3q0 -6 -1 -23t-4 -39t-10 -43.5t-19 -36.5q-15 -18 -34 -28.5t-40 -16.5t-42 -8t-40 -2q-22 0 -38 2t-30 5q-13 2 -22 5.5t-17 6.5q-13 4 -23.5 9t-21.5 11.5
t-22.5 15t-26.5 20.5l-31 -42q33 -26 58 -39.5t50 -22.5q26 -10 55 -15t64 -5q33 0 60 2t51 9.5t45.5 22t41.5 38.5q16 18 25.5 48t15 58.5t7.5 49.5zM580 615l-44 -42l-14 -13v53q15 6 31 6h1q15 0 26 -4zM641 532q0 -30 -19 -54l-55 61l53 50q21 -24 21 -57zM584 450
q-15 -5 -30 -5q-17 0 -32 6v45l12 11zM475 494q-8 19 -8 38t8 38v-76zM264 566q-14 -14 -32.5 -24t-47.5 -10t-47.5 10t-32.5 24q10 23 31.5 38t47.5 15h1q27 0 48.5 -15t31.5 -38zM267 504q-9 -26 -31.5 -42.5t-51.5 -16.5t-51.5 16.5t-31.5 42.5q17 -10 37 -16t46 -6t46 6
t37 16z" />
    </font>
</defs>
</svg>
